<svg width="42" height="42" viewBox="0 0 42 42" fill="none" xmlns="http://www.w3.org/2000/svg">
<path id="Vector" d="M37.2633 0H4.66667C2.1 0 0 2.1 0 4.66667V37.3333C0 39.9 2.1 42 4.66667 42H37.2633C39.83 42 41.93 39.9 41.93 37.3333V4.66667C41.93 3.42899 41.4383 2.242 40.5632 1.36683C39.688 0.491665 38.501 0 37.2633 0ZM33.5533 32.62C33.4833 32.6433 33.39 32.6667 33.32 32.6667H28.0467C27.8183 32.6705 27.594 32.6059 27.4027 32.4812C27.2114 32.3564 27.0619 32.1772 26.9733 31.9667L21.2333 18.5733C21.1867 18.4333 21.0467 18.3633 20.93 18.41C20.8927 18.424 20.8589 18.4459 20.8307 18.474C20.8025 18.5022 20.7807 18.5361 20.7667 18.5733L17.1967 27.09C17.1267 27.2533 17.1967 27.4167 17.36 27.4867C17.4067 27.51 17.43 27.51 17.4767 27.51H21.3967C21.63 27.51 21.8633 27.65 21.9567 27.8833L23.6833 31.71C23.8467 32.06 23.66 32.48 23.31 32.6433C23.17 32.6433 23.0767 32.6667 22.9833 32.6667H8.70333C8.35333 32.6667 8.05 32.3633 8.05 32.0133C8.05 31.92 8.07333 31.85 8.09667 31.7567L17.1967 10.1033C17.3833 9.63667 17.85 9.33333 18.34 9.33333H23.59C24.1033 9.33333 24.5467 9.63667 24.7333 10.1033L33.88 31.7567C34.0433 32.0833 33.9033 32.48 33.5533 32.62Z" fill="white"/>
</svg>
