<svg width="26" height="26" viewBox="0 0 26 26" fill="none" xmlns="http://www.w3.org/2000/svg">
<g id="ion:logo-behance" clip-path="url(#clip0_270_44)">
<path id="Vector" d="M18.1129 11.7C16.4357 11.7 16.2035 13.3714 16.2035 13.3714H19.7669C19.7669 13.3714 19.7902 11.7 18.1129 11.7ZM10.0285 13.3714H6.8714V16.2732H9.87185C10.3245 16.2616 11.1718 16.1339 11.1718 14.863C11.1718 13.354 10.0285 13.3714 10.0285 13.3714Z" fill="#C1D8E7"/>
<path id="Vector_2" d="M13 0C5.82098 0 0 5.82098 0 13C0 20.179 5.82098 26 13 26C20.179 26 26 20.179 26 13C26 5.82098 20.179 0 13 0ZM15.7393 7.98571H20.2138V9.32054H15.7393V7.98571ZM13.4759 14.9964C13.4759 18.3045 10.0286 18.2 10.0286 18.2H4.3875V7.34732H10.0286C11.7464 7.34732 13.0987 8.2933 13.0987 10.2375C13.0987 12.1817 11.4446 12.3036 11.4446 12.3036C13.6268 12.3036 13.4759 14.9964 13.4759 14.9964ZM21.8446 14.8165H16.221C16.221 16.8304 18.1304 16.7027 18.1304 16.7027C19.9353 16.7027 19.8714 15.5362 19.8714 15.5362H21.7808C21.7808 18.6353 18.0665 18.4205 18.0665 18.4205C13.6152 18.4205 13.8996 14.271 13.8996 14.271C13.8996 14.271 13.8937 10.104 18.0665 10.104C22.4598 10.1098 21.8446 14.8165 21.8446 14.8165Z" fill="#C1D8E7"/>
<path id="Vector_3" d="M10.7946 10.4058C10.7946 9.27991 10.0285 9.27991 10.0285 9.27991H6.8714V11.7H9.83122C10.3419 11.7 10.7946 11.5317 10.7946 10.4058Z" fill="#C1D8E7"/>
</g>
<defs>
<clipPath id="clip0_270_44">
<rect width="26" height="26" fill="white"/>
</clipPath>
</defs>
</svg>
