<svg width="26" height="26" viewBox="0 0 26 26" fill="none" xmlns="http://www.w3.org/2000/svg">
<g id="Email" clip-path="url(#clip0_270_48)">
<path id="Vector" d="M19.825 0H6.175C4.53729 0 2.96665 0.703328 1.80862 1.95526C0.650578 3.20719 0 4.90518 0 6.67568V19.3243C0 20.201 0.159721 21.0691 0.470044 21.879C0.780367 22.6889 1.23521 23.4248 1.80862 24.0447C2.96665 25.2967 4.53729 26 6.175 26H19.825C21.4617 25.9963 23.0303 25.2918 24.1876 24.0406C25.3449 22.7895 25.9966 21.0937 26 19.3243V6.67568C25.9966 4.90632 25.3449 3.21049 24.1876 1.95936C23.0303 0.708234 21.4617 0.00371325 19.825 0ZM15.08 13.8551C14.4404 14.2495 13.7363 15 13 15C12.2637 15 11.5206 14.2495 10.881 13.8551L1.976 6.16973C2.09115 5.05286 2.58311 4.02107 3.35779 3.27174C4.13247 2.5224 5.13549 2.10811 6.175 2.10811H19.825C20.8637 2.11119 21.8652 2.52654 22.6393 3.2753C23.4133 4.02406 23.9061 5.05407 24.024 6.16973L15.08 13.8551Z" fill="#C1D8E7"/>
</g>
<defs>
<clipPath id="clip0_270_48">
<rect width="26" height="26" fill="white"/>
</clipPath>
</defs>
</svg>
