<svg width="31" height="42" viewBox="0 0 31 42" fill="none" xmlns="http://www.w3.org/2000/svg">
<g id="Figma">
<g id="Group">
<path id="Vector" d="M9.00068 14.6679C7.32081 14.6679 5.70974 14.0006 4.52189 12.8128C3.33404 11.6249 2.66672 10.0138 2.66672 8.33397C2.66672 6.65409 3.33404 5.04303 4.52189 3.85518C5.70974 2.66733 7.32081 2 9.00068 2H15.3337V14.6679M9.00068 14.6679H15.3337M9.00068 14.6679C7.32106 14.6679 5.71024 15.3352 4.52257 16.5228C3.33489 17.7105 2.66767 19.3213 2.66767 21.0009C2.66767 22.6806 3.33489 24.2914 4.52257 25.4791C5.71024 26.6667 7.32106 27.334 9.00068 27.334H15.3337V14.6679" stroke="white" stroke-width="3"/>
<path id="Vector_2" d="M28.0016 21.001C28.0016 22.6808 27.3343 24.2919 26.1465 25.4797C24.9586 26.6676 23.3475 27.3349 21.6677 27.3349C19.9878 27.3349 18.3767 26.6676 17.1889 25.4797C16.001 24.2919 15.3337 22.6808 15.3337 21.001C15.3337 19.3211 16.001 17.71 17.1889 16.5222C18.3767 15.3343 19.9878 14.667 21.6677 14.667C23.3475 14.667 24.9586 15.3343 26.1465 16.5222C27.3343 17.71 28.0016 19.3211 28.0016 21.001ZM9.00068 27.3359H15.3337V33.6689C15.3333 34.9214 14.9616 36.1456 14.2655 37.1868C13.5694 38.228 12.5801 39.0394 11.4229 39.5185C10.2657 39.9975 8.99237 40.1227 7.76401 39.8781C6.53565 39.6335 5.40739 39.0302 4.52189 38.1444C3.63639 37.2587 3.03342 36.1302 2.78921 34.9018C2.54501 33.6734 2.67053 32.4001 3.14992 31.243C3.62931 30.0859 4.44103 29.0969 5.48244 28.4011C6.52386 27.7054 7.74821 27.3359 9.00068 27.3359Z" stroke="white" stroke-width="3"/>
<path id="Vector_3" d="M15.3337 2H21.6667C23.3466 2 24.9577 2.66733 26.1455 3.85518C27.3334 5.04302 28.0007 6.65409 28.0007 8.33397C28.0007 10.0138 27.3334 11.6249 26.1455 12.8128C24.9577 14.0006 23.3466 14.6679 21.6667 14.6679H15.3337V2Z" stroke="white" stroke-width="3"/>
</g>
</g>
</svg>
