<svg width="42" height="42" viewBox="0 0 42 42" fill="none" xmlns="http://www.w3.org/2000/svg">
<path id="Vector" d="M20.013 0C20.013 5.04 24.15 9.135 29.148 9.135H32.886V12.705C32.886 17.745 36.96 21.819 42 21.84V1.764C42 1.29616 41.8141 0.847478 41.4833 0.516664C41.1525 0.18585 40.7038 0 40.236 0H20.013ZM10.017 10.08C10.028 12.4938 10.9918 14.8055 12.6986 16.5124C14.4055 18.2192 16.7172 19.183 19.131 19.194H22.911V22.806C22.922 25.2198 23.8858 27.5315 25.5926 29.2384C27.2995 30.9452 29.6112 31.909 32.025 31.92V11.823C32.0195 11.3624 31.8342 10.9222 31.5085 10.5965C31.1828 10.2708 30.7426 10.0855 30.282 10.08H10.017ZM0 20.16C0 25.2 4.095 29.274 9.135 29.274H12.873V32.886C12.894 37.905 16.968 42 21.987 42V21.903C21.987 21.4352 21.8011 20.9865 21.4703 20.6557C21.1395 20.3248 20.6908 20.139 20.223 20.139L0 20.16Z" fill="white"/>
</svg>
