<svg width="42" height="42" viewBox="0 0 42 42" fill="none" xmlns="http://www.w3.org/2000/svg">
<path id="Vector" d="M0 0V42H42V0H0ZM22.857 32.7555C22.857 36.843 20.457 38.709 16.9605 38.709C13.8015 38.709 11.973 37.0785 11.0355 35.1L14.2515 33.159C14.871 34.2555 15.4335 35.184 16.7925 35.184C18.0855 35.184 18.9105 34.677 18.9105 32.7V19.284H22.857V32.7555ZM32.193 38.709C28.527 38.709 26.1555 36.966 25.002 34.677L28.218 32.8215C29.0625 34.2 30.168 35.2215 32.109 35.2215C33.7395 35.2215 34.791 34.4055 34.791 33.2715C34.791 31.9215 33.7215 31.443 31.9125 30.6465L30.9285 30.225C28.0785 29.016 26.1945 27.4875 26.1945 24.2715C26.1945 21.309 28.4535 19.059 31.9695 19.059C34.482 19.059 36.282 19.9305 37.5765 22.218L34.5015 24.1875C33.8265 22.9785 33.0945 22.5 31.9605 22.5C30.8085 22.5 30.0765 23.232 30.0765 24.1875C30.0765 25.3695 30.8085 25.8465 32.505 26.5875L33.489 27.009C36.846 28.443 38.73 29.916 38.73 33.2145C38.73 36.759 35.9355 38.7075 32.1945 38.7075L32.193 38.709Z" fill="white"/>
</svg>
