<svg width="27" height="26" viewBox="0 0 27 26" fill="none" xmlns="http://www.w3.org/2000/svg">
<g id="LinkedIn" clip-path="url(#clip0_186_123)">
<path id="Vector" fill-rule="evenodd" clip-rule="evenodd" d="M4.61425 0C3.62916 0 2.68442 0.391325 1.98785 1.08789C1.29129 1.78445 0.899963 2.7292 0.899963 3.71429V22.2857C0.899963 23.2708 1.29129 24.2155 1.98785 24.9121C2.68442 25.6087 3.62916 26 4.61425 26H23.1857C24.1708 26 25.1155 25.6087 25.8121 24.9121C26.5086 24.2155 26.9 23.2708 26.9 22.2857V3.71429C26.9 2.7292 26.5086 1.78445 25.8121 1.08789C25.1155 0.391325 24.1708 0 23.1857 0H4.61425ZM6.66082 7.98014C7.24941 7.98014 7.8139 7.74633 8.23009 7.33013C8.64629 6.91393 8.88011 6.34945 8.88011 5.76086C8.88011 5.17227 8.64629 4.60778 8.23009 4.19159C7.8139 3.77539 7.24941 3.54157 6.66082 3.54157C6.07223 3.54157 5.50775 3.77539 5.09155 4.19159C4.67535 4.60778 4.44153 5.17227 4.44153 5.76086C4.44153 6.34945 4.67535 6.91393 5.09155 7.33013C5.50775 7.74633 6.07223 7.98014 6.66082 7.98014ZM8.51796 21.9384V9.72029H4.80368V21.9384H8.51796ZM10.9842 9.72029H14.6985V11.3564C15.2464 10.4984 16.4498 9.34329 18.6877 9.34329C21.3582 9.34329 22.8087 11.1131 22.8087 14.4801C22.8087 14.6417 22.8235 15.379 22.8235 15.379V21.9366H19.1092V15.3809C19.1092 14.4801 18.9198 12.7103 16.9178 12.7103C14.914 12.7103 14.745 14.9351 14.6985 16.3911V21.9366H10.9842V9.72029Z" fill="#C1D8E7"/>
</g>
<defs>
<clipPath id="clip0_186_123">
<rect width="26" height="26" fill="white" transform="translate(0.899963)"/>
</clipPath>
</defs>
</svg>
