<svg width="290" height="50" viewBox="0 0 290 50" fill="none" xmlns="http://www.w3.org/2000/svg">
<path opacity="0.8" d="M95.5493 13.8312V18.3603H89.4003V37.0385H83.7473V18.3603H77.5983V13.8312H95.5493ZM106.783 37.303C104.976 37.303 103.345 36.9173 101.891 36.1459C100.458 35.3746 99.3231 34.2726 98.4856 32.84C97.6701 31.4075 97.2624 29.7325 97.2624 27.8151C97.2624 25.9197 97.6812 24.2558 98.5186 22.8232C99.3561 21.3686 100.502 20.2556 101.957 19.4843C103.411 18.7129 105.042 18.3272 106.849 18.3272C108.657 18.3272 110.288 18.7129 111.742 19.4843C113.197 20.2556 114.343 21.3686 115.18 22.8232C116.018 24.2558 116.437 25.9197 116.437 27.8151C116.437 29.7105 116.007 31.3855 115.147 32.84C114.31 34.2726 113.153 35.3746 111.676 36.1459C110.221 36.9173 108.591 37.303 106.783 37.303ZM106.783 32.4103C107.863 32.4103 108.778 32.0136 109.527 31.2202C110.299 30.4267 110.684 29.2917 110.684 27.8151C110.684 26.3385 110.31 25.2034 109.56 24.41C108.833 23.6166 107.929 23.2199 106.849 23.2199C105.748 23.2199 104.833 23.6166 104.106 24.41C103.378 25.1814 103.015 26.3164 103.015 27.8151C103.015 29.2917 103.367 30.4267 104.073 31.2202C104.8 32.0136 105.703 32.4103 106.783 32.4103ZM137.651 18.5917V37.0385H131.998V34.526C131.425 35.3415 130.643 36.0027 129.651 36.5096C128.681 36.9944 127.601 37.2369 126.411 37.2369C125.001 37.2369 123.755 36.9283 122.675 36.3112C121.595 35.6721 120.758 34.7575 120.163 33.5673C119.568 32.3772 119.27 30.9777 119.27 29.3689V18.5917H124.89V28.6085C124.89 29.8427 125.21 30.8014 125.849 31.4846C126.488 32.1678 127.348 32.5095 128.428 32.5095C129.53 32.5095 130.4 32.1678 131.039 31.4846C131.678 30.8014 131.998 29.8427 131.998 28.6085V18.5917H137.651ZM147.365 21.6662C148.026 20.6523 148.852 19.8589 149.844 19.2859C150.836 18.6909 151.938 18.3933 153.15 18.3933V24.377H151.596C150.186 24.377 149.128 24.6855 148.423 25.3026C147.717 25.8977 147.365 26.9556 147.365 28.4763V37.0385H141.712V18.5917H147.365V21.6662ZM158.695 16.6743C157.703 16.6743 156.888 16.3878 156.249 15.8147C155.632 15.2197 155.323 14.4924 155.323 13.6329C155.323 12.7513 155.632 12.024 156.249 11.451C156.888 10.8559 157.703 10.5584 158.695 10.5584C159.665 10.5584 160.458 10.8559 161.075 11.451C161.714 12.024 162.034 12.7513 162.034 13.6329C162.034 14.4924 161.714 15.2197 161.075 15.8147C160.458 16.3878 159.665 16.6743 158.695 16.6743ZM161.505 18.5917V37.0385H155.852V18.5917H161.505ZM173.106 37.303C171.497 37.303 170.065 37.0275 168.808 36.4765C167.552 35.9255 166.56 35.1762 165.833 34.2285C165.106 33.2588 164.698 32.1789 164.61 30.9887H170.197C170.263 31.6279 170.561 32.1458 171.09 32.5425C171.618 32.9392 172.269 33.1376 173.04 33.1376C173.745 33.1376 174.285 33.0053 174.66 32.7409C175.057 32.4544 175.255 32.0907 175.255 31.6499C175.255 31.121 174.979 30.7353 174.428 30.4929C173.877 30.2284 172.985 29.9419 171.751 29.6333C170.428 29.3248 169.326 29.0052 168.445 28.6746C167.563 28.322 166.803 27.782 166.164 27.0547C165.525 26.3054 165.205 25.3026 165.205 24.0464C165.205 22.9885 165.492 22.0298 166.065 21.1703C166.66 20.2887 167.519 19.5945 168.643 19.0876C169.789 18.5807 171.145 18.3272 172.709 18.3272C175.024 18.3272 176.842 18.9002 178.164 20.0463C179.509 21.1923 180.28 22.713 180.478 24.6084H175.255C175.167 23.9693 174.88 23.4623 174.395 23.0877C173.933 22.713 173.315 22.5257 172.544 22.5257C171.883 22.5257 171.376 22.6579 171.023 22.9224C170.671 23.1648 170.494 23.5064 170.494 23.9472C170.494 24.4762 170.77 24.8729 171.321 25.1373C171.894 25.4018 172.776 25.6663 173.966 25.9307C175.332 26.2834 176.445 26.636 177.305 26.9886C178.164 27.3192 178.913 27.8702 179.553 28.6416C180.214 29.3909 180.555 30.4047 180.577 31.683C180.577 32.7629 180.269 33.7326 179.652 34.5922C179.057 35.4296 178.186 36.0908 177.04 36.5757C175.916 37.0606 174.605 37.303 173.106 37.303ZM194.317 32.245V37.0385H191.441C189.391 37.0385 187.794 36.5426 186.648 35.5509C185.502 34.5371 184.929 32.8951 184.929 30.6251V23.286H182.681V18.5917H184.929V14.0957H190.582V18.5917H194.284V23.286H190.582V30.6912C190.582 31.2422 190.714 31.6389 190.978 31.8813C191.243 32.1238 191.684 32.245 192.301 32.245H194.317ZM221.166 13.8312V18.3603H215.017V37.0385H209.364V18.3603H203.215V13.8312H221.166ZM229.657 21.6662C230.318 20.6523 231.144 19.8589 232.136 19.2859C233.128 18.6909 234.23 18.3933 235.442 18.3933V24.377H233.888C232.478 24.377 231.42 24.6855 230.714 25.3026C230.009 25.8977 229.657 26.9556 229.657 28.4763V37.0385H224.004V18.5917H229.657V21.6662ZM240.987 16.6743C239.995 16.6743 239.18 16.3878 238.541 15.8147C237.924 15.2197 237.615 14.4924 237.615 13.6329C237.615 12.7513 237.924 12.024 238.541 11.451C239.18 10.8559 239.995 10.5584 240.987 10.5584C241.957 10.5584 242.75 10.8559 243.367 11.451C244.006 12.024 244.326 12.7513 244.326 13.6329C244.326 14.4924 244.006 15.2197 243.367 15.8147C242.75 16.3878 241.957 16.6743 240.987 16.6743ZM243.797 18.5917V37.0385H238.144V18.5917H243.797ZM253.547 21.2033C254.076 20.3438 254.836 19.6496 255.828 19.1206C256.82 18.5917 257.955 18.3272 259.233 18.3272C260.754 18.3272 262.131 18.7129 263.365 19.4843C264.599 20.2556 265.569 21.3576 266.274 22.7902C267.002 24.2227 267.365 25.8867 267.365 27.782C267.365 29.6774 267.002 31.3524 266.274 32.807C265.569 34.2395 264.599 35.3525 263.365 36.1459C262.131 36.9173 260.754 37.303 259.233 37.303C257.933 37.303 256.798 37.0495 255.828 36.5426C254.858 36.0137 254.098 35.3195 253.547 34.4599V37.0385H247.894V12.575H253.547V21.2033ZM261.613 27.782C261.613 26.3715 261.216 25.2696 260.423 24.4762C259.652 23.6607 258.693 23.253 257.547 23.253C256.423 23.253 255.464 23.6607 254.671 24.4762C253.899 25.2916 253.514 26.4046 253.514 27.8151C253.514 29.2256 253.899 30.3386 254.671 31.154C255.464 31.9695 256.423 32.3772 257.547 32.3772C258.671 32.3772 259.63 31.9695 260.423 31.154C261.216 30.3165 261.613 29.1925 261.613 27.782ZM287.72 27.5176C287.72 28.0465 287.687 28.5975 287.621 29.1705H274.827C274.915 30.3165 275.279 31.1981 275.918 31.8152C276.579 32.4103 277.384 32.7078 278.331 32.7078C279.742 32.7078 280.723 32.1127 281.274 30.9226H287.29C286.982 32.1348 286.42 33.2257 285.604 34.1955C284.811 35.1652 283.808 35.9255 282.596 36.4765C281.384 37.0275 280.028 37.303 278.53 37.303C276.722 37.303 275.114 36.9173 273.703 36.1459C272.293 35.3746 271.191 34.2726 270.397 32.84C269.604 31.4075 269.207 29.7325 269.207 27.8151C269.207 25.8977 269.593 24.2227 270.364 22.7902C271.158 21.3576 272.26 20.2556 273.67 19.4843C275.081 18.7129 276.7 18.3272 278.53 18.3272C280.315 18.3272 281.902 18.7019 283.29 19.4512C284.679 20.2005 285.759 21.2694 286.53 22.6579C287.323 24.0464 287.72 25.6663 287.72 27.5176ZM281.935 26.0299C281.935 25.0602 281.604 24.2888 280.943 23.7158C280.282 23.1428 279.455 22.8563 278.464 22.8563C277.516 22.8563 276.711 23.1318 276.05 23.6827C275.411 24.2337 275.014 25.0161 274.86 26.0299H281.935Z" fill="#D7F3D9"/>
<g opacity="0.8">
<path d="M13.4612 19.958L0.356384 1.13513L20.7916 13.64L31.9466 29.9132L16.0859 36.475L13.4612 19.958Z" fill="#D7F3D9"/>
<path d="M38.8091 12.5716C38.6216 11.803 34.2721 5.18494 34.2721 5.18494L27.8978 21.1582L33.9721 28.6198C33.9721 28.6198 38.5091 16.3962 38.8091 15.6088C39.109 14.8214 38.9965 13.3403 38.8091 12.5716Z" fill="#D7F3D9"/>
<path d="M28.8539 42.5684L37.7217 36.4191L33.2597 32.1258H31.7036L15.1304 39.5125H16.799L28.8539 42.5684Z" fill="#D7F3D9"/>
<path d="M4.81859 48.1737L6.59965 48.5299L18.8983 42.1369L13.2177 40.1121L0.769043 41.1245L4.81859 48.1737Z" fill="#D7F3D9"/>
<path d="M39.3335 35.3499L34.984 31.1128C34.984 31.1128 40.0272 28.2444 40.6459 28.0757C41.2646 27.9069 42.0707 28.0569 43.6268 28.4881C45.1829 28.9193 49.9449 30.4004 49.9449 30.4004V31.1128L43.2706 32.6689L39.3335 35.3499Z" fill="#D7F3D9"/>
</g>
</svg>
