<svg width="290" height="50" viewBox="0 0 290 50" fill="none" xmlns="http://www.w3.org/2000/svg">
<path opacity="0.8" d="M95.5493 13.8313V18.3603H89.4003V37.0386H83.7473V18.3603H77.5983V13.8313H95.5493ZM106.783 37.303C104.976 37.303 103.345 36.9174 101.891 36.146C100.458 35.3746 99.3231 34.2727 98.4856 32.8401C97.6701 31.4076 97.2624 29.7326 97.2624 27.8152C97.2624 25.9198 97.6812 24.2558 98.5186 22.8233C99.3561 21.3687 100.502 20.2557 101.957 19.4843C103.411 18.713 105.042 18.3273 106.849 18.3273C108.657 18.3273 110.288 18.713 111.742 19.4843C113.197 20.2557 114.343 21.3687 115.18 22.8233C116.018 24.2558 116.437 25.9198 116.437 27.8152C116.437 29.7105 116.007 31.3855 115.147 32.8401C114.31 34.2727 113.153 35.3746 111.676 36.146C110.221 36.9174 108.591 37.303 106.783 37.303ZM106.783 32.4103C107.863 32.4103 108.778 32.0136 109.527 31.2202C110.299 30.4268 110.684 29.2918 110.684 27.8152C110.684 26.3385 110.31 25.2035 109.56 24.4101C108.833 23.6167 107.929 23.22 106.849 23.22C105.748 23.22 104.833 23.6167 104.106 24.4101C103.378 25.1815 103.015 26.3165 103.015 27.8152C103.015 29.2918 103.367 30.4268 104.073 31.2202C104.8 32.0136 105.703 32.4103 106.783 32.4103ZM137.651 18.5917V37.0386H131.998V34.5261C131.425 35.3416 130.643 36.0027 129.651 36.5096C128.681 36.9945 127.601 37.2369 126.411 37.2369C125.001 37.2369 123.755 36.9284 122.675 36.3113C121.595 35.6721 120.758 34.7575 120.163 33.5674C119.568 32.3773 119.27 30.9778 119.27 29.3689V18.5917H124.89V28.6086C124.89 29.8428 125.21 30.8015 125.849 31.4847C126.488 32.1679 127.348 32.5095 128.428 32.5095C129.53 32.5095 130.4 32.1679 131.039 31.4847C131.678 30.8015 131.998 29.8428 131.998 28.6086V18.5917H137.651ZM147.365 21.6662C148.026 20.6524 148.852 19.859 149.844 19.286C150.836 18.6909 151.938 18.3934 153.15 18.3934V24.377H151.596C150.186 24.377 149.128 24.6856 148.423 25.3027C147.717 25.8977 147.365 26.9556 147.365 28.4763V37.0386H141.712V18.5917H147.365V21.6662ZM158.695 16.6743C157.703 16.6743 156.888 16.3878 156.249 15.8148C155.632 15.2197 155.323 14.4924 155.323 13.6329C155.323 12.7513 155.632 12.0241 156.249 11.451C156.888 10.856 157.703 10.5584 158.695 10.5584C159.665 10.5584 160.458 10.856 161.075 11.451C161.714 12.0241 162.034 12.7513 162.034 13.6329C162.034 14.4924 161.714 15.2197 161.075 15.8148C160.458 16.3878 159.665 16.6743 158.695 16.6743ZM161.505 18.5917V37.0386H155.852V18.5917H161.505ZM173.106 37.303C171.497 37.303 170.065 37.0276 168.808 36.4766C167.552 35.9256 166.56 35.1763 165.833 34.2286C165.106 33.2588 164.698 32.1789 164.61 30.9888H170.197C170.263 31.6279 170.561 32.1459 171.09 32.5426C171.618 32.9393 172.269 33.1376 173.04 33.1376C173.745 33.1376 174.285 33.0054 174.66 32.7409C175.057 32.4544 175.255 32.0908 175.255 31.65C175.255 31.121 174.979 30.7354 174.428 30.4929C173.877 30.2285 172.985 29.9419 171.751 29.6334C170.428 29.3248 169.326 29.0053 168.445 28.6747C167.563 28.3221 166.803 27.7821 166.164 27.0548C165.525 26.3055 165.205 25.3027 165.205 24.0465C165.205 22.9886 165.492 22.0299 166.065 21.1703C166.66 20.2888 167.519 19.5945 168.643 19.0876C169.789 18.5807 171.145 18.3273 172.709 18.3273C175.024 18.3273 176.842 18.9003 178.164 20.0463C179.509 21.1924 180.28 22.7131 180.478 24.6085H175.255C175.167 23.9693 174.88 23.4624 174.395 23.0877C173.933 22.7131 173.315 22.5257 172.544 22.5257C171.883 22.5257 171.376 22.658 171.023 22.9224C170.671 23.1649 170.494 23.5065 170.494 23.9473C170.494 24.4762 170.77 24.8729 171.321 25.1374C171.894 25.4019 172.776 25.6663 173.966 25.9308C175.332 26.2834 176.445 26.6361 177.305 26.9887C178.164 27.3193 178.913 27.8703 179.553 28.6416C180.214 29.391 180.555 30.4048 180.577 31.683C180.577 32.763 180.269 33.7327 179.652 34.5922C179.057 35.4297 178.186 36.0909 177.04 36.5758C175.916 37.0606 174.605 37.303 173.106 37.303ZM194.317 32.245V37.0386H191.441C189.391 37.0386 187.794 36.5427 186.648 35.5509C185.502 34.5371 184.929 32.8952 184.929 30.6252V23.2861H182.681V18.5917H184.929V14.0957H190.582V18.5917H194.284V23.2861H190.582V30.6913C190.582 31.2423 190.714 31.639 190.978 31.8814C191.243 32.1238 191.684 32.245 192.301 32.245H194.317ZM221.166 13.8313V18.3603H215.017V37.0386H209.364V18.3603H203.215V13.8313H221.166ZM229.657 21.6662C230.318 20.6524 231.144 19.859 232.136 19.286C233.128 18.6909 234.23 18.3934 235.442 18.3934V24.377H233.888C232.478 24.377 231.42 24.6856 230.714 25.3027C230.009 25.8977 229.657 26.9556 229.657 28.4763V37.0386H224.004V18.5917H229.657V21.6662ZM240.987 16.6743C239.995 16.6743 239.18 16.3878 238.541 15.8148C237.924 15.2197 237.615 14.4924 237.615 13.6329C237.615 12.7513 237.924 12.0241 238.541 11.451C239.18 10.856 239.995 10.5584 240.987 10.5584C241.957 10.5584 242.75 10.856 243.367 11.451C244.006 12.0241 244.326 12.7513 244.326 13.6329C244.326 14.4924 244.006 15.2197 243.367 15.8148C242.75 16.3878 241.957 16.6743 240.987 16.6743ZM243.797 18.5917V37.0386H238.144V18.5917H243.797ZM253.547 21.2034C254.076 20.3439 254.836 19.6496 255.828 19.1207C256.82 18.5917 257.955 18.3273 259.233 18.3273C260.754 18.3273 262.131 18.713 263.365 19.4843C264.599 20.2557 265.569 21.3577 266.274 22.7902C267.002 24.2228 267.365 25.8867 267.365 27.7821C267.365 29.6775 267.002 31.3525 266.274 32.807C265.569 34.2396 264.599 35.3526 263.365 36.146C262.131 36.9174 260.754 37.303 259.233 37.303C257.933 37.303 256.798 37.0496 255.828 36.5427C254.858 36.0138 254.098 35.3195 253.547 34.46V37.0386H247.894V12.575H253.547V21.2034ZM261.613 27.7821C261.613 26.3716 261.216 25.2696 260.423 24.4762C259.652 23.6608 258.693 23.253 257.547 23.253C256.423 23.253 255.464 23.6608 254.671 24.4762C253.899 25.2917 253.514 26.4046 253.514 27.8152C253.514 29.2257 253.899 30.3386 254.671 31.1541C255.464 31.9696 256.423 32.3773 257.547 32.3773C258.671 32.3773 259.63 31.9696 260.423 31.1541C261.216 30.3166 261.613 29.1926 261.613 27.7821ZM287.72 27.5176C287.72 28.0466 287.687 28.5976 287.621 29.1706H274.827C274.915 30.3166 275.279 31.1982 275.918 31.8153C276.579 32.4103 277.384 32.7079 278.331 32.7079C279.742 32.7079 280.723 32.1128 281.274 30.9227H287.29C286.982 32.1348 286.42 33.2258 285.604 34.1955C284.811 35.1652 283.808 35.9256 282.596 36.4766C281.384 37.0276 280.028 37.303 278.53 37.303C276.722 37.303 275.114 36.9174 273.703 36.146C272.293 35.3746 271.191 34.2727 270.397 32.8401C269.604 31.4076 269.207 29.7326 269.207 27.8152C269.207 25.8977 269.593 24.2228 270.364 22.7902C271.158 21.3577 272.26 20.2557 273.67 19.4843C275.081 18.713 276.7 18.3273 278.53 18.3273C280.315 18.3273 281.902 18.7019 283.29 19.4513C284.679 20.2006 285.759 21.2695 286.53 22.658C287.323 24.0465 287.72 25.6663 287.72 27.5176ZM281.935 26.03C281.935 25.0603 281.604 24.2889 280.943 23.7159C280.282 23.1428 279.455 22.8563 278.464 22.8563C277.516 22.8563 276.711 23.1318 276.05 23.6828C275.411 24.2338 275.014 25.0162 274.86 26.03H281.935Z" fill="#478C4C"/>
<g opacity="0.8">
<path d="M13.4612 19.9582L0.356445 1.13525L20.7917 13.6401L31.9467 29.9133L16.086 36.4751L13.4612 19.9582Z" fill="#478C4C"/>
<path d="M38.809 12.5717C38.6215 11.8031 34.272 5.18506 34.272 5.18506L27.8977 21.1583L33.972 28.62C33.972 28.62 38.509 16.3963 38.809 15.6089C39.109 14.8215 38.9965 13.3404 38.809 12.5717Z" fill="#478C4C"/>
<path d="M28.8541 42.5686L37.7219 36.4193L33.2599 32.126H31.7038L15.1306 39.5127H16.7992L28.8541 42.5686Z" fill="#478C4C"/>
<path d="M4.81859 48.1739L6.59965 48.5301L18.8983 42.1371L13.2177 40.1123L0.769043 41.1247L4.81859 48.1739Z" fill="#478C4C"/>
<path d="M39.3336 35.35L34.9841 31.1129C34.9841 31.1129 40.0273 28.2445 40.646 28.0758C41.2647 27.907 42.0708 28.057 43.6269 28.4882C45.183 28.9194 49.945 30.4005 49.945 30.4005V31.1129L43.2707 32.669L39.3336 35.35Z" fill="#478C4C"/>
</g>
</svg>
