<svg width="184" height="50" viewBox="0 0 184 50" fill="none" xmlns="http://www.w3.org/2000/svg">
<g opacity="0.8">
<path d="M15.6639 3.45193C14.7689 3.6955 14.0003 4.17289 13.1636 5.01077C12.4826 5.68301 12.2978 5.94607 11.8795 6.81317C11.2666 8.07972 11.0428 9.05399 11.0525 10.4082C11.0915 14.4515 14.0489 17.0722 17.3761 16.0103C20.9854 14.8704 22.8727 9.83341 21.0924 6.13118C20.6352 5.18613 19.6818 4.15341 18.9327 3.79293C17.9112 3.29605 16.7048 3.16939 15.6639 3.45193Z" fill="#C4E8FF"/>
<path d="M28.7294 8.99542C28.1651 9.11233 27.1047 9.59947 26.5113 9.99892C25.5968 10.6225 24.5266 11.9572 24.0013 13.1166C23.3884 14.4806 23.1647 16.2732 23.4468 17.6372C23.797 19.313 25.0325 20.7549 26.5405 21.2323C30.1011 22.3624 34.2065 18.9135 34.4984 14.5488C34.7416 10.8465 32.0663 8.26472 28.7294 8.99542Z" fill="#C4E8FF"/>
<path d="M3.90194 9.74534C2.20918 9.99865 0.65261 11.6354 0.127269 13.7106C0.0105267 14.1978 -0.018659 14.6557 0.0105267 15.6592C0.0591694 17.2083 0.234283 17.8415 0.925009 18.9522C3.12366 22.5083 7.6377 21.7971 9.00942 17.6759C9.25264 16.9647 9.2721 16.7503 9.2721 15.5228C9.2721 14.2952 9.24291 14.0808 8.9997 13.3794C8.12413 10.8268 6.14923 9.42383 3.90194 9.74534Z" fill="#C4E8FF"/>
<path d="M14.5448 19.089C12.6866 19.3617 10.3226 20.3847 8.45473 21.739C7.8321 22.1969 4.6606 25.373 3.92123 26.2888C2.59815 27.9451 2.14091 29.6793 2.57869 31.394C3.02621 33.1477 4.70924 34.9793 6.47984 35.6418C7.54998 36.0413 10.1378 36.1582 11.7624 35.8756C13.4066 35.5931 14.1167 35.9536 15.0896 37.5709C16.5197 39.9578 18.7281 41.1952 21.5785 41.1952C23.9815 41.1952 25.9369 39.6656 26.8125 37.113C27.2697 35.7977 27.2016 33.6056 26.5887 29.4552C26.0634 25.9186 25.1878 24.0188 23.1059 21.9728C20.7419 19.6443 17.726 18.6213 14.5448 19.089Z" fill="#C4E8FF"/>
<path d="M33.1649 22.5769C30.9371 23.1809 29.0109 25.0515 28.4466 27.1657C28.1742 28.1692 28.3007 29.6306 28.719 30.4392C29.2443 31.4525 30.4993 32.3001 31.8224 32.5242C34.06 32.9139 36.7061 31.6571 38.1168 29.5526C38.8269 28.4809 39.0507 27.7405 39.0507 26.435C39.0507 25.4412 39.0312 25.3146 38.7491 24.7203C38.2238 23.6096 37.2996 22.8594 36.0543 22.5281C35.3539 22.343 33.9432 22.3625 33.1649 22.5769Z" fill="#C4E8FF"/>
</g>
<path opacity="0.8" d="M66.2819 2.68968C67.5319 2.68968 68.8312 2.88704 70.1798 3.28176C71.5284 3.67648 72.7619 4.3179 73.8803 5.20602C75.0316 6.06125 75.969 7.19607 76.6927 8.61048C77.4163 9.992 77.7782 11.686 77.7782 13.6925C77.7782 15.5016 77.4328 17.2614 76.742 18.9719C76.0841 20.6823 75.1302 22.2448 73.8803 23.6592C72.6632 25.0736 71.183 26.2906 69.4397 27.3103C67.6964 28.2971 65.7556 28.9714 63.6176 29.3333C63.6176 30.6819 63.6669 31.8496 63.7656 32.8364C63.7985 33.7574 63.8314 34.5469 63.8643 35.2047C63.9301 35.8297 63.9794 36.3724 64.0123 36.8329C64.0781 37.2935 64.1439 37.7046 64.2097 38.0664C64.2754 38.4612 64.3577 38.8394 64.4564 39.2013C63.7985 39.6947 63.1735 40.0565 62.5814 40.2867C61.9894 40.517 61.4631 40.6815 61.0026 40.7801C60.4763 40.9117 59.9829 40.9446 59.5224 40.8788C59.3579 40.4512 59.2099 39.9743 59.0783 39.448C58.9467 38.9546 58.8481 38.2967 58.7823 37.4744C58.7494 36.652 58.7329 35.6159 58.7329 34.3659C58.7329 33.0831 58.7658 31.4549 58.8316 29.4813C58.5685 29.4484 58.2889 29.4319 57.9928 29.4319C57.6968 29.3991 57.4172 29.3497 57.154 29.2839C56.9238 28.7576 56.7758 28.2971 56.71 27.9024C56.6442 27.5077 56.6113 27.1788 56.6113 26.9156C56.6113 26.5867 56.6442 26.3235 56.71 26.1262C56.9731 26.1591 57.2363 26.192 57.4994 26.2249C57.7626 26.2249 58.0093 26.2249 58.2395 26.2249C58.5027 26.2577 58.7494 26.2742 58.9796 26.2742C59.0454 24.7611 59.1112 23.1987 59.177 21.5869C59.2757 19.9422 59.3415 18.3469 59.3743 16.8009C59.4401 15.2549 59.4895 13.7747 59.5224 12.3603C59.5882 10.913 59.6375 9.63017 59.6704 8.5118C58.6836 9.16967 57.8119 10.0249 57.0554 11.0775C56.3317 12.1301 55.8548 13.3471 55.6245 14.7286C55.1969 14.6629 54.8351 14.4655 54.539 14.1366C54.243 13.7747 53.9963 13.4129 53.7989 13.0511C53.5687 12.6235 53.3713 12.1465 53.2068 11.6202C53.0424 10.9952 53.0424 10.3703 53.2068 9.7453C53.3384 9.08743 53.5687 8.47891 53.8976 7.91972C54.2265 7.32764 54.6048 6.8178 55.0324 6.39018C55.46 5.92968 55.8712 5.56785 56.2659 5.3047C56.9896 4.87709 57.7132 4.49882 58.4369 4.16988C59.1605 3.80806 59.9829 3.51202 60.9039 3.28176C61.2657 2.91994 61.6604 2.591 62.088 2.29496C62.5485 1.99892 62.9926 1.81801 63.4202 1.75222C63.9465 1.62065 64.2426 1.96603 64.3083 2.78836C64.6044 2.75547 64.9169 2.73902 65.2458 2.73902C65.5747 2.70613 65.9201 2.68968 66.2819 2.68968ZM63.6176 25.6328C64.5057 25.3696 65.4761 24.9749 66.5286 24.4486C67.5812 23.9223 68.568 23.2316 69.489 22.3763C70.4101 21.4882 71.183 20.4027 71.808 19.1199C72.433 17.8371 72.7455 16.2911 72.7455 14.4819C72.7455 13.1004 72.4988 11.9327 72.0054 10.9788C71.5449 9.992 70.9363 9.20256 70.1798 8.61048C69.4233 7.98551 68.5845 7.54145 67.6635 7.2783C66.7753 6.98226 65.8872 6.83424 64.9991 6.83424C64.8346 6.83424 64.6702 6.83424 64.5057 6.83424C64.3412 6.83424 64.1768 6.85069 64.0123 6.88358C63.9136 7.93617 63.8643 9.07099 63.8643 10.288C63.8643 11.1104 63.8478 12.1136 63.8149 13.2978C63.782 14.449 63.7492 15.699 63.7163 17.0476C63.6834 18.3962 63.6505 19.8107 63.6176 21.2909C63.6176 22.7711 63.6176 24.2184 63.6176 25.6328ZM92.8762 33.8725C92.942 34.1028 93.0407 34.3166 93.1722 34.514C93.2709 34.6784 93.4025 34.8429 93.5669 35.0074C93.7643 35.1389 93.9946 35.2212 94.2577 35.2541C94.0275 35.7146 93.7972 36.0271 93.5669 36.1915C93.4354 36.2902 93.3202 36.356 93.2216 36.3889C92.9255 36.4876 92.4815 36.5369 91.8894 36.5369C91.2973 36.5369 90.7217 36.356 90.1625 35.9942C89.9651 35.8297 89.7842 35.583 89.6197 35.2541C89.4553 34.9909 89.3073 34.6291 89.1757 34.1686C89.077 33.6752 88.9948 33.0502 88.929 32.2937C88.4685 33.2805 87.9422 34.0699 87.3501 34.662C86.7909 35.2212 86.2317 35.6323 85.6725 35.8955C85.0476 36.2573 84.4062 36.4711 83.7483 36.5369C82.926 36.6027 82.1365 36.4711 81.38 36.1422C80.6563 35.7804 80.0313 35.2541 79.5051 34.5633C79.0117 33.8397 78.6334 32.968 78.3702 31.9483C78.1071 30.9286 78.0249 29.7773 78.1235 28.4945C78.2222 27.1459 78.4854 25.9453 78.913 24.8927C79.3406 23.8401 79.8504 22.9026 80.4425 22.0803C81.0346 21.258 81.6596 20.5672 82.3174 20.008C82.9753 19.4159 83.6003 18.939 84.1923 18.5772C84.8173 18.1824 85.3436 17.9028 85.7712 17.7384C86.2317 17.541 86.5278 17.4259 86.6593 17.393C87.0212 17.2943 87.3337 17.2614 87.5968 17.2943C87.86 17.3272 88.0902 17.4752 88.2876 17.7384C88.3534 17.8371 88.4356 17.9522 88.5343 18.0838C88.6001 18.2153 88.6823 18.3962 88.781 18.6265C88.8796 18.8239 88.9619 19.0541 89.0277 19.3173C88.2382 19.6791 87.4981 20.0902 86.8074 20.5508C86.1166 20.9784 85.4752 21.5047 84.8831 22.1296C84.3239 22.7546 83.8305 23.5112 83.4029 24.3993C82.9753 25.2874 82.6464 26.3729 82.4161 27.6557C82.0872 29.2675 82.1694 30.5668 82.6628 31.5536C83.1891 32.5404 83.8963 32.9515 84.7844 32.7871C85.3107 32.6226 85.8206 32.3101 86.314 31.8496C86.7416 31.4549 87.1856 30.8628 87.6461 30.0734C88.1395 29.2839 88.6001 28.1985 89.0277 26.8169C89.1921 24.8433 89.3237 23.2973 89.4224 22.179C89.554 21.0277 89.6691 20.156 89.7678 19.564C89.8993 18.8732 89.998 18.4127 90.0638 18.1824C90.1625 18.018 90.3598 17.8699 90.6559 17.7384C90.9519 17.5739 91.2809 17.4423 91.6427 17.3437C92.0045 17.245 92.3334 17.1956 92.6295 17.1956C92.9255 17.1627 93.1229 17.1627 93.2216 17.1956C93.2874 17.2285 93.3202 17.6397 93.3202 18.4291C93.3202 19.1857 93.2874 20.156 93.2216 21.3402C93.1887 22.4915 93.1393 23.7579 93.0735 25.1394C93.0078 26.488 92.942 27.7708 92.8762 28.9879C92.8433 30.2049 92.8104 31.274 92.7775 32.195C92.7775 33.0831 92.8104 33.6423 92.8762 33.8725ZM118.928 16.8996C120.507 16.8996 121.132 17.9028 120.803 19.9093C120.671 20.7646 120.441 21.9158 120.112 23.3631C119.783 24.8104 119.372 26.3235 118.878 27.9024C118.385 29.4484 117.809 30.9615 117.151 32.4417C116.526 33.9219 115.836 35.1389 115.079 36.0928C114.388 36.4218 113.796 36.6191 113.303 36.6849C113.04 36.7507 112.81 36.7672 112.612 36.7343C112.349 36.7343 112.102 36.7014 111.872 36.6356C111.642 36.5698 111.412 36.4382 111.181 36.2409C110.984 36.0435 110.787 35.7475 110.589 35.3527C110.425 34.958 110.293 34.4153 110.195 33.7245C110.03 32.7048 109.783 31.6029 109.454 30.4187C109.158 29.2346 108.846 28.1491 108.517 27.1623C108.221 28.0504 107.908 28.955 107.579 29.876C107.283 30.7641 106.971 31.6029 106.642 32.3923C106.346 33.1818 106.05 33.889 105.754 34.514C105.458 35.1389 105.178 35.6159 104.915 35.9448C103.83 36.4382 103.04 36.7343 102.547 36.8329C102.251 36.9316 102.004 36.9645 101.807 36.9316C101.149 36.0764 100.573 35.1718 100.08 34.2179C99.5864 33.2311 99.1917 32.3101 98.8957 31.4549C98.5338 30.4681 98.2378 29.4813 98.0075 28.4945C97.7444 27.2445 97.5635 26.0439 97.4648 24.8927C97.3661 23.7414 97.2674 22.6888 97.1688 21.7349C97.103 20.7481 97.0043 19.8929 96.8727 19.1692C96.774 18.4456 96.5767 17.8699 96.2806 17.4423C96.5767 17.2121 96.9221 16.9983 97.3168 16.8009C97.7115 16.5707 98.1227 16.4391 98.5503 16.4062C98.9779 16.3404 99.4055 16.3733 99.8331 16.5049C100.294 16.6036 100.738 16.8503 101.165 17.245C101.231 18.1002 101.28 18.939 101.313 19.7613C101.346 20.5508 101.379 21.2744 101.412 21.9323C101.445 22.6888 101.461 23.396 101.461 24.0539C101.494 24.8762 101.527 25.7479 101.56 26.6689C101.626 27.5899 101.708 28.4945 101.807 29.3826C101.905 30.2707 102.053 31.1095 102.251 31.8989C102.481 32.6555 102.777 33.2969 103.139 33.8232C103.501 33.2311 104.011 32.2608 104.668 30.9121C105.326 29.5306 105.869 27.8037 106.297 25.7315C106.461 24.8762 106.56 24.021 106.593 23.1658C106.658 22.3105 106.658 21.5376 106.593 20.8468C106.56 20.1231 106.494 19.4982 106.395 18.9719C106.33 18.4127 106.247 18.018 106.149 17.7877C106.412 17.6232 106.691 17.5081 106.987 17.4423C107.283 17.3437 107.563 17.2614 107.826 17.1956C108.122 17.1298 108.402 17.097 108.665 17.097C109.52 17.0312 110.096 17.1956 110.392 17.5904C110.721 17.9522 110.803 18.6429 110.639 19.6626C110.606 19.9258 110.523 20.3369 110.392 20.8961C110.26 21.4224 110.096 22.0638 109.898 22.8204C110.096 23.4783 110.326 24.317 110.589 25.3367C110.852 26.3235 111.116 27.2939 111.379 28.2478C111.576 29.1688 111.773 30.1063 111.971 31.0602C112.168 32.0141 112.333 32.8529 112.464 33.5765C112.629 33.5436 112.793 33.4778 112.958 33.3791C113.122 33.2805 113.27 33.0996 113.402 32.8364C113.533 32.6062 113.714 32.2279 113.944 31.7016C114.175 31.1753 114.421 30.5339 114.684 29.7773C114.948 29.0208 115.194 28.182 115.425 27.261C115.688 26.34 115.918 25.3532 116.115 24.3006C116.477 22.1954 116.609 20.6659 116.51 19.712C116.444 18.7581 116.263 18.1166 115.967 17.7877C116.296 17.5575 116.625 17.393 116.954 17.2943C117.316 17.1627 117.645 17.0641 117.941 16.9983C118.303 16.9325 118.632 16.8996 118.928 16.8996ZM134.075 2.68968C135.325 2.68968 136.624 2.88704 137.973 3.28176C139.322 3.67648 140.555 4.3179 141.673 5.20602C142.825 6.06125 143.762 7.19607 144.486 8.61048C145.209 9.992 145.571 11.686 145.571 13.6925C145.571 15.5016 145.226 17.2614 144.535 18.9719C143.877 20.6823 142.923 22.2448 141.673 23.6592C140.456 25.0736 138.976 26.2906 137.233 27.3103C135.489 28.2971 133.549 28.9714 131.411 29.3333C131.411 30.6819 131.46 31.8496 131.559 32.8364C131.592 33.7574 131.625 34.5469 131.657 35.2047C131.723 35.8297 131.773 36.3724 131.805 36.8329C131.871 37.2935 131.937 37.7046 132.003 38.0664C132.069 38.4612 132.151 38.8394 132.249 39.2013C131.592 39.6947 130.967 40.0565 130.375 40.2867C129.782 40.517 129.256 40.6815 128.796 40.7801C128.269 40.9117 127.776 40.9446 127.315 40.8788C127.151 40.4512 127.003 39.9743 126.871 39.448C126.74 38.9546 126.641 38.2967 126.575 37.4744C126.542 36.652 126.526 35.6159 126.526 34.3659C126.526 33.0831 126.559 31.4549 126.625 29.4813C126.362 29.4484 126.082 29.4319 125.786 29.4319C125.49 29.3991 125.21 29.3497 124.947 29.2839C124.717 28.7576 124.569 28.2971 124.503 27.9024C124.437 27.5077 124.404 27.1788 124.404 26.9156C124.404 26.5867 124.437 26.3235 124.503 26.1262C124.766 26.1591 125.029 26.192 125.293 26.2249C125.556 26.2249 125.802 26.2249 126.033 26.2249C126.296 26.2577 126.542 26.2742 126.773 26.2742C126.839 24.7611 126.904 23.1987 126.97 21.5869C127.069 19.9422 127.135 18.3469 127.167 16.8009C127.233 15.2549 127.283 13.7747 127.315 12.3603C127.381 10.913 127.431 9.63017 127.464 8.5118C126.477 9.16967 125.605 10.0249 124.848 11.0775C124.125 12.1301 123.648 13.3471 123.418 14.7286C122.99 14.6629 122.628 14.4655 122.332 14.1366C122.036 13.7747 121.789 13.4129 121.592 13.0511C121.362 12.6235 121.164 12.1465 121 11.6202C120.836 10.9952 120.836 10.3703 121 9.7453C121.132 9.08743 121.362 8.47891 121.691 7.91972C122.02 7.32764 122.398 6.8178 122.826 6.39018C123.253 5.92968 123.664 5.56785 124.059 5.3047C124.783 4.87709 125.506 4.49882 126.23 4.16988C126.954 3.80806 127.776 3.51202 128.697 3.28176C129.059 2.91994 129.454 2.591 129.881 2.29496C130.342 1.99892 130.786 1.81801 131.213 1.75222C131.74 1.62065 132.036 1.96603 132.101 2.78836C132.398 2.75547 132.71 2.73902 133.039 2.73902C133.368 2.70613 133.713 2.68968 134.075 2.68968ZM131.411 25.6328C132.299 25.3696 133.269 24.9749 134.322 24.4486C135.374 23.9223 136.361 23.2316 137.282 22.3763C138.203 21.4882 138.976 20.4027 139.601 19.1199C140.226 17.8371 140.539 16.2911 140.539 14.4819C140.539 13.1004 140.292 11.9327 139.798 10.9788C139.338 9.992 138.729 9.20256 137.973 8.61048C137.216 7.98551 136.378 7.54145 135.457 7.2783C134.568 6.98226 133.68 6.83424 132.792 6.83424C132.628 6.83424 132.463 6.83424 132.299 6.83424C132.134 6.83424 131.97 6.85069 131.805 6.88358C131.707 7.93617 131.657 9.07099 131.657 10.288C131.657 11.1104 131.641 12.1136 131.608 13.2978C131.575 14.449 131.542 15.699 131.509 17.0476C131.476 18.3962 131.444 19.8107 131.411 21.2909C131.411 22.7711 131.411 24.2184 131.411 25.6328ZM160.669 33.8725C160.735 34.1028 160.834 34.3166 160.965 34.514C161.064 34.6784 161.196 34.8429 161.36 35.0074C161.557 35.1389 161.788 35.2212 162.051 35.2541C161.821 35.7146 161.59 36.0271 161.36 36.1915C161.228 36.2902 161.113 36.356 161.015 36.3889C160.719 36.4876 160.275 36.5369 159.683 36.5369C159.09 36.5369 158.515 36.356 157.956 35.9942C157.758 35.8297 157.577 35.583 157.413 35.2541C157.248 34.9909 157.1 34.6291 156.969 34.1686C156.87 33.6752 156.788 33.0502 156.722 32.2937C156.262 33.2805 155.735 34.0699 155.143 34.662C154.584 35.2212 154.025 35.6323 153.466 35.8955C152.841 36.2573 152.199 36.4711 151.541 36.5369C150.719 36.6027 149.93 36.4711 149.173 36.1422C148.449 35.7804 147.824 35.2541 147.298 34.5633C146.805 33.8397 146.427 32.968 146.163 31.9483C145.9 30.9286 145.818 29.7773 145.917 28.4945C146.015 27.1459 146.278 25.9453 146.706 24.8927C147.134 23.8401 147.644 22.9026 148.236 22.0803C148.828 21.258 149.453 20.5672 150.111 20.008C150.768 19.4159 151.393 18.939 151.985 18.5772C152.61 18.1824 153.137 17.9028 153.564 17.7384C154.025 17.541 154.321 17.4259 154.452 17.393C154.814 17.2943 155.127 17.2614 155.39 17.2943C155.653 17.3272 155.883 17.4752 156.081 17.7384C156.146 17.8371 156.229 17.9522 156.327 18.0838C156.393 18.2153 156.475 18.3962 156.574 18.6265C156.673 18.8239 156.755 19.0541 156.821 19.3173C156.031 19.6791 155.291 20.0902 154.6 20.5508C153.91 20.9784 153.268 21.5047 152.676 22.1296C152.117 22.7546 151.624 23.5112 151.196 24.3993C150.768 25.2874 150.439 26.3729 150.209 27.6557C149.88 29.2675 149.963 30.5668 150.456 31.5536C150.982 32.5404 151.689 32.9515 152.578 32.7871C153.104 32.6226 153.614 32.3101 154.107 31.8496C154.535 31.4549 154.979 30.8628 155.439 30.0734C155.933 29.2839 156.393 28.1985 156.821 26.8169C156.985 24.8433 157.117 23.2973 157.216 22.179C157.347 21.0277 157.462 20.156 157.561 19.564C157.692 18.8732 157.791 18.4127 157.857 18.1824C157.956 18.018 158.153 17.8699 158.449 17.7384C158.745 17.5739 159.074 17.4423 159.436 17.3437C159.798 17.245 160.127 17.1956 160.423 17.1956C160.719 17.1627 160.916 17.1627 161.015 17.1956C161.08 17.2285 161.113 17.6397 161.113 18.4291C161.113 19.1857 161.08 20.156 161.015 21.3402C160.982 22.4915 160.932 23.7579 160.867 25.1394C160.801 26.488 160.735 27.7708 160.669 28.9879C160.636 30.2049 160.604 31.274 160.571 32.195C160.571 33.0831 160.604 33.6423 160.669 33.8725ZM179.517 17.4423C179.583 20.3369 179.632 22.8697 179.665 25.0407C179.698 27.2117 179.731 29.0372 179.764 30.5174C179.797 32.2608 179.813 33.7574 179.813 35.0074C179.846 36.5534 179.715 38.1487 179.418 39.7933C179.155 41.4709 178.711 43.0004 178.086 44.382C177.461 45.7635 176.639 46.8983 175.619 47.7864C174.6 48.6745 173.366 49.1186 171.919 49.1186C170.175 49.1186 168.843 48.7568 167.922 48.0331C167.001 47.3424 166.327 46.5529 165.899 45.6648C165.472 44.7767 165.225 43.9379 165.159 43.1485C165.093 42.3919 165.061 41.9479 165.061 41.8163C165.061 41.5531 165.225 41.2571 165.554 40.9282C165.883 40.5992 166.376 40.3032 167.034 40.04C167.297 39.9414 167.56 39.8591 167.824 39.7933C168.054 39.7276 168.284 39.6782 168.514 39.6453C168.745 39.6124 168.958 39.6289 169.156 39.6947C168.827 40.2867 168.629 40.9611 168.564 41.7176C168.531 42.4741 168.629 43.1814 168.86 43.8392C169.123 44.53 169.501 45.1056 169.995 45.5661C170.488 46.0266 171.113 46.2569 171.869 46.2569C172.922 46.2569 173.744 45.9444 174.336 45.3194C174.961 44.7273 175.422 43.9872 175.718 43.0991C176.047 42.211 176.244 41.2735 176.31 40.2867C176.409 39.2999 176.458 38.4283 176.458 37.6717C176.458 37.0796 176.442 36.3231 176.409 35.4021C176.409 34.4482 176.359 33.3956 176.261 32.2443C175.866 32.9022 175.406 33.5436 174.879 34.1686C174.353 34.7607 173.794 35.287 173.202 35.7475C172.61 36.208 172.001 36.5698 171.376 36.8329C170.784 37.129 170.192 37.277 169.6 37.277C168.58 37.277 167.758 36.9645 167.133 36.3395C166.508 35.6817 166.031 34.8758 165.702 33.9219C165.373 32.9351 165.143 31.8825 165.011 30.7641C164.913 29.6129 164.863 28.5603 164.863 27.6064C164.863 26.8827 164.896 26.011 164.962 24.9914C165.028 23.9388 165.11 22.9355 165.209 21.9816C165.307 21.0277 165.422 20.2054 165.554 19.5146C165.718 18.791 165.883 18.3798 166.047 18.2811C167.001 17.7219 167.939 17.4094 168.86 17.3437C169.781 17.2779 170.472 17.393 170.932 17.689C170.537 17.9851 170.208 18.4785 169.945 19.1692C169.682 19.86 169.468 20.633 169.304 21.4882C169.139 22.3105 169.024 23.1822 168.958 24.1032C168.893 24.9914 168.86 25.7972 168.86 26.5209C168.86 27.113 168.876 27.8202 168.909 28.6425C168.942 29.4648 169.008 30.2543 169.106 31.0108C169.238 31.7674 169.419 32.4088 169.649 32.9351C169.879 33.4614 170.175 33.7245 170.537 33.7245C171.261 33.7245 171.935 33.4614 172.56 32.9351C173.185 32.4088 173.728 31.7509 174.188 30.9615C174.682 30.172 175.06 29.3333 175.323 28.4451C175.586 27.5241 175.718 26.6689 175.718 25.8795V25.4848C175.652 24.6295 175.586 23.8236 175.521 23.0671C175.455 22.2777 175.389 21.5704 175.323 20.9455C175.29 20.3205 175.257 19.8107 175.225 19.4159C175.225 18.9883 175.225 18.7087 175.225 18.5772C175.225 18.2482 175.438 17.9522 175.866 17.689C176.327 17.4259 176.82 17.245 177.346 17.1463C177.905 17.0147 178.399 16.9654 178.826 16.9983C179.287 17.0312 179.517 17.1792 179.517 17.4423Z" fill="#C4E8FF"/>
</svg>
