<svg width="281" height="50" viewBox="0 0 281 50" fill="none" xmlns="http://www.w3.org/2000/svg">
<path d="M159.638 3.55879C159.433 3.74157 159.433 7.67136 159.615 8.63096L159.775 9.33923H162.694C165.476 9.33923 165.635 9.31639 165.635 8.88228C165.635 8.58526 165.795 8.42533 166.091 8.42533C166.525 8.42533 166.547 8.2654 166.547 6.04918V3.67303L165.84 3.53594C164.883 3.35316 159.821 3.35316 159.638 3.55879Z" fill="#F3D6F7"/>
<path d="M197.49 3.55879C197.284 3.74157 197.284 7.67136 197.467 8.63096L197.626 9.33923H201.001H204.399V6.36904V3.39886H201.024C199.154 3.39886 197.558 3.4674 197.49 3.55879Z" fill="#F3D6F7"/>
<path d="M242.89 3.55875C242.526 3.60445 242.252 3.78723 242.252 3.97001C242.252 4.15279 241.887 4.33557 241.34 4.42696C240.656 4.5412 240.428 4.67828 240.428 5.021C240.428 5.34086 240.268 5.4551 239.858 5.4551C239.447 5.4551 239.288 5.56934 239.288 5.91205C239.288 6.20907 239.128 6.36901 238.832 6.36901C238.444 6.36901 238.375 6.52894 238.375 7.39715C238.375 8.26536 238.307 8.42529 237.919 8.42529C237.509 8.42529 237.463 8.58522 237.463 10.2303C237.463 11.2127 237.395 12.3551 237.327 12.7435L237.19 13.4518H235.274H233.359V15.508V17.5643H235.274H237.19L237.327 18.2726C237.395 18.661 237.463 23.3448 237.463 28.6683V38.3557H240.884H244.304V28.3941C244.304 18.6382 244.304 18.4325 244.76 18.3183C245.011 18.2498 245.216 18.0441 245.216 17.8842C245.216 17.6329 245.672 17.5643 247.269 17.5643H249.321V15.508V13.4518H247.269C245.376 13.4518 245.216 13.4289 245.216 12.9948C245.216 12.6978 245.057 12.5379 244.76 12.5379C244.373 12.5379 244.304 12.3779 244.304 11.5097C244.304 10.6415 244.373 10.4816 244.737 10.4816C245.034 10.4816 245.216 10.2988 245.262 9.95608C245.307 9.63621 245.513 9.43059 245.855 9.38489C246.174 9.33919 246.356 9.15641 246.356 8.8594C246.356 8.47099 246.516 8.42529 247.839 8.42529H249.321V5.91205V3.39882L246.425 3.42167C244.806 3.44451 243.232 3.51306 242.89 3.55875Z" fill="#F3D6F7"/>
<path d="M5.10351 14.4799C5.10351 16.262 5.05791 16.4219 4.64746 16.4219C4.23701 16.4219 4.19141 16.5819 4.19141 17.907V19.3921H15.5699H26.9485L27.1081 17.4501C27.2221 16.0107 27.3361 15.508 27.587 15.508C27.7922 15.508 27.9062 15.2567 27.9062 14.8683C27.9062 14.5256 27.9746 13.863 28.043 13.3832L28.2026 12.5378H16.6417H5.10351V14.4799Z" fill="#F3D6F7"/>
<path d="M32.0113 12.9948C32.0113 13.3832 31.8517 13.4517 31.122 13.4517C30.2555 13.4517 30.2327 13.4746 30.0731 14.3428C29.9819 14.9597 29.7767 15.2796 29.4802 15.3481C29.1382 15.4395 29.047 15.668 29.047 16.5133C29.047 17.4044 28.9786 17.5643 28.5909 17.5643C28.2033 17.5643 28.1349 17.7242 28.1349 18.4782V19.3921H54.0159H79.897V16.8789C79.897 14.5256 79.8742 14.3656 79.4409 14.3656C79.1445 14.3656 78.9849 14.2057 78.9849 13.9087C78.9849 13.566 78.8253 13.4517 78.4148 13.4517C78.0044 13.4517 77.8447 13.3375 77.8447 12.9948C77.8447 12.5378 77.6851 12.5378 54.928 12.5378C32.171 12.5378 32.0113 12.5378 32.0113 12.9948Z" fill="#F3D6F7"/>
<path d="M81.9485 14.1143C81.9485 14.9597 81.8801 16.3077 81.8117 17.0845C81.6749 18.2269 81.5836 18.4782 81.2416 18.4782C80.968 18.4782 80.8083 18.6381 80.8083 18.9352C80.8083 19.3921 80.968 19.3921 93.8059 19.3921H106.803V16.8789C106.803 14.5256 106.781 14.3656 106.347 14.3656C106.051 14.3656 105.891 14.2057 105.891 13.9087C105.891 13.6117 105.732 13.4517 105.435 13.4517C105.139 13.4517 104.979 13.2918 104.979 12.9948C104.979 12.5378 104.82 12.5378 93.4638 12.5378H81.9485V14.1143Z" fill="#F3D6F7"/>
<path d="M121.854 12.9948C121.854 13.3832 121.694 13.4518 120.828 13.4518C119.961 13.4518 119.802 13.5203 119.802 13.9087C119.802 14.2286 119.642 14.3657 119.323 14.3657C119.049 14.3657 118.798 14.5485 118.73 14.7998C118.662 15.0968 118.342 15.3024 117.749 15.3938C116.974 15.5309 116.883 15.6223 116.746 16.3991C116.655 17.016 116.473 17.313 116.153 17.4044C115.88 17.473 115.697 17.7243 115.697 17.9985C115.697 18.3183 115.56 18.4783 115.241 18.4783C114.831 18.4783 114.785 18.6382 114.785 19.9634C114.785 21.2657 114.74 21.4484 114.375 21.4484C113.987 21.4484 113.919 21.7226 113.805 23.6418C113.599 26.5892 113.85 30.5875 114.215 30.5875C114.557 30.5875 114.785 31.3186 114.785 32.461C114.785 33.1693 114.876 33.3292 115.241 33.3292C115.583 33.3292 115.697 33.4891 115.697 33.9004C115.697 34.3573 115.811 34.4716 116.267 34.4716C116.678 34.4716 116.837 34.5858 116.837 34.9285C116.837 35.2256 116.997 35.3855 117.293 35.3855C117.635 35.3855 117.749 35.5454 117.749 35.9567C117.749 36.3679 117.863 36.5279 118.206 36.5279C118.502 36.5279 118.662 36.6878 118.662 36.9848C118.662 37.3275 118.821 37.4418 119.232 37.4418C119.642 37.4418 119.802 37.556 119.802 37.8987C119.802 38.31 119.961 38.3557 121.193 38.3557C122.378 38.3557 122.606 38.4242 122.698 38.7898C122.789 39.1553 123.108 39.2467 124.727 39.3838C125.776 39.4752 127.509 39.4752 128.558 39.3838C130.177 39.2467 130.496 39.1553 130.587 38.7898C130.679 38.4471 130.907 38.3557 131.75 38.3557C132.64 38.3557 132.799 38.2871 132.799 37.8987C132.799 37.5103 132.959 37.4418 133.711 37.4418C134.464 37.4418 134.623 37.3732 134.623 37.0077C134.623 36.7106 134.806 36.5279 135.148 36.4822C135.467 36.4365 135.672 36.2308 135.718 35.8881C135.764 35.5683 135.946 35.3855 136.242 35.3855C136.539 35.3855 136.676 35.2256 136.676 34.9057C136.676 34.6315 136.858 34.3802 137.132 34.3117C137.451 34.2203 137.588 33.9918 137.588 33.5577C137.588 32.3468 137.861 31.5471 138.295 31.4329C138.751 31.3186 138.842 30.5875 138.591 29.2395L138.454 28.5312H135.513C132.731 28.5312 132.571 28.5541 132.571 28.9882C132.571 29.2852 132.412 29.4451 132.115 29.4451C131.728 29.4451 131.659 29.605 131.659 30.4733C131.659 31.3415 131.591 31.5014 131.203 31.5014C130.907 31.5014 130.747 31.6613 130.747 31.9583C130.747 32.2554 130.587 32.4153 130.291 32.4153C129.995 32.4153 129.835 32.5752 129.835 32.8723C129.835 33.2378 129.63 33.3521 128.695 33.4663C128.011 33.5577 127.555 33.7405 127.555 33.9004C127.555 34.0603 127.327 34.2431 127.053 34.3345C126.118 34.5858 125.73 34.4944 125.73 34.0375C125.73 33.6719 125.548 33.5805 124.773 33.512C123.952 33.4663 123.769 33.3521 123.724 32.9179C123.678 32.5981 123.496 32.4153 123.199 32.4153C122.926 32.4153 122.766 32.2554 122.766 31.9583C122.766 31.6613 122.606 31.5014 122.333 31.5014C121.968 31.5014 121.854 31.2958 121.717 30.4733C121.603 29.6736 121.489 29.4451 121.147 29.4451C120.737 29.4451 120.714 29.2166 120.714 25.9951C120.714 22.7736 120.737 22.5451 121.147 22.4309C121.489 22.3395 121.626 22.0882 121.672 21.3571C121.717 20.5802 121.831 20.3975 122.264 20.3518C122.584 20.3061 122.766 20.1233 122.766 19.8263C122.766 19.5521 122.926 19.3922 123.222 19.3922C123.519 19.3922 123.678 19.2322 123.678 18.9352C123.678 18.5925 123.838 18.4783 124.248 18.4783C124.659 18.4783 124.818 18.364 124.818 18.0213C124.818 17.61 124.978 17.5644 126.757 17.5644C128.535 17.5644 128.695 17.61 128.695 18.0213C128.695 18.364 128.854 18.4783 129.265 18.4783C129.675 18.4783 129.835 18.5925 129.835 18.9352C129.835 19.2322 129.995 19.3922 130.291 19.3922C130.587 19.3922 130.747 19.5521 130.747 19.8491C130.747 20.1461 130.907 20.3061 131.18 20.3061C131.522 20.3061 131.636 20.5345 131.75 21.3342L131.91 22.3624H135.171H138.454L138.591 21.6084C138.774 20.6259 138.523 19.3922 138.135 19.3922C137.953 19.3922 137.793 18.9809 137.679 18.364C137.565 17.5644 137.451 17.3359 137.109 17.3359C136.767 17.3359 136.676 17.1759 136.676 16.4448C136.676 15.5995 136.653 15.5538 135.786 15.4167C135.171 15.3253 134.874 15.1425 134.783 14.8226C134.715 14.5485 134.464 14.3657 134.19 14.3657C133.871 14.3657 133.711 14.2286 133.711 13.9087C133.711 13.5203 133.552 13.4518 132.685 13.4518C131.819 13.4518 131.659 13.3832 131.659 12.9948C131.659 12.5607 131.499 12.5379 126.757 12.5379C122.014 12.5379 121.854 12.5607 121.854 12.9948Z" fill="#F3D6F7"/>
<path d="M152.637 12.972C152.637 13.2918 152.409 13.4289 151.748 13.5432C151.132 13.6345 150.836 13.8173 150.744 14.1372C150.676 14.4114 150.425 14.5941 150.152 14.5941C149.832 14.5941 149.673 14.7312 149.673 15.0511C149.673 15.3938 149.513 15.5081 149.103 15.5081C148.692 15.5081 148.533 15.6223 148.533 15.965C148.533 16.262 148.373 16.422 148.077 16.422C147.666 16.422 147.62 16.262 147.62 14.9369V13.4518H144.656H141.692V25.9037V38.3557H145.112H148.533V31.1815C148.533 27.2517 148.601 23.7103 148.669 23.3219C148.761 22.9107 148.989 22.5908 149.239 22.5223C149.49 22.4537 149.673 22.2024 149.673 21.9282C149.673 21.6084 149.81 21.4484 150.129 21.4484C150.471 21.4484 150.585 21.2885 150.585 20.8772C150.585 20.466 150.699 20.306 151.018 20.306C151.246 20.306 151.497 20.1004 151.565 19.8491C151.657 19.4607 151.885 19.3921 153.184 19.3921C154.53 19.3921 154.689 19.3464 154.689 18.9352C154.689 18.6382 154.849 18.4782 155.145 18.4782C155.442 18.4782 155.601 18.6382 155.601 18.9352C155.601 19.3236 155.761 19.3921 156.628 19.3921H157.654V15.965V12.5379H155.145C152.842 12.5379 152.637 12.5836 152.637 12.972Z" fill="#F3D6F7"/>
<path d="M177.721 12.9949C177.721 13.3833 177.561 13.4518 176.694 13.4518C175.828 13.4518 175.668 13.5204 175.668 13.9088C175.668 14.2515 175.509 14.3657 175.098 14.3657C174.688 14.3657 174.528 14.48 174.528 14.7999C174.528 15.1426 174.3 15.2797 173.639 15.3939C172.795 15.531 172.727 15.5995 172.59 16.4449C172.476 17.1075 172.339 17.3359 171.997 17.3359C171.678 17.3359 171.564 17.4959 171.564 17.9071C171.564 18.3184 171.45 18.4783 171.108 18.4783C170.743 18.4783 170.652 18.6382 170.652 19.2551C170.652 20.4661 170.401 21.4485 170.082 21.4485C169.648 21.4485 169.512 22.568 169.512 26.3607C169.512 30.4048 169.626 31.1816 170.218 31.3415C170.56 31.4329 170.652 31.6614 170.652 32.3925C170.652 33.1693 170.72 33.3293 171.108 33.3293C171.45 33.3293 171.564 33.4892 171.564 33.9004C171.564 34.3117 171.678 34.4716 171.997 34.4716C172.339 34.4716 172.476 34.7001 172.59 35.3627C172.727 36.2081 172.795 36.2766 173.639 36.4137C174.3 36.5279 174.528 36.665 174.528 37.0077C174.528 37.3276 174.688 37.4418 175.098 37.4418C175.509 37.4418 175.668 37.5561 175.668 37.8988C175.668 38.2643 175.828 38.3557 176.444 38.3557C177.652 38.3557 178.633 38.6071 178.633 38.9269C178.633 39.3382 181.939 39.5895 184.424 39.3839C186.043 39.2468 186.363 39.1554 186.454 38.7898C186.545 38.4471 186.773 38.3557 187.617 38.3557C188.506 38.3557 188.666 38.2872 188.666 37.8988C188.666 37.5104 188.825 37.4418 189.578 37.4418C190.33 37.4418 190.49 37.3733 190.49 36.9849C190.49 36.6879 190.65 36.5279 190.946 36.5279C191.288 36.5279 191.402 36.368 191.402 35.9567C191.402 35.4998 191.516 35.3855 191.972 35.3855C192.497 35.3855 192.542 35.2942 192.542 34.4716C192.542 33.7177 192.611 33.5577 192.998 33.5577C193.386 33.5577 193.454 33.3978 193.454 32.5296C193.454 31.6614 193.523 31.5014 193.91 31.5014C194.321 31.5014 194.366 31.3415 194.366 30.0164V28.5313H190.946H187.526V30.0164C187.526 31.3415 187.48 31.5014 187.07 31.5014C186.773 31.5014 186.614 31.6614 186.614 31.9584C186.614 32.3011 186.454 32.4154 186.043 32.4154C185.633 32.4154 185.473 32.5296 185.473 32.8495C185.473 33.215 185.268 33.3293 184.447 33.4663C183.854 33.5349 183.421 33.7405 183.421 33.9004C183.421 34.0604 183.193 34.2432 182.92 34.3346C181.962 34.5859 181.597 34.4945 181.597 34.0147C181.597 33.6263 181.437 33.5577 180.571 33.5577C179.636 33.5577 179.545 33.512 179.545 32.9865C179.545 32.5296 179.431 32.4154 178.975 32.4154C178.564 32.4154 178.405 32.3011 178.405 31.9584C178.405 31.6614 178.245 31.5014 177.949 31.5014C177.561 31.5014 177.492 31.3415 177.492 30.4733C177.492 29.6051 177.424 29.4452 177.036 29.4452C176.603 29.4452 176.58 29.2852 176.58 25.9038C176.58 22.5223 176.603 22.3624 177.036 22.3624C177.424 22.3624 177.492 22.2025 177.492 21.4257C177.492 20.6945 177.584 20.4661 177.926 20.3747C178.177 20.3061 178.405 20.0776 178.473 19.8263C178.541 19.575 178.792 19.3922 179.066 19.3922C179.385 19.3922 179.545 19.2551 179.545 18.9353C179.545 18.6154 179.704 18.4783 180.024 18.4783C180.297 18.4783 180.548 18.2955 180.616 18.0214C180.73 17.6101 180.936 17.5644 182.646 17.5644C184.402 17.5644 184.561 17.6101 184.561 18.0214C184.561 18.3641 184.721 18.4783 185.131 18.4783C185.542 18.4783 185.701 18.5926 185.701 18.9353C185.701 19.2323 185.861 19.3922 186.158 19.3922C186.5 19.3922 186.614 19.5522 186.614 19.9634C186.614 20.3747 186.728 20.5346 187.07 20.5346C187.457 20.5346 187.526 20.6945 187.526 21.4485V22.3624H190.946H194.366V20.8773C194.366 19.5522 194.321 19.3922 193.91 19.3922C193.523 19.3922 193.454 19.2323 193.454 18.3641C193.454 17.4959 193.386 17.3359 193.021 17.3359C192.679 17.3359 192.542 17.1075 192.428 16.4449C192.291 15.5995 192.223 15.531 191.379 15.3939C190.718 15.2797 190.49 15.1426 190.49 14.7999C190.49 14.5257 190.33 14.3657 190.057 14.3657C189.829 14.3657 189.578 14.1601 189.509 13.9088C189.418 13.5204 189.19 13.4518 188.005 13.4518C186.773 13.4518 186.614 13.4061 186.614 12.9949C186.614 12.5608 186.454 12.5379 182.167 12.5379C177.88 12.5379 177.721 12.5608 177.721 12.9949Z" fill="#F3D6F7"/>
<path d="M219.449 12.9948C219.449 13.3832 219.29 13.4518 218.423 13.4518C217.557 13.4518 217.397 13.5203 217.397 13.9087C217.397 14.2057 217.238 14.3657 216.964 14.3657C216.668 14.3657 216.485 14.5485 216.439 14.8683C216.394 15.3024 216.211 15.4167 215.413 15.4624L214.433 15.5309V14.5028V13.4518H211.468H208.504V25.9037V38.3557H211.925H215.345V29.902C215.345 21.6998 215.368 21.4484 215.778 21.4484C216.143 21.4484 216.257 21.2428 216.394 20.4203C216.508 19.6206 216.622 19.3921 216.964 19.3921C217.238 19.3921 217.397 19.2322 217.397 18.9352C217.397 18.5696 217.557 18.4782 218.172 18.4782C219.404 18.4782 220.362 18.2269 220.362 17.8842C220.362 17.3816 221.205 17.5186 221.342 18.0213C221.433 18.3868 221.661 18.4782 222.391 18.4782C223.166 18.4782 223.326 18.5468 223.326 18.9352C223.326 19.2779 223.486 19.3921 223.896 19.3921C224.42 19.3921 224.466 19.4835 224.466 20.4203C224.466 21.2885 224.534 21.4484 224.922 21.4484C225.378 21.4484 225.378 21.6084 225.378 29.902V38.3557H228.913H232.447V30.6332C232.447 26.4064 232.379 21.9282 232.287 20.6945C232.173 18.7524 232.105 18.4782 231.717 18.4782C231.375 18.4782 231.307 18.2955 231.307 17.4501C231.307 16.5819 231.238 16.422 230.851 16.422C230.463 16.422 230.395 16.262 230.395 15.5309C230.395 14.7769 230.304 14.617 229.893 14.5485C229.551 14.5028 229.346 14.2971 229.3 13.9544C229.232 13.5203 229.095 13.4518 228.206 13.4518C227.362 13.4518 227.202 13.3832 227.202 12.9948C227.202 12.5607 227.043 12.5379 223.326 12.5379C219.609 12.5379 219.449 12.5607 219.449 12.9948Z" fill="#F3D6F7"/>
<path d="M258.442 12.995C258.442 13.3834 258.282 13.4519 257.416 13.4519C256.549 13.4519 256.39 13.5205 256.39 13.9089C256.39 14.2516 256.23 14.3658 255.82 14.3658C255.409 14.3658 255.25 14.4801 255.25 14.7999C255.25 15.1427 255.022 15.2797 254.36 15.394C253.517 15.5311 253.448 15.5996 253.311 16.445C253.197 17.1076 253.061 17.336 252.718 17.336C252.399 17.336 252.285 17.496 252.285 17.9072C252.285 18.3185 252.171 18.4784 251.829 18.4784C251.442 18.4784 251.373 18.6383 251.373 19.4152C251.373 20.1463 251.282 20.3748 250.94 20.4661C250.324 20.6261 250.233 21.3801 250.233 26.178C250.233 30.1307 250.256 30.4049 250.666 30.5191C251.099 30.6333 251.373 31.433 251.373 32.6668C251.373 33.1694 251.487 33.3293 251.829 33.3293C252.171 33.3293 252.285 33.4893 252.285 33.9005C252.285 34.3118 252.399 34.4717 252.741 34.4717C253.038 34.4717 253.197 34.6317 253.197 34.9058C253.197 35.2029 253.38 35.3856 253.722 35.4313C254.041 35.477 254.246 35.6827 254.292 36.0025C254.337 36.3452 254.52 36.528 254.816 36.528C255.09 36.528 255.25 36.6879 255.25 36.985C255.25 37.3277 255.409 37.4419 255.82 37.4419C256.23 37.4419 256.39 37.5562 256.39 37.8989C256.39 38.2644 256.549 38.3558 257.165 38.3558C258.374 38.3558 259.354 38.6071 259.354 38.927C259.354 39.1326 259.947 39.2697 261.292 39.384C263.778 39.5896 267.107 39.3383 267.107 38.927C267.107 38.6528 268.247 38.3558 269.456 38.3558C269.912 38.3558 270.071 38.2416 270.071 37.8989C270.071 37.5562 270.231 37.4419 270.641 37.4419C271.052 37.4419 271.211 37.3277 271.211 37.0078C271.211 36.6651 271.439 36.528 272.101 36.4138C272.944 36.2767 273.013 36.2081 273.15 35.3628C273.264 34.7002 273.401 34.4717 273.743 34.4717C274.039 34.4717 274.176 34.3118 274.176 33.9919C274.176 33.7178 274.358 33.4664 274.632 33.3979C274.951 33.3065 275.111 33.0095 275.225 32.2784C275.316 31.6386 275.476 31.2731 275.681 31.2731C275.954 31.2731 276 30.3363 276 25.9039C276 21.4714 275.954 20.5347 275.681 20.5347C275.476 20.5347 275.316 20.1463 275.225 19.5065C275.088 18.684 274.974 18.4784 274.609 18.4784C274.244 18.4784 274.176 18.3185 274.176 17.5645C274.176 16.8105 274.107 16.6506 273.72 16.6506C273.378 16.6506 273.264 16.4907 273.264 16.0794C273.264 15.6225 273.15 15.5082 272.694 15.5082C272.283 15.5082 272.124 15.394 272.124 15.0741C272.124 14.7314 271.896 14.5943 271.211 14.4801C270.527 14.3658 270.299 14.2288 270.299 13.886C270.299 13.5205 270.14 13.4519 269.273 13.4519C268.407 13.4519 268.247 13.3834 268.247 12.995C268.247 12.5609 268.087 12.538 263.345 12.538C258.602 12.538 258.442 12.5609 258.442 12.995ZM265.283 18.0215C265.283 18.3642 265.442 18.4784 265.853 18.4784C266.263 18.4784 266.423 18.5926 266.423 18.9354C266.423 19.2324 266.582 19.3923 266.879 19.3923C267.175 19.3923 267.335 19.5522 267.335 19.8493C267.335 20.1463 267.495 20.3062 267.791 20.3062C268.133 20.3062 268.247 20.4661 268.247 20.8774C268.247 21.2887 268.361 21.4486 268.68 21.4486C269.045 21.4486 269.114 21.7228 269.25 23.8019C269.319 25.1042 269.319 26.9092 269.25 27.8002C269.114 29.1939 269.022 29.4453 268.68 29.4453C268.316 29.4453 268.247 29.628 268.247 30.4734C268.247 31.3416 268.179 31.5015 267.791 31.5015C267.495 31.5015 267.335 31.6615 267.335 31.9356C267.335 32.2327 267.153 32.4154 266.833 32.4611C266.491 32.5068 266.286 32.7125 266.24 33.0323C266.172 33.4893 266.035 33.5578 265.146 33.5578C264.302 33.5578 264.143 33.6264 264.143 34.0148C264.143 34.4032 263.983 34.4717 263.231 34.4717C262.478 34.4717 262.318 34.4032 262.318 34.0148C262.318 33.6264 262.159 33.5578 261.292 33.5578C260.357 33.5578 260.266 33.5121 260.266 32.9866C260.266 32.5297 260.152 32.4154 259.696 32.4154C259.286 32.4154 259.126 32.3012 259.126 31.9585C259.126 31.6615 258.966 31.5015 258.67 31.5015C258.282 31.5015 258.214 31.3416 258.214 30.4734C258.214 29.6052 258.146 29.4453 257.758 29.4453C257.325 29.4453 257.302 29.2853 257.302 25.9039C257.302 22.5224 257.325 22.3625 257.758 22.3625C258.146 22.3625 258.214 22.2026 258.214 21.3344C258.214 20.4661 258.282 20.3062 258.67 20.3062C258.966 20.3062 259.126 20.1463 259.126 19.8493C259.126 19.5065 259.286 19.3923 259.696 19.3923C260.107 19.3923 260.266 19.2781 260.266 18.9354C260.266 18.6155 260.426 18.4784 260.745 18.4784C261.019 18.4784 261.269 18.2956 261.338 18.0215C261.452 17.6102 261.657 17.5645 263.367 17.5645C265.123 17.5645 265.283 17.6102 265.283 18.0215Z" fill="#F3D6F7"/>
<path d="M159.478 25.9037V38.3557H163.012H166.546V25.9037V13.4518H163.012H159.478V25.9037Z" fill="#F3D6F7"/>
<path d="M197.33 25.9037V38.3557H200.865H204.399V25.9037V13.4518H200.865H197.33V25.9037Z" fill="#F3D6F7"/>
<path d="M4.10056 23.2077C4.03215 23.6875 3.96374 24.3501 3.96374 24.6928C3.96374 25.0812 3.84973 25.3325 3.6445 25.3325C3.27966 25.3325 3.05163 27.6173 3.05163 31.2044C3.05163 33.1464 2.98323 33.5577 2.70959 33.5577C2.43596 33.5577 2.36755 33.9689 2.36755 35.9567V38.3557H13.7689H25.1702V35.3855C25.1702 32.5752 25.193 32.4153 25.6263 32.4153C25.9227 32.4153 26.0824 32.2553 26.0824 31.9583C26.0824 31.5242 25.8999 31.5014 19.0819 31.4557C11.1694 31.3871 11.7395 31.5471 12.0587 29.5365L12.1955 28.5312H19.1503H26.0824V26.4749C26.0824 24.5785 26.1052 24.4186 26.5384 24.4186C26.9261 24.4186 26.9945 24.2587 26.9945 23.5276C26.9945 22.7279 26.9261 22.6365 26.2876 22.4994C25.8999 22.4309 20.7693 22.3623 14.909 22.3623H4.26018L4.10056 23.2077Z" fill="#F3D6F7"/>
<path d="M28.1345 24.4186C28.1345 26.315 28.1573 26.4749 28.5906 26.4749C28.887 26.4749 29.0466 26.6348 29.0466 26.9318C29.0466 27.2289 29.2062 27.3888 29.5027 27.3888C29.7991 27.3888 29.9587 27.5487 29.9587 27.8229C29.9587 28.4398 30.848 28.5312 37.8941 28.5312H44.0964V30.0163V31.5014H35.5454H26.9944V33.9004C26.9944 36.1394 26.9716 36.2994 26.5383 36.2994C26.1507 36.2994 26.0823 36.4593 26.0823 37.3275V38.3557H37.4836C48.7253 38.3557 48.885 38.3557 48.885 37.8987C48.885 37.556 49.0446 37.4417 49.455 37.4417C49.8655 37.4417 50.0251 37.3275 50.0251 36.9848C50.0251 36.6649 50.1847 36.5278 50.504 36.5278C50.7776 36.5278 51.0284 36.3451 51.0968 36.0937C51.1652 35.8424 51.3933 35.6139 51.6441 35.5454C51.9861 35.454 52.0773 35.2255 52.0773 34.3802C52.0773 33.4891 52.1458 33.3292 52.5334 33.3292C52.9666 33.3292 52.9894 33.1692 52.9894 28.4169V23.5047H52.4194C52.0089 23.5047 51.8493 23.3905 51.8493 23.0706C51.8493 22.7736 51.6213 22.6137 51.1424 22.4994C50.7548 22.4309 45.419 22.3623 39.285 22.3623H28.1345V24.4186Z" fill="#F3D6F7"/>
<path d="M55.042 23.4819C55.042 25.4696 54.7684 27.3888 54.4719 27.3888C54.1299 27.3888 53.9019 29.5822 53.9019 33.0322C53.9019 35.454 53.8791 35.6139 53.4458 35.6139C53.0354 35.6139 52.9897 35.7739 52.9897 36.9848V38.3557H57.4363H61.8828V36.3222C61.8828 33.352 62.1108 31.5014 62.4757 31.5014C62.6809 31.5014 62.7949 31.2272 62.7949 30.7246C62.7949 30.3133 62.8633 29.6279 62.9317 29.2395L63.0913 28.5312H68.9288C76.2257 28.5312 77.8447 28.3941 77.8447 27.8229C77.8447 27.5487 78.0043 27.3888 78.2779 27.3888C78.6428 27.3888 78.7568 27.1832 78.8936 26.3607C79.0076 25.561 79.1216 25.3325 79.4637 25.3325C79.8513 25.3325 79.8969 25.1497 79.8969 23.8474V22.3623H67.4695H55.042V23.4819Z" fill="#F3D6F7"/>
<path d="M80.9681 22.5223C80.8769 22.5908 80.8085 23.7332 80.8085 25.0355C80.8085 27.2289 80.7857 27.3888 80.3524 27.3888C79.9192 27.3888 79.8964 27.5487 79.8964 31.3871C79.8964 35.2255 79.8736 35.3855 79.4403 35.3855C79.0299 35.3855 78.9843 35.5454 78.9843 36.8706V38.3557H83.4308H87.8773V35.3855C87.8773 32.5752 87.9001 32.4153 88.3334 32.4153C88.7666 32.4153 88.7894 32.2553 88.7894 29.3537C88.7894 25.4011 88.9946 23.5047 89.3823 23.5047C89.5647 23.5047 89.7015 23.3219 89.7015 23.0706C89.7015 22.7736 89.4735 22.6137 88.9946 22.4994C88.0369 22.3166 81.1505 22.3166 80.9681 22.5223Z" fill="#F3D6F7"/>
<path d="M97.9109 23.4819C97.9109 25.4696 97.6373 27.3888 97.3408 27.3888C96.976 27.3888 96.7708 29.605 96.7708 33.3749C96.7708 36.1394 96.7479 36.2994 96.3147 36.2994C95.9271 36.2994 95.8586 36.4593 95.8586 37.3275V38.3557H100.305H104.752V36.0937C104.752 33.512 104.911 32.4153 105.322 32.4153C105.618 32.4153 105.892 29.4679 105.892 26.1779C105.892 24.5785 105.937 24.4186 106.348 24.4186C106.736 24.4186 106.804 24.2587 106.804 23.5276C106.804 22.7279 106.736 22.6365 106.097 22.4994C105.709 22.4309 103.703 22.3623 101.651 22.3623H97.9109V23.4819Z" fill="#F3D6F7"/>
</svg>
