<svg width="242" height="64" viewBox="0 0 242 64" fill="none" xmlns="http://www.w3.org/2000/svg">
<g opacity="0.8">
<path d="M21.04 3.4617C19.8617 3.78238 18.8498 4.4109 17.7483 5.51402C16.8517 6.39908 16.6084 6.74541 16.0576 7.88701C15.2507 9.55451 14.9561 10.8372 14.9689 12.6202C15.0201 17.9434 18.9139 21.3938 23.2943 19.9957C28.0462 18.4949 30.531 11.8634 28.1871 6.98912C27.5851 5.7449 26.3299 4.38524 25.3436 3.91065C23.9988 3.25647 22.4105 3.08972 21.04 3.4617Z" fill="#1F3C4D"/>
<path d="M38.2417 10.76C37.4988 10.914 36.1027 11.5553 35.3214 12.0812C34.1174 12.9021 32.7085 14.6594 32.0168 16.1858C31.2099 17.9816 30.9153 20.3418 31.2867 22.1376C31.7478 24.3438 33.3745 26.2422 35.3598 26.8707C40.0476 28.3586 45.4527 23.8179 45.837 18.0714C46.1572 13.1972 42.6349 9.79801 38.2417 10.76Z" fill="#1F3C4D"/>
<path d="M5.55454 11.7474C3.3259 12.0809 1.27657 14.2358 0.584917 16.968C0.431217 17.6093 0.392793 18.2122 0.431218 19.5334C0.495259 21.5729 0.725809 22.4066 1.6352 23.8689C4.52988 28.5507 10.4729 27.6144 12.2789 22.1886C12.5991 21.2522 12.6247 20.97 12.6247 19.3538C12.6247 17.7376 12.5863 17.4554 12.2661 16.5319C11.1134 13.1712 8.51327 11.3241 5.55454 11.7474Z" fill="#1F3C4D"/>
<path d="M19.5667 24.049C17.1203 24.4081 14.0079 25.755 11.5487 27.5379C10.729 28.1408 6.55345 32.3224 5.58002 33.5281C3.83809 35.7087 3.2361 37.9919 3.81247 40.2494C4.40165 42.5583 6.61749 44.9698 8.94861 45.842C10.3575 46.3679 13.7645 46.5218 15.9035 46.1498C18.0681 45.7779 19.0031 46.2525 20.284 48.3817C22.1668 51.5243 25.0743 53.1534 28.8271 53.1534C31.9908 53.1534 34.5652 51.1395 35.718 47.7789C36.32 46.0472 36.2303 43.1612 35.4234 37.6969C34.7317 33.0407 33.579 30.5394 30.838 27.8458C27.7256 24.7801 23.755 23.4333 19.5667 24.049Z" fill="#1F3C4D"/>
<path d="M44.0814 28.641C41.1483 29.4363 38.6123 31.8991 37.8694 34.6825C37.5108 36.0037 37.6773 37.9278 38.228 38.9924C38.9197 40.3264 40.572 41.4424 42.3139 41.7374C45.2598 42.2505 48.7437 40.5958 50.6009 37.8251C51.5359 36.4142 51.8305 35.4393 51.8305 33.7205C51.8305 32.4122 51.8049 32.2454 51.4334 31.463C50.7418 30.0007 49.525 29.013 47.8855 28.5769C46.9633 28.3332 45.1061 28.3588 44.0814 28.641Z" fill="#1F3C4D"/>
</g>
<path opacity="0.8" d="M87.6823 2.37813C89.328 2.37813 91.0386 2.63797 92.8141 3.15764C94.5897 3.67732 96.2137 4.5218 97.6861 5.69107C99.2018 6.81704 100.436 8.31111 101.389 10.1733C102.342 11.9922 102.818 14.2224 102.818 16.8641C102.818 19.246 102.363 21.5629 101.454 23.8148C100.588 26.0667 99.3317 28.1238 97.6861 29.986C96.0838 31.8481 94.135 33.4505 91.8397 34.793C89.5445 36.0922 86.9894 36.9799 84.1745 37.4563C84.1745 39.2319 84.2395 40.7693 84.3694 42.0684C84.4127 43.281 84.456 44.3204 84.4993 45.1865C84.5859 46.0093 84.6509 46.7239 84.6942 47.3302C84.7808 47.9365 84.8674 48.4778 84.954 48.9542C85.0406 49.4738 85.1489 49.9719 85.2788 50.4482C84.4127 51.0978 83.5899 51.5742 82.8103 51.8773C82.0308 52.1805 81.3379 52.397 80.7316 52.5269C80.0387 52.7002 79.3891 52.7435 78.7829 52.6569C78.5663 52.0939 78.3714 51.4659 78.1982 50.773C78.025 50.1234 77.8951 49.2573 77.8085 48.1746C77.7652 47.092 77.7435 45.7278 77.7435 44.0822C77.7435 42.3932 77.7868 40.2496 77.8734 37.6512C77.527 37.6079 77.1589 37.5862 76.7691 37.5862C76.3793 37.5429 76.0112 37.478 75.6648 37.3914C75.3616 36.6985 75.1668 36.0922 75.0802 35.5725C74.9935 35.0528 74.9502 34.6197 74.9502 34.2733C74.9502 33.8402 74.9935 33.4938 75.0802 33.2339C75.4266 33.2772 75.7731 33.3206 76.1195 33.3639C76.466 33.3639 76.7908 33.3639 77.0939 33.3639C77.4404 33.4072 77.7652 33.4288 78.0683 33.4288C78.1549 31.4367 78.2415 29.3797 78.3281 27.2577C78.4581 25.0923 78.5447 22.992 78.588 20.9566C78.6746 18.9212 78.7395 16.9724 78.7829 15.1102C78.8695 13.2047 78.9344 11.5158 78.9777 10.0434C77.6785 10.9095 76.5309 12.0355 75.5349 13.4213C74.5821 14.8071 73.9542 16.4094 73.651 18.2283C73.0881 18.1417 72.6117 17.8818 72.2219 17.4488C71.8322 16.9724 71.5074 16.496 71.2475 16.0196C70.9444 15.4567 70.6846 14.8287 70.468 14.1358C70.2515 13.313 70.2515 12.4902 70.468 11.6674C70.6413 10.8012 70.9444 10.0001 71.3775 9.26385C71.8105 8.48433 72.3085 7.81308 72.8715 7.2501C73.4345 6.64381 73.9758 6.16744 74.4955 5.82099C75.4483 5.25801 76.401 4.75998 77.3537 4.32692C78.3065 3.85055 79.3891 3.46079 80.6017 3.15764C81.0781 2.68127 81.5978 2.24821 82.1608 1.85845C82.767 1.4687 83.3517 1.23051 83.9147 1.1439C84.6076 0.970672 84.9973 1.42539 85.0839 2.50805C85.4737 2.46474 85.8851 2.44309 86.3182 2.44309C86.7512 2.39978 87.2059 2.37813 87.6823 2.37813ZM84.1745 32.5843C85.3438 32.2379 86.6213 31.7182 88.0071 31.0253C89.3929 30.3324 90.6921 29.423 91.9047 28.297C93.1173 27.1277 94.135 25.6986 94.9578 24.0097C95.7806 22.3207 96.192 20.2853 96.192 17.9035C96.192 16.0846 95.8672 14.5472 95.2176 13.2913C94.6113 11.9922 93.8102 10.9528 92.8141 10.1733C91.8181 9.35046 90.7138 8.76582 89.5012 8.41937C88.3319 8.02961 87.1626 7.83474 85.9934 7.83474C85.7768 7.83474 85.5603 7.83474 85.3438 7.83474C85.1272 7.83474 84.9107 7.85639 84.6942 7.8997C84.5643 9.2855 84.4993 10.7796 84.4993 12.3819C84.4993 13.4646 84.4776 14.7854 84.4343 16.3444C84.391 17.8602 84.3477 19.5058 84.3044 21.2814C84.2611 23.0569 84.2178 24.9191 84.1745 26.8679C84.1745 28.8167 84.1745 30.7222 84.1745 32.5843ZM122.696 43.4326C122.782 43.7357 122.912 44.0172 123.085 44.2771C123.215 44.4936 123.388 44.7101 123.605 44.9267C123.865 45.0999 124.168 45.2082 124.514 45.2515C124.211 45.8578 123.908 46.2692 123.605 46.4857C123.432 46.6156 123.28 46.7022 123.15 46.7455C122.761 46.8755 122.176 46.9404 121.396 46.9404C120.617 46.9404 119.859 46.7022 119.123 46.2259C118.863 46.0093 118.625 45.6845 118.408 45.2515C118.192 44.905 117.997 44.4286 117.824 43.8224C117.694 43.1728 117.585 42.3499 117.499 41.3539C116.892 42.6531 116.2 43.6924 115.42 44.472C114.684 45.2082 113.948 45.7495 113.211 46.0959C112.389 46.5723 111.544 46.8538 110.678 46.9404C109.595 47.027 108.556 46.8538 107.56 46.4207C106.607 45.9444 105.784 45.2515 105.091 44.342C104.442 43.3893 103.944 42.2417 103.597 40.8992C103.251 39.5567 103.143 38.041 103.273 36.352C103.403 34.5764 103.749 32.9958 104.312 31.6099C104.875 30.2241 105.546 28.9899 106.326 27.9073C107.105 26.8246 107.928 25.9152 108.794 25.1789C109.66 24.3994 110.483 23.7715 111.263 23.2951C112.085 22.7754 112.778 22.4073 113.341 22.1908C113.948 21.931 114.337 21.7794 114.511 21.7361C114.987 21.6062 115.398 21.5629 115.745 21.6062C116.091 21.6495 116.394 21.8444 116.654 22.1908C116.741 22.3207 116.849 22.4723 116.979 22.6455C117.066 22.8188 117.174 23.0569 117.304 23.3601C117.434 23.6199 117.542 23.9231 117.629 24.2695C116.589 24.7459 115.615 25.2872 114.706 25.8935C113.796 26.4565 112.952 27.1494 112.172 27.9722C111.436 28.795 110.786 29.7911 110.223 30.9604C109.66 32.1296 109.227 33.5587 108.924 35.2477C108.491 37.3697 108.599 39.0803 109.249 40.3795C109.942 41.6787 110.873 42.22 112.042 42.0035C112.735 41.787 113.406 41.3755 114.056 40.7693C114.619 40.2496 115.204 39.4701 115.81 38.4307C116.459 37.3914 117.066 35.9622 117.629 34.1434C117.845 31.545 118.018 29.5096 118.148 28.0372C118.322 26.5214 118.473 25.3738 118.603 24.5943C118.776 23.6849 118.906 23.0786 118.993 22.7754C119.123 22.5589 119.383 22.364 119.772 22.1908C120.162 21.9743 120.595 21.8011 121.072 21.6711C121.548 21.5412 121.981 21.4763 122.371 21.4763C122.761 21.4329 123.02 21.4329 123.15 21.4763C123.237 21.5196 123.28 22.0609 123.28 23.1002C123.28 24.0963 123.237 25.3738 123.15 26.9329C123.107 28.4486 123.042 30.1159 122.955 31.9347C122.869 33.7103 122.782 35.3993 122.696 37.0016C122.652 38.6039 122.609 40.0114 122.566 41.224C122.566 42.3932 122.609 43.1295 122.696 43.4326ZM156.994 21.0865C159.073 21.0865 159.896 22.4073 159.463 25.049C159.289 26.175 158.986 27.6907 158.553 29.5962C158.12 31.5017 157.579 33.4938 156.929 35.5725C156.28 37.6079 155.522 39.6 154.656 41.5488C153.833 43.4976 152.923 45.0999 151.927 46.3558C151.018 46.7888 150.238 47.0487 149.589 47.1353C149.242 47.2219 148.939 47.2436 148.679 47.2003C148.333 47.2003 148.008 47.1569 147.705 47.0703C147.402 46.9837 147.099 46.8105 146.796 46.5507C146.536 46.2908 146.276 45.9011 146.016 45.3814C145.8 44.8617 145.626 44.1472 145.496 43.2377C145.28 41.8952 144.955 40.4445 144.522 38.8854C144.132 37.3264 143.721 35.8973 143.288 34.5981C142.898 35.7674 142.487 36.9583 142.054 38.1709C141.664 39.3401 141.252 40.4445 140.819 41.4838C140.43 42.5232 140.04 43.4543 139.65 44.2771C139.26 45.0999 138.892 45.7278 138.546 46.1609C137.117 46.8105 136.077 47.2003 135.428 47.3302C135.038 47.4601 134.713 47.5034 134.453 47.4601C133.587 46.3341 132.829 45.1432 132.18 43.8873C131.53 42.5881 131.01 41.3755 130.621 40.2496C130.144 38.9504 129.754 37.6512 129.451 36.352C129.105 34.7064 128.867 33.1257 128.737 31.6099C128.607 30.0942 128.477 28.7084 128.347 27.4525C128.26 26.1533 128.13 25.0274 127.957 24.0746C127.827 23.1219 127.568 22.364 127.178 21.8011C127.568 21.4979 128.022 21.2164 128.542 20.9566C129.062 20.6534 129.603 20.4802 130.166 20.4369C130.729 20.3503 131.292 20.3936 131.855 20.5668C132.461 20.6967 133.046 21.0215 133.609 21.5412C133.695 22.6672 133.76 23.7715 133.804 24.8542C133.847 25.8935 133.89 26.8462 133.934 27.7124C133.977 28.7084 133.999 29.6395 133.999 30.5056C134.042 31.5883 134.085 32.7359 134.128 33.9485C134.215 35.1611 134.323 36.352 134.453 37.5213C134.583 38.6905 134.778 39.7949 135.038 40.8342C135.341 41.8303 135.731 42.6747 136.207 43.3676C136.684 42.5881 137.355 41.3106 138.221 39.535C139.087 37.7162 139.802 35.4426 140.365 32.7143C140.581 31.5883 140.711 30.4623 140.754 29.3364C140.841 28.2104 140.841 27.1927 140.754 26.2833C140.711 25.3305 140.624 24.5077 140.494 23.8148C140.408 23.0786 140.3 22.5589 140.17 22.2558C140.516 22.0392 140.884 21.8877 141.274 21.8011C141.664 21.6711 142.032 21.5629 142.378 21.4763C142.768 21.3896 143.136 21.3463 143.483 21.3463C144.609 21.2597 145.366 21.4763 145.756 21.9959C146.189 22.4723 146.298 23.3817 146.081 24.7242C146.038 25.0707 145.929 25.612 145.756 26.3482C145.583 27.0411 145.366 27.8856 145.107 28.8816C145.366 29.7478 145.67 30.8521 146.016 32.1946C146.362 33.4938 146.709 34.7713 147.055 36.0272C147.315 37.2398 147.575 38.474 147.835 39.7299C148.095 40.9858 148.311 42.0901 148.485 43.0428C148.701 42.9995 148.918 42.9129 149.134 42.783C149.351 42.6531 149.546 42.4149 149.719 42.0684C149.892 41.7653 150.13 41.2673 150.433 40.5744C150.736 39.8815 151.061 39.037 151.408 38.041C151.754 37.0449 152.079 35.9406 152.382 34.728C152.729 33.5154 153.032 32.2162 153.292 30.8304C153.768 28.0588 153.941 26.0451 153.811 24.7892C153.725 23.5333 153.486 22.6888 153.097 22.2558C153.53 21.9526 153.963 21.7361 154.396 21.6062C154.872 21.4329 155.305 21.303 155.695 21.2164C156.171 21.1298 156.604 21.0865 156.994 21.0865ZM176.937 2.37813C178.582 2.37813 180.293 2.63797 182.069 3.15764C183.844 3.67732 185.468 4.5218 186.941 5.69107C188.456 6.81704 189.691 8.31111 190.643 10.1733C191.596 11.9922 192.072 14.2224 192.072 16.8641C192.072 19.246 191.618 21.5629 190.708 23.8148C189.842 26.0667 188.586 28.1238 186.941 29.986C185.338 31.8481 183.389 33.4505 181.094 34.793C178.799 36.0922 176.244 36.9799 173.429 37.4563C173.429 39.2319 173.494 40.7693 173.624 42.0684C173.667 43.281 173.71 44.3204 173.754 45.1865C173.84 46.0093 173.905 46.7239 173.949 47.3302C174.035 47.9365 174.122 48.4778 174.209 48.9542C174.295 49.4738 174.403 49.9719 174.533 50.4482C173.667 51.0978 172.844 51.5742 172.065 51.8773C171.285 52.1805 170.592 52.397 169.986 52.5269C169.293 52.7002 168.644 52.7435 168.037 52.6569C167.821 52.0939 167.626 51.4659 167.453 50.773C167.279 50.1234 167.15 49.2573 167.063 48.1746C167.02 47.092 166.998 45.7278 166.998 44.0822C166.998 42.3932 167.041 40.2496 167.128 37.6512C166.781 37.6079 166.413 37.5862 166.024 37.5862C165.634 37.5429 165.266 37.478 164.919 37.3914C164.616 36.6985 164.421 36.0922 164.335 35.5725C164.248 35.0528 164.205 34.6197 164.205 34.2733C164.205 33.8402 164.248 33.4938 164.335 33.2339C164.681 33.2772 165.028 33.3206 165.374 33.3639C165.72 33.3639 166.045 33.3639 166.348 33.3639C166.695 33.4072 167.02 33.4288 167.323 33.4288C167.409 31.4367 167.496 29.3797 167.583 27.2577C167.713 25.0923 167.799 22.992 167.842 20.9566C167.929 18.9212 167.994 16.9724 168.037 15.1102C168.124 13.2047 168.189 11.5158 168.232 10.0434C166.933 10.9095 165.785 12.0355 164.789 13.4213C163.837 14.8071 163.209 16.4094 162.906 18.2283C162.343 18.1417 161.866 17.8818 161.476 17.4488C161.087 16.9724 160.762 16.496 160.502 16.0196C160.199 15.4567 159.939 14.8287 159.723 14.1358C159.506 13.313 159.506 12.4902 159.723 11.6674C159.896 10.8012 160.199 10.0001 160.632 9.26385C161.065 8.48433 161.563 7.81308 162.126 7.2501C162.689 6.64381 163.23 6.16744 163.75 5.82099C164.703 5.25801 165.655 4.75998 166.608 4.32692C167.561 3.85055 168.644 3.46079 169.856 3.15764C170.333 2.68127 170.852 2.24821 171.415 1.85845C172.022 1.4687 172.606 1.23051 173.169 1.1439C173.862 0.970672 174.252 1.42539 174.338 2.50805C174.728 2.46474 175.14 2.44309 175.573 2.44309C176.006 2.39978 176.46 2.37813 176.937 2.37813ZM173.429 32.5843C174.598 32.2379 175.876 31.7182 177.262 31.0253C178.647 30.3324 179.947 29.423 181.159 28.297C182.372 27.1277 183.389 25.6986 184.212 24.0097C185.035 22.3207 185.447 20.2853 185.447 17.9035C185.447 16.0846 185.122 14.5472 184.472 13.2913C183.866 11.9922 183.065 10.9528 182.069 10.1733C181.073 9.35046 179.968 8.76582 178.756 8.41937C177.586 8.02961 176.417 7.83474 175.248 7.83474C175.031 7.83474 174.815 7.83474 174.598 7.83474C174.382 7.83474 174.165 7.85639 173.949 7.8997C173.819 9.2855 173.754 10.7796 173.754 12.3819C173.754 13.4646 173.732 14.7854 173.689 16.3444C173.646 17.8602 173.602 19.5058 173.559 21.2814C173.516 23.0569 173.472 24.9191 173.429 26.8679C173.429 28.8167 173.429 30.7222 173.429 32.5843ZM211.95 43.4326C212.037 43.7357 212.167 44.0172 212.34 44.2771C212.47 44.4936 212.643 44.7101 212.859 44.9267C213.119 45.0999 213.422 45.2082 213.769 45.2515C213.466 45.8578 213.163 46.2692 212.859 46.4857C212.686 46.6156 212.535 46.7022 212.405 46.7455C212.015 46.8755 211.43 46.9404 210.651 46.9404C209.871 46.9404 209.113 46.7022 208.377 46.2259C208.117 46.0093 207.879 45.6845 207.663 45.2515C207.446 44.905 207.251 44.4286 207.078 43.8224C206.948 43.1728 206.84 42.3499 206.753 41.3539C206.147 42.6531 205.454 43.6924 204.675 44.472C203.938 45.2082 203.202 45.7495 202.466 46.0959C201.643 46.5723 200.799 46.8538 199.933 46.9404C198.85 47.027 197.81 46.8538 196.814 46.4207C195.862 45.9444 195.039 45.2515 194.346 44.342C193.696 43.3893 193.198 42.2417 192.852 40.8992C192.505 39.5567 192.397 38.041 192.527 36.352C192.657 34.5764 193.003 32.9958 193.566 31.6099C194.129 30.2241 194.801 28.9899 195.58 27.9073C196.36 26.8246 197.183 25.9152 198.049 25.1789C198.915 24.3994 199.738 23.7715 200.517 23.2951C201.34 22.7754 202.033 22.4073 202.596 22.1908C203.202 21.931 203.592 21.7794 203.765 21.7361C204.241 21.6062 204.653 21.5629 204.999 21.6062C205.346 21.6495 205.649 21.8444 205.909 22.1908C205.995 22.3207 206.104 22.4723 206.234 22.6455C206.32 22.8188 206.428 23.0569 206.558 23.3601C206.688 23.6199 206.797 23.9231 206.883 24.2695C205.844 24.7459 204.869 25.2872 203.96 25.8935C203.051 26.4565 202.206 27.1494 201.427 27.9722C200.69 28.795 200.041 29.7911 199.478 30.9604C198.915 32.1296 198.482 33.5587 198.179 35.2477C197.746 37.3697 197.854 39.0803 198.503 40.3795C199.196 41.6787 200.127 42.22 201.297 42.0035C201.99 41.787 202.661 41.3755 203.31 40.7693C203.873 40.2496 204.458 39.4701 205.064 38.4307C205.714 37.3914 206.32 35.9622 206.883 34.1434C207.1 31.545 207.273 29.5096 207.403 28.0372C207.576 26.5214 207.728 25.3738 207.858 24.5943C208.031 23.6849 208.161 23.0786 208.247 22.7754C208.377 22.5589 208.637 22.364 209.027 22.1908C209.417 21.9743 209.85 21.8011 210.326 21.6711C210.802 21.5412 211.235 21.4763 211.625 21.4763C212.015 21.4329 212.275 21.4329 212.405 21.4763C212.491 21.5196 212.535 22.0609 212.535 23.1002C212.535 24.0963 212.491 25.3738 212.405 26.9329C212.361 28.4486 212.296 30.1159 212.21 31.9347C212.123 33.7103 212.037 35.3993 211.95 37.0016C211.907 38.6039 211.863 40.0114 211.82 41.224C211.82 42.3932 211.863 43.1295 211.95 43.4326ZM236.765 21.8011C236.851 25.612 236.916 28.9466 236.959 31.8048C237.003 34.6631 237.046 37.0666 237.089 39.0153C237.133 41.3106 237.154 43.281 237.154 44.9267C237.198 46.9621 237.024 49.0624 236.635 51.2277C236.288 53.4364 235.704 55.4501 234.881 57.269C234.058 59.0879 232.975 60.5819 231.633 61.7512C230.29 62.9205 228.666 63.5051 226.761 63.5051C224.466 63.5051 222.712 63.0287 221.499 62.076C220.287 61.1666 219.399 60.1272 218.836 58.9579C218.273 57.7887 217.948 56.6844 217.861 55.645C217.775 54.649 217.731 54.0643 217.731 53.8911C217.731 53.5446 217.948 53.1549 218.381 52.7218C218.814 52.2888 219.464 51.899 220.33 51.5525C220.676 51.4226 221.023 51.3144 221.369 51.2277C221.672 51.1411 221.975 51.0762 222.279 51.0329C222.582 50.9896 222.863 51.0112 223.123 51.0978C222.69 51.8773 222.43 52.7651 222.344 53.7612C222.3 54.7572 222.43 55.6883 222.733 56.5544C223.08 57.4639 223.578 58.2217 224.227 58.828C224.877 59.4343 225.7 59.7375 226.696 59.7375C228.082 59.7375 229.164 59.326 229.944 58.5032C230.767 57.7237 231.373 56.7493 231.763 55.58C232.196 54.4108 232.456 53.1765 232.542 51.8773C232.672 50.5782 232.737 49.4305 232.737 48.4345C232.737 47.655 232.715 46.6589 232.672 45.4463C232.672 44.1905 232.607 42.8047 232.477 41.2889C231.958 42.1551 231.351 42.9995 230.658 43.8224C229.965 44.6019 229.229 45.2948 228.45 45.9011C227.67 46.5074 226.869 46.9837 226.046 47.3302C225.267 47.7199 224.487 47.9148 223.708 47.9148C222.365 47.9148 221.283 47.5034 220.46 46.6806C219.637 45.8144 219.009 44.7534 218.576 43.4976C218.143 42.1984 217.84 40.8126 217.666 39.3401C217.537 37.8244 217.472 36.4386 217.472 35.1827C217.472 34.23 217.515 33.0824 217.602 31.7399C217.688 30.3541 217.796 29.0332 217.926 27.7773C218.056 26.5214 218.208 25.4388 218.381 24.5294C218.598 23.5766 218.814 23.0353 219.031 22.9054C220.287 22.1692 221.521 21.7577 222.733 21.6711C223.946 21.5845 224.855 21.7361 225.462 22.1258C224.942 22.5156 224.509 23.1652 224.162 24.0746C223.816 24.9841 223.534 26.0018 223.318 27.1277C223.101 28.2104 222.95 29.358 222.863 30.5706C222.777 31.7399 222.733 32.8009 222.733 33.7536C222.733 34.5331 222.755 35.4642 222.798 36.5469C222.842 37.6295 222.928 38.6689 223.058 39.6649C223.231 40.661 223.47 41.5055 223.773 42.1984C224.076 42.8913 224.466 43.2377 224.942 43.2377C225.895 43.2377 226.782 42.8913 227.605 42.1984C228.428 41.5055 229.143 40.6393 229.749 39.6C230.399 38.5606 230.897 37.4563 231.243 36.287C231.589 35.0745 231.763 33.9485 231.763 32.9091V32.3895C231.676 31.2635 231.589 30.2025 231.503 29.2064C231.416 28.1671 231.33 27.236 231.243 26.4132C231.2 25.5904 231.156 24.9191 231.113 24.3994C231.113 23.8365 231.113 23.4683 231.113 23.2951C231.113 22.8621 231.395 22.4723 231.958 22.1258C232.564 21.7794 233.213 21.5412 233.906 21.4113C234.643 21.2381 235.292 21.1731 235.855 21.2164C236.461 21.2597 236.765 21.4546 236.765 21.8011Z" fill="#1F3C4D"/>
</svg>
