<svg width="41" height="42" viewBox="0 0 41 42" fill="none" xmlns="http://www.w3.org/2000/svg">
<path id="Vector" d="M6.94706 7.36476C8.25372 8.42564 8.74216 8.34475 11.1968 8.17986L34.3216 6.79232C34.8131 6.79232 34.4056 6.30387 34.2407 6.22299L30.3985 3.44478C29.6642 2.87234 28.6843 2.21901 26.8052 2.3839L4.41153 4.01722C3.59642 4.09811 3.43153 4.50566 3.7582 4.83233L6.94706 7.36476ZM8.33461 12.7532V37.085C8.33461 38.3917 8.98794 38.8832 10.4595 38.8023L35.8771 37.3308C37.3455 37.2499 37.5104 36.3508 37.5104 35.2899V11.1198C37.5104 10.0621 37.1029 9.48652 36.2038 9.56741L9.64127 11.1198C8.66128 11.2007 8.33461 11.6923 8.33461 12.7532ZM33.4256 14.0598C33.5873 14.794 33.4256 15.5283 32.6882 15.6123L31.4625 15.8549V33.8215C30.4016 34.3908 29.4185 34.7175 28.6003 34.7175C27.2936 34.7175 26.9669 34.3099 25.9869 33.0841L17.9759 20.5091V32.6766L20.5114 33.249C20.5114 33.249 20.5114 34.7175 18.4674 34.7175L12.8301 35.0441C12.6652 34.7175 12.8301 33.9024 13.4026 33.7375L14.871 33.333V17.2425L12.8332 17.0807C12.6684 16.3465 13.0759 15.2856 14.2208 15.2016L20.2688 14.7972L28.6065 27.534V16.2656L26.4816 16.0198C26.3167 15.1207 26.97 14.4674 27.7883 14.3865L33.4256 14.0598ZM2.53243 1.81146L25.8252 0.097249C28.6843 -0.151638 29.4216 0.0163605 31.2167 1.32302L38.6522 6.54965C39.8811 7.44564 40.2886 7.69142 40.2886 8.67141V37.3308C40.2886 39.129 39.6353 40.193 37.3455 40.3516L10.2977 41.985C8.58039 42.069 7.76217 41.8232 6.86307 40.6783L1.38755 33.5757C0.407553 32.269 0 31.289 0 30.1442V4.66744C0 3.19901 0.653329 1.97324 2.53243 1.81146Z" fill="white"/>
</svg>
