<svg width="71" height="26" viewBox="0 0 71 26" fill="none" xmlns="http://www.w3.org/2000/svg">
<rect x="0.599976" width="70" height="26" rx="5" fill="#C1D8E7"/>
<path d="M11.5353 18V8.2H15.1403C15.6723 8.2 16.1506 8.33067 16.5753 8.592C17 8.85333 17.336 9.20567 17.5833 9.649C17.8353 10.0877 17.9613 10.5777 17.9613 11.119C17.9613 11.5763 17.875 11.994 17.7023 12.372C17.5343 12.75 17.2963 13.072 16.9883 13.338C16.685 13.604 16.3373 13.7953 15.9453 13.912L18.3113 18H16.6243L14.3283 14.045H12.9913V18H11.5353ZM12.9913 12.589H14.9863C15.2663 12.589 15.5206 12.519 15.7493 12.379C15.9826 12.239 16.167 12.0523 16.3023 11.819C16.4376 11.5857 16.5053 11.322 16.5053 11.028C16.5053 10.734 16.4376 10.4703 16.3023 10.237C16.167 9.999 15.9826 9.81233 15.7493 9.677C15.5206 9.537 15.2663 9.467 14.9863 9.467H12.9913V12.589ZM22.5346 18.182C21.8906 18.182 21.3026 18.0163 20.7706 17.685C20.2433 17.3537 19.8209 16.9103 19.5036 16.355C19.1909 15.795 19.0346 15.1767 19.0346 14.5C19.0346 13.9867 19.1256 13.5083 19.3076 13.065C19.4896 12.617 19.7393 12.225 20.0566 11.889C20.3786 11.5483 20.7519 11.2823 21.1766 11.091C21.6013 10.8997 22.0539 10.804 22.5346 10.804C23.0713 10.804 23.5636 10.916 24.0116 11.14C24.4596 11.3593 24.8423 11.665 25.1596 12.057C25.4769 12.4443 25.7103 12.8923 25.8596 13.401C26.0089 13.905 26.0533 14.4417 25.9926 15.011H20.5956C20.6563 15.333 20.7729 15.6247 20.9456 15.886C21.1229 16.1427 21.3469 16.3457 21.6176 16.495C21.8929 16.6443 22.1986 16.7213 22.5346 16.726C22.8893 16.726 23.2113 16.6373 23.5006 16.46C23.7946 16.2827 24.0349 16.0377 24.2216 15.725L25.6986 16.068C25.4186 16.6887 24.9963 17.1973 24.4316 17.594C23.8669 17.986 23.2346 18.182 22.5346 18.182ZM20.5466 13.898H24.5226C24.4759 13.562 24.3569 13.2587 24.1656 12.988C23.9789 12.7127 23.7433 12.4957 23.4586 12.337C23.1786 12.1737 22.8706 12.092 22.5346 12.092C22.2033 12.092 21.8953 12.1713 21.6106 12.33C21.3306 12.4887 21.0973 12.7057 20.9106 12.981C20.7286 13.2517 20.6073 13.5573 20.5466 13.898ZM29.4192 18.133C29.0505 18.1097 28.6912 18.035 28.3412 17.909C27.9912 17.783 27.6832 17.6127 27.4172 17.398C27.1559 17.1787 26.9599 16.922 26.8292 16.628L28.0682 16.096C28.1289 16.222 28.2339 16.3457 28.3832 16.467C28.5372 16.5883 28.7169 16.6887 28.9222 16.768C29.1275 16.8427 29.3422 16.88 29.5662 16.88C29.7855 16.88 29.9885 16.8497 30.1752 16.789C30.3665 16.7237 30.5229 16.6257 30.6442 16.495C30.7655 16.3643 30.8262 16.208 30.8262 16.026C30.8262 15.8207 30.7562 15.662 30.6162 15.55C30.4809 15.4333 30.3105 15.3447 30.1052 15.284C29.8999 15.2233 29.6945 15.165 29.4892 15.109C29.0319 15.0063 28.6119 14.8663 28.2292 14.689C27.8512 14.507 27.5502 14.276 27.3262 13.996C27.1022 13.7113 26.9902 13.3637 26.9902 12.953C26.9902 12.505 27.1115 12.1177 27.3542 11.791C27.5969 11.4597 27.9142 11.2053 28.3062 11.028C28.7029 10.8507 29.1252 10.762 29.5732 10.762C30.1332 10.762 30.6465 10.881 31.1132 11.119C31.5799 11.357 31.9369 11.6837 32.1842 12.099L31.0292 12.785C30.9592 12.645 30.8542 12.519 30.7142 12.407C30.5742 12.295 30.4155 12.2063 30.2382 12.141C30.0609 12.071 29.8765 12.0313 29.6852 12.022C29.4472 12.0127 29.2255 12.0407 29.0202 12.106C28.8195 12.1667 28.6585 12.2647 28.5372 12.4C28.4159 12.5353 28.3552 12.708 28.3552 12.918C28.3552 13.1233 28.4275 13.2773 28.5722 13.38C28.7169 13.478 28.8989 13.5573 29.1182 13.618C29.3422 13.6787 29.5709 13.7463 29.8042 13.821C30.2195 13.9517 30.6092 14.1127 30.9732 14.304C31.3372 14.4907 31.6312 14.7217 31.8552 14.997C32.0792 15.2723 32.1865 15.6083 32.1772 16.005C32.1772 16.4437 32.0442 16.8287 31.7782 17.16C31.5169 17.4913 31.1762 17.7433 30.7562 17.916C30.3362 18.0887 29.8905 18.161 29.4192 18.133ZM33.2358 15.375V11H34.6918V15.018C34.6918 15.3307 34.7688 15.6153 34.9228 15.872C35.0768 16.1287 35.2822 16.334 35.5388 16.488C35.7955 16.6373 36.0778 16.712 36.3858 16.712C36.6985 16.712 36.9808 16.6373 37.2328 16.488C37.4895 16.334 37.6925 16.1287 37.8418 15.872C37.9958 15.6153 38.0728 15.3307 38.0728 15.018V11H39.5288L39.5358 18H38.0798L38.0728 17.244C37.8348 17.5333 37.5385 17.762 37.1838 17.93C36.8292 18.098 36.4488 18.182 36.0428 18.182C35.5248 18.182 35.0535 18.056 34.6288 17.804C34.2042 17.552 33.8658 17.2137 33.6138 16.789C33.3618 16.3643 33.2358 15.893 33.2358 15.375ZM41.0797 18V11H42.5357V11.742C42.7783 11.4527 43.0747 11.224 43.4247 11.056C43.7793 10.888 44.162 10.804 44.5727 10.804C45.072 10.804 45.5317 10.9253 45.9517 11.168C46.3717 11.406 46.7053 11.7233 46.9527 12.12C47.2 11.7233 47.529 11.406 47.9397 11.168C48.355 10.9253 48.8123 10.804 49.3117 10.804C49.8297 10.804 50.301 10.93 50.7257 11.182C51.1503 11.434 51.4887 11.7723 51.7407 12.197C51.9927 12.6217 52.1187 13.093 52.1187 13.611V18H50.6627V13.982C50.6627 13.674 50.588 13.3917 50.4387 13.135C50.2893 12.8783 50.0887 12.6707 49.8367 12.512C49.5847 12.3533 49.3047 12.274 48.9967 12.274C48.6887 12.274 48.4087 12.3487 48.1567 12.498C47.9047 12.6473 47.704 12.8503 47.5547 13.107C47.4053 13.3637 47.3307 13.6553 47.3307 13.982V18H45.8747V13.982C45.8747 13.6553 45.8 13.3637 45.6507 13.107C45.5013 12.8503 45.2983 12.6473 45.0417 12.498C44.7897 12.3487 44.5097 12.274 44.2017 12.274C43.8983 12.274 43.6183 12.3533 43.3617 12.512C43.1097 12.6707 42.909 12.8783 42.7597 13.135C42.6103 13.3917 42.5357 13.674 42.5357 13.982V18H41.0797ZM56.6043 18.182C55.9603 18.182 55.3723 18.0163 54.8403 17.685C54.313 17.3537 53.8907 16.9103 53.5733 16.355C53.2607 15.795 53.1043 15.1767 53.1043 14.5C53.1043 13.9867 53.1953 13.5083 53.3773 13.065C53.5593 12.617 53.809 12.225 54.1263 11.889C54.4483 11.5483 54.8217 11.2823 55.2463 11.091C55.671 10.8997 56.1237 10.804 56.6043 10.804C57.141 10.804 57.6333 10.916 58.0813 11.14C58.5293 11.3593 58.912 11.665 59.2293 12.057C59.5467 12.4443 59.78 12.8923 59.9293 13.401C60.0787 13.905 60.123 14.4417 60.0623 15.011H54.6653C54.726 15.333 54.8427 15.6247 55.0153 15.886C55.1927 16.1427 55.4167 16.3457 55.6873 16.495C55.9627 16.6443 56.2683 16.7213 56.6043 16.726C56.959 16.726 57.281 16.6373 57.5703 16.46C57.8643 16.2827 58.1047 16.0377 58.2913 15.725L59.7683 16.068C59.4883 16.6887 59.066 17.1973 58.5013 17.594C57.9367 17.986 57.3043 18.182 56.6043 18.182ZM54.6163 13.898H58.5923C58.5457 13.562 58.4267 13.2587 58.2353 12.988C58.0487 12.7127 57.813 12.4957 57.5283 12.337C57.2483 12.1737 56.9403 12.092 56.6043 12.092C56.273 12.092 55.965 12.1713 55.6803 12.33C55.4003 12.4887 55.167 12.7057 54.9803 12.981C54.7983 13.2517 54.677 13.5573 54.6163 13.898Z" fill="#192730"/>
</svg>
