<svg width="254" height="60" viewBox="0 0 254 60" fill="none" xmlns="http://www.w3.org/2000/svg">
<rect x="0.886533" y="0.886533" width="69.6555" height="58.2269" rx="8.63728" stroke="#272727" stroke-width="1.77307"/>
<path d="M41.4968 13.1088C40.7227 12.6618 39.8681 12.3716 38.9818 12.2548C38.0955 12.1381 37.1948 12.1971 36.3313 12.4284C35.4678 12.6597 34.6584 13.0589 33.9491 13.6031C33.2399 14.1473 32.6448 14.8258 32.1978 15.6L31.9414 16.044C31.8536 16.1963 31.8299 16.3773 31.8755 16.5471C31.9211 16.7169 32.0323 16.8617 32.1846 16.9496L37.014 19.7379L34.124 24.7964L34.0638 24.7956C31.271 24.7956 28.8523 26.4157 27.4117 28.7062C27.6577 28.6192 27.92 28.5877 28.1796 28.614C28.4392 28.6403 28.6898 28.7237 28.9133 28.8583C30.1621 27.2081 32.0245 26.1221 34.0638 26.1221C36.1898 26.1221 38.1239 27.3027 39.3699 29.0723C39.5423 28.9137 39.7443 28.791 39.9645 28.7111C40.1846 28.6313 40.4184 28.5959 40.6523 28.6071C39.4752 26.7871 37.6746 25.4058 35.5619 24.9539L38.1628 20.4012L42.826 23.0941C42.9015 23.1377 42.9848 23.1659 43.0712 23.1773C43.1576 23.1887 43.2455 23.1829 43.3296 23.1603C43.4138 23.1378 43.4927 23.0988 43.5619 23.0457C43.631 22.9926 43.689 22.9264 43.7325 22.8509L43.9889 22.4078C44.4359 21.6336 44.7261 20.7789 44.8428 19.8926C44.9594 19.0063 44.9004 18.1056 44.669 17.2421C44.4376 16.3786 44.0383 15.5691 43.494 14.8599C42.9497 14.1507 42.2711 13.5557 41.4968 13.1088ZM39.5601 19.676L36.7673 18.063C37.2731 17.2839 37.7542 16.6904 38.3308 16.166C38.8924 15.6549 39.5627 15.1932 40.4719 14.6909C40.6063 15.5355 40.647 16.2385 40.5603 16.9283C40.4577 17.7526 40.1668 18.6024 39.5583 19.6751M40.7062 20.3384C41.3783 19.1551 41.7462 18.1364 41.8762 17.0928C41.962 16.4083 41.9425 15.7327 41.8568 15.019C42.7337 15.8484 43.3124 16.9441 43.5031 18.1359C43.6939 19.3278 43.486 20.5493 42.9118 21.611L40.7062 20.3384ZM37.4376 15.1844C36.739 15.8202 36.1774 16.5277 35.6159 17.3988L33.4227 16.1324C34.0415 15.1264 34.9686 14.3471 36.066 13.9105C37.1634 13.4739 38.3725 13.4033 39.5132 13.7093C38.6917 14.1824 38.0231 14.6511 37.4376 15.1844ZM28.6295 30.1636C28.5841 30.0271 28.4955 29.9091 28.3772 29.8273C28.2589 29.7456 28.1172 29.7045 27.9734 29.7103C27.8297 29.7161 27.6918 29.7684 27.5804 29.8594C27.4691 29.9504 27.3903 30.0752 27.356 30.2149C27.1305 31.1364 26.7033 31.6422 26.217 31.9358C25.7076 32.2436 25.0584 32.3621 24.3342 32.3621C24.1583 32.3621 23.9896 32.432 23.8652 32.5563C23.7408 32.6807 23.6709 32.8494 23.6709 33.0253C23.6709 33.2013 23.7408 33.37 23.8652 33.4943C23.9896 33.6187 24.1583 33.6886 24.3342 33.6886C25.1805 33.6886 26.1029 33.5542 26.9023 33.0713C27.3792 32.7833 27.7813 32.3866 28.0759 31.9137C29.658 33.9318 32.747 33.9212 34.2831 31.8925C35.844 33.953 39.0056 33.9318 40.5647 31.8164C40.988 32.3926 41.54 32.8618 42.1767 33.1869C42.8134 33.5119 43.5173 33.6837 44.2321 33.6886C44.408 33.6886 44.5767 33.6187 44.7011 33.4943C44.8255 33.37 44.8954 33.2013 44.8954 33.0253C44.8954 32.8494 44.8255 32.6807 44.7011 32.5563C44.5767 32.432 44.408 32.3621 44.2321 32.3621C42.9277 32.3621 41.6277 31.5131 41.1988 30.1707C41.1564 30.0371 41.0727 29.9203 40.9598 29.8373C40.8469 29.7542 40.7106 29.709 40.5704 29.7082C40.4302 29.7074 40.2934 29.7511 40.1796 29.8329C40.0657 29.9147 39.9808 30.0305 39.9368 30.1636C39.0852 32.7362 35.7468 32.7034 34.9102 30.2706C34.8651 30.1401 34.7805 30.0269 34.6682 29.9468C34.5558 29.8667 34.4212 29.8236 34.2831 29.8236C34.1451 29.8236 34.0105 29.8667 33.8981 29.9468C33.7857 30.0269 33.7011 30.1401 33.6561 30.2706C32.8195 32.7034 29.482 32.7353 28.6295 30.1636Z" fill="#342929"/>
<path d="M21.2302 50.1421V42.523H24.0204C24.561 42.523 25.0087 42.6123 25.3634 42.7909C25.718 42.967 25.9834 43.2063 26.1595 43.5089C26.3356 43.809 26.4236 44.1475 26.4236 44.5245C26.4236 44.842 26.3654 45.1098 26.2488 45.3281C26.1322 45.5439 25.976 45.7175 25.78 45.8489C25.5866 45.9779 25.3733 46.0721 25.1402 46.1317V46.2061C25.3931 46.2185 25.6399 46.3003 25.8805 46.4516C26.1235 46.6004 26.3244 46.8125 26.4832 47.0878C26.6419 47.3631 26.7213 47.6979 26.7213 48.0922C26.7213 48.4816 26.6295 48.8313 26.446 49.1413C26.2649 49.4489 25.9847 49.6932 25.6052 49.8742C25.2257 50.0528 24.7409 50.1421 24.1506 50.1421H21.2302ZM22.3797 49.1562H24.039C24.5896 49.1562 24.9839 49.0496 25.222 48.8363C25.4601 48.623 25.5791 48.3564 25.5791 48.0364C25.5791 47.7959 25.5184 47.5751 25.3969 47.3742C25.2753 47.1733 25.1017 47.0134 24.876 46.8943C24.6528 46.7753 24.3874 46.7158 24.0799 46.7158H22.3797V49.1562ZM22.3797 45.8192H23.9199C24.1779 45.8192 24.4098 45.7696 24.6156 45.6704C24.8239 45.5712 24.9889 45.4323 25.1104 45.2537C25.2344 45.0726 25.2964 44.8594 25.2964 44.6138C25.2964 44.2988 25.186 44.0347 24.9653 43.8214C24.7446 43.6081 24.406 43.5015 23.9497 43.5015H22.3797V45.8192ZM30.4582 50.2574C29.8952 50.2574 29.4104 50.1371 29.0036 49.8966C28.5994 49.6535 28.2869 49.3125 28.0661 48.8735C27.8479 48.432 27.7387 47.9149 27.7387 47.3221C27.7387 46.7368 27.8479 46.221 28.0661 45.7745C28.2869 45.3281 28.5944 44.9796 28.9887 44.7291C29.3856 44.4786 29.8494 44.3534 30.3801 44.3534C30.7025 44.3534 31.015 44.4067 31.3176 44.5134C31.6202 44.62 31.8918 44.7874 32.1323 45.0156C32.3729 45.2438 32.5627 45.5402 32.7015 45.9047C32.8404 46.2668 32.9099 46.7071 32.9099 47.2254V47.6198H28.3675V46.7864H31.8198C31.8198 46.4938 31.7603 46.2346 31.6413 46.0089C31.5222 45.7807 31.3548 45.6009 31.139 45.4695C30.9258 45.338 30.6753 45.2723 30.3876 45.2723C30.0751 45.2723 29.8022 45.3492 29.5691 45.503C29.3384 45.6542 29.1599 45.8527 29.0334 46.0982C28.9094 46.3412 28.8474 46.6054 28.8474 46.8906V47.5416C28.8474 47.9236 28.9143 48.2485 29.0483 48.5163C29.1847 48.7842 29.3744 48.9888 29.6175 49.1302C29.8605 49.2691 30.1445 49.3385 30.4694 49.3385C30.6802 49.3385 30.8724 49.3088 31.046 49.2492C31.2196 49.1872 31.3697 49.0955 31.4962 48.9739C31.6227 48.8524 31.7194 48.7024 31.7864 48.5238L32.8392 48.7135C32.7549 49.0235 32.6036 49.2951 32.3853 49.5283C32.1696 49.7589 31.898 49.9387 31.5706 50.0677C31.2457 50.1942 30.8749 50.2574 30.4582 50.2574ZM35.807 50.2686C35.4449 50.2686 35.1175 50.2016 34.8249 50.0677C34.5322 49.9313 34.3003 49.7341 34.1292 49.4762C33.9605 49.2182 33.8762 48.902 33.8762 48.5275C33.8762 48.2051 33.9382 47.9397 34.0622 47.7314C34.1862 47.523 34.3536 47.3581 34.5645 47.2366C34.7753 47.1151 35.0109 47.0233 35.2713 46.9613C35.5317 46.8993 35.7971 46.8522 36.0674 46.8199C36.4097 46.7802 36.6875 46.748 36.9008 46.7232C37.1141 46.6959 37.2691 46.6525 37.3658 46.593C37.4625 46.5335 37.5109 46.4367 37.5109 46.3028V46.2768C37.5109 45.9519 37.4191 45.7001 37.2356 45.5216C37.0545 45.343 36.7842 45.2537 36.4246 45.2537C36.0501 45.2537 35.7549 45.3368 35.5392 45.503C35.3259 45.6666 35.1783 45.8489 35.0964 46.0498L34.0511 45.8117C34.1751 45.4645 34.3561 45.1843 34.5942 44.971C34.8348 44.7552 35.1113 44.5989 35.4238 44.5022C35.7363 44.403 36.0649 44.3534 36.4097 44.3534C36.6379 44.3534 36.8797 44.3807 37.1351 44.4352C37.3931 44.4873 37.6336 44.5841 37.8569 44.7254C38.0826 44.8668 38.2673 45.0689 38.4112 45.3318C38.555 45.5922 38.627 45.9308 38.627 46.3474V50.1421H37.5406V49.3608H37.496C37.4241 49.5047 37.3162 49.6461 37.1723 49.7849C37.0285 49.9238 36.8437 50.0392 36.618 50.1309C36.3923 50.2227 36.122 50.2686 35.807 50.2686ZM36.0488 49.3757C36.3564 49.3757 36.6193 49.315 36.8375 49.1934C37.0583 49.0719 37.2257 48.9132 37.3398 48.7172C37.4563 48.5188 37.5146 48.3068 37.5146 48.0811V47.3445C37.4749 47.3842 37.398 47.4214 37.2839 47.4561C37.1723 47.4883 37.0446 47.5168 36.9008 47.5416C36.7569 47.564 36.6168 47.585 36.4804 47.6049C36.344 47.6222 36.2299 47.6371 36.1381 47.6495C35.9223 47.6768 35.7252 47.7227 35.5466 47.7872C35.3705 47.8517 35.2291 47.9447 35.1225 48.0662C35.0183 48.1852 34.9662 48.344 34.9662 48.5424C34.9662 48.8177 35.0679 49.026 35.2713 49.1674C35.4747 49.3063 35.7338 49.3757 36.0488 49.3757ZM42.5155 50.2574C41.9625 50.2574 41.4863 50.1322 41.087 49.8817C40.6901 49.6287 40.3851 49.2802 40.1718 48.8363C39.9585 48.3923 39.8518 47.8839 39.8518 47.311C39.8518 46.7306 39.961 46.2185 40.1792 45.7745C40.3975 45.3281 40.705 44.9796 41.1018 44.7291C41.4987 44.4786 41.9662 44.3534 42.5044 44.3534C42.9384 44.3534 43.3253 44.434 43.6651 44.5952C44.0049 44.7539 44.2789 44.9772 44.4873 45.2649C44.6981 45.5526 44.8233 45.8886 44.863 46.273H43.7804C43.7209 46.0052 43.5845 45.7745 43.3712 45.5811C43.1604 45.3876 42.8776 45.2909 42.523 45.2909C42.213 45.2909 41.9414 45.3727 41.7082 45.5364C41.4776 45.6976 41.2978 45.9283 41.1688 46.2284C41.0398 46.526 40.9754 46.8782 40.9754 47.2849C40.9754 47.7016 41.0386 48.0612 41.1651 48.3638C41.2916 48.6664 41.4701 48.9008 41.7008 49.0669C41.9339 49.2331 42.208 49.3162 42.523 49.3162C42.7338 49.3162 42.9248 49.2778 43.0959 49.2009C43.2695 49.1215 43.4146 49.0087 43.5312 48.8623C43.6502 48.716 43.7333 48.5399 43.7804 48.3341H44.863C44.8233 48.7036 44.703 49.0335 44.5021 49.3236C44.3012 49.6138 44.0322 49.842 43.6948 50.0082C43.36 50.1743 42.9669 50.2574 42.5155 50.2574ZM47.1649 46.7492V50.1421H46.0525V42.523H47.15V45.3579H47.2207C47.3546 45.0503 47.5592 44.806 47.8345 44.625C48.1098 44.4439 48.4695 44.3534 48.9134 44.3534C49.3053 44.3534 49.6475 44.434 49.9402 44.5952C50.2353 44.7564 50.4635 44.997 50.6247 45.3169C50.7884 45.6344 50.8703 46.0312 50.8703 46.5074V50.1421H49.7579V46.6413C49.7579 46.2222 49.65 45.8973 49.4342 45.6666C49.2185 45.4335 48.9184 45.3169 48.5339 45.3169C48.271 45.3169 48.0354 45.3727 47.8271 45.4844C47.6212 45.596 47.4588 45.7596 47.3397 45.9754C47.2232 46.1887 47.1649 46.4467 47.1649 46.7492Z" fill="#342929"/>
<rect x="91.8201" y="0.886533" width="69.6555" height="58.2269" rx="8.63728" stroke="#272727" stroke-width="1.77307"/>
<path fill-rule="evenodd" clip-rule="evenodd" d="M119.623 13.0724C119.623 14.1015 120.041 14.5926 120.473 14.8253C120.933 15.0735 121.408 15.0277 121.408 15.0277V17.4087C121.408 17.4087 120.337 19.7533 119.098 20.1438C118.685 20.2735 118.254 20.1866 117.837 19.7241C117.837 20.7134 118.313 21.1741 118.756 21.389C119.142 21.5759 119.504 21.5759 119.504 21.5759H120.218V23.9569C120.218 23.9569 119.382 26.395 118.03 26.7122C117.614 26.8099 117.15 26.7069 116.646 26.2718C116.646 27.2599 117.257 27.7206 117.826 27.9355L117.837 27.9396V32.8855H133.313V27.9396L133.323 27.936C133.892 27.7218 134.504 27.2605 134.504 26.2718C134.011 26.6974 133.542 26.8051 133.111 26.7182C132.113 26.517 131.323 25.2682 130.932 24.5206V21.5759H131.646C131.646 21.5759 132.008 21.5759 132.394 21.389C132.837 21.1747 133.313 20.7134 133.313 19.7241C132.906 20.1765 132.471 20.27 132.048 20.1521C131.066 19.8783 130.142 18.4712 129.742 17.7855V15.0283C129.742 15.0283 130.217 15.0735 130.677 14.8253C131.109 14.5926 131.527 14.1009 131.527 13.0724C131.121 13.5081 130.68 13.6783 130.228 13.6616C128.757 13.6063 127.169 11.5676 126.28 10.2271C125.843 9.5664 125.575 9.07593 125.575 9.07593C125.575 9.07593 125.307 9.5664 124.87 10.2271C123.982 11.5676 122.394 13.6063 120.922 13.6616C120.47 13.6783 120.029 13.5081 119.623 13.0724ZM128.862 18.6331L128.842 18.5997H122.131L122.121 18.6176C121.898 19.0116 121.566 19.545 121.157 20.0295C121.053 20.1525 120.945 20.2712 120.832 20.3855H130.233C130.118 20.2751 130.013 20.1672 129.917 20.0616C129.481 19.5819 129.121 19.0521 128.877 18.6581L128.869 18.6444L128.862 18.6331ZM126.766 16.2188C126.923 16.2188 127.075 16.2815 127.186 16.3931C127.298 16.5048 127.361 16.6562 127.361 16.814V17.4093H128.551V15.0283H122.599V17.4093H123.789V16.814C123.789 16.6562 123.852 16.5048 123.964 16.3931C124.075 16.2815 124.227 16.2188 124.385 16.2188C124.542 16.2188 124.694 16.2815 124.805 16.3931C124.917 16.5048 124.98 16.6562 124.98 16.814V17.4093H126.17V16.814C126.17 16.6562 126.233 16.5048 126.345 16.3931C126.456 16.2815 126.608 16.2188 126.766 16.2188ZM127.956 22.7664C128.114 22.7664 128.265 22.8291 128.377 22.9407C128.489 23.0524 128.551 23.2038 128.551 23.3616V23.9569H129.742V21.5759H121.408V23.9569H122.599V23.3616C122.599 23.2038 122.662 23.0524 122.773 22.9407C122.885 22.8291 123.036 22.7664 123.194 22.7664C123.352 22.7664 123.503 22.8291 123.615 22.9407C123.727 23.0524 123.789 23.2038 123.789 23.3616V23.9569H124.98V23.3616C124.98 23.2038 125.043 23.0524 125.154 22.9407C125.266 22.8291 125.417 22.7664 125.575 22.7664C125.733 22.7664 125.884 22.8291 125.996 22.9407C126.108 23.0524 126.17 23.2038 126.17 23.3616V23.9569H127.361V23.3616C127.361 23.2038 127.423 23.0524 127.535 22.9407C127.647 22.8291 127.798 22.7664 127.956 22.7664ZM127.828 13.8378C127.451 13.5297 127.099 13.1923 126.774 12.8289C126.344 12.346 125.944 11.8375 125.575 11.3063C125.206 11.8375 124.805 12.346 124.375 12.8289C124.051 13.1923 123.699 13.5296 123.322 13.8378H127.828ZM130.876 26.5819C130.973 26.6962 131.082 26.8152 131.202 26.9331H119.839C119.967 26.7991 120.08 26.664 120.178 26.536C120.545 26.0605 120.823 25.5426 121.01 25.1474H129.917C130.131 25.5485 130.455 26.0896 130.876 26.5819ZM123.789 29.314C123.474 29.314 123.171 29.4394 122.948 29.6627C122.724 29.886 122.599 30.1888 122.599 30.5045V31.695H121.408V28.1235H129.742V31.695H128.551V30.5045C128.551 30.1888 128.426 29.886 128.203 29.6627C127.979 29.4394 127.677 29.314 127.361 29.314H123.789ZM119.027 31.695V28.1235H120.218V31.695H119.027ZM130.932 31.695V28.1235H132.123V31.695H130.932ZM127.361 30.5045V31.695H123.789V30.5045H127.361Z" fill="#342929"/>
<path d="M105.589 50.1427V42.5237H106.738V45.8347H110.537V42.5237H111.69V50.1427H110.537V46.8205H106.738V50.1427H105.589ZM115.737 50.258C115.174 50.258 114.69 50.1377 114.283 49.8972C113.879 49.6541 113.566 49.3131 113.345 48.8741C113.127 48.4326 113.018 47.9155 113.018 47.3228C113.018 46.7374 113.127 46.2216 113.345 45.7751C113.566 45.3287 113.874 44.9802 114.268 44.7298C114.665 44.4793 115.129 44.354 115.659 44.354C115.982 44.354 116.294 44.4073 116.597 44.514C116.899 44.6206 117.171 44.788 117.412 45.0162C117.652 45.2444 117.842 45.5408 117.981 45.9053C118.12 46.2675 118.189 46.7077 118.189 47.226V47.6204H113.647V46.787H117.099C117.099 46.4944 117.039 46.2352 116.92 46.0095C116.801 45.7813 116.634 45.6015 116.418 45.4701C116.205 45.3386 115.954 45.2729 115.667 45.2729C115.354 45.2729 115.081 45.3498 114.848 45.5036C114.618 45.6549 114.439 45.8533 114.313 46.0988C114.189 46.3419 114.127 46.606 114.127 46.8912V47.5423C114.127 47.9242 114.193 48.2491 114.327 48.517C114.464 48.7848 114.654 48.9894 114.897 49.1308C115.14 49.2697 115.424 49.3391 115.749 49.3391C115.959 49.3391 116.152 49.3094 116.325 49.2498C116.499 49.1878 116.649 49.0961 116.775 48.9745C116.902 48.853 116.999 48.703 117.066 48.5244L118.118 48.7141C118.034 49.0241 117.883 49.2957 117.664 49.5289C117.449 49.7595 117.177 49.9393 116.85 50.0683C116.525 50.1948 116.154 50.258 115.737 50.258ZM119.423 50.1427V44.4284H120.498V45.3362H120.558C120.662 45.0286 120.846 44.7868 121.108 44.6107C121.374 44.4321 121.674 44.3428 122.009 44.3428C122.078 44.3428 122.16 44.3453 122.254 44.3503C122.351 44.3552 122.427 44.3614 122.481 44.3689V45.4329C122.437 45.4205 122.357 45.4068 122.243 45.392C122.129 45.3746 122.015 45.3659 121.901 45.3659C121.638 45.3659 121.404 45.4217 121.198 45.5333C120.994 45.6425 120.833 45.795 120.714 45.9909C120.595 46.1844 120.536 46.4051 120.536 46.6531V50.1427H119.423ZM123.444 50.1427V44.4284H124.556V50.1427H123.444ZM124.006 43.5467C123.812 43.5467 123.646 43.4822 123.507 43.3533C123.371 43.2218 123.303 43.0656 123.303 42.8845C123.303 42.701 123.371 42.5447 123.507 42.4158C123.646 42.2843 123.812 42.2186 124.006 42.2186C124.199 42.2186 124.364 42.2843 124.5 42.4158C124.639 42.5447 124.709 42.701 124.709 42.8845C124.709 43.0656 124.639 43.2218 124.5 43.3533C124.364 43.4822 124.199 43.5467 124.006 43.5467ZM128.72 44.4284V45.3213H125.599V44.4284H128.72ZM126.436 43.0594H127.548V48.4649C127.548 48.6806 127.58 48.8431 127.645 48.9522C127.709 49.0589 127.793 49.132 127.894 49.1717C127.998 49.2089 128.111 49.2275 128.233 49.2275C128.322 49.2275 128.4 49.2213 128.467 49.2089C128.534 49.1965 128.586 49.1866 128.623 49.1792L128.824 50.0981C128.76 50.1229 128.668 50.1477 128.549 50.1725C128.43 50.1997 128.281 50.2146 128.103 50.2171C127.81 50.2221 127.537 50.17 127.284 50.0609C127.031 49.9517 126.826 49.7831 126.67 49.5549C126.514 49.3267 126.436 49.0403 126.436 48.6955V43.0594ZM131.614 50.2692C131.251 50.2692 130.924 50.2022 130.631 50.0683C130.339 49.9319 130.107 49.7347 129.936 49.4768C129.767 49.2188 129.683 48.9026 129.683 48.5281C129.683 48.2057 129.745 47.9403 129.869 47.732C129.993 47.5237 130.16 47.3587 130.371 47.2372C130.582 47.1157 130.817 47.0239 131.078 46.9619C131.338 46.8999 131.604 46.8528 131.874 46.8205C132.216 46.7808 132.494 46.7486 132.707 46.7238C132.921 46.6965 133.076 46.6531 133.172 46.5936C133.269 46.5341 133.317 46.4373 133.317 46.3034V46.2774C133.317 45.9525 133.226 45.7007 133.042 45.5222C132.861 45.3436 132.591 45.2543 132.231 45.2543C131.857 45.2543 131.561 45.3374 131.346 45.5036C131.132 45.6673 130.985 45.8495 130.903 46.0504L129.858 45.8123C129.982 45.4651 130.163 45.1849 130.401 44.9716C130.641 44.7558 130.918 44.5995 131.23 44.5028C131.543 44.4036 131.871 44.354 132.216 44.354C132.444 44.354 132.686 44.3813 132.942 44.4359C133.2 44.4879 133.44 44.5847 133.663 44.726C133.889 44.8674 134.074 45.0695 134.218 45.3324C134.362 45.5928 134.433 45.9314 134.433 46.3481V50.1427H133.347V49.3615H133.303C133.231 49.5053 133.123 49.6467 132.979 49.7856C132.835 49.9244 132.65 50.0398 132.425 50.1315C132.199 50.2233 131.928 50.2692 131.614 50.2692ZM131.855 49.3763C132.163 49.3763 132.426 49.3156 132.644 49.194C132.865 49.0725 133.032 48.9138 133.146 48.7178C133.263 48.5194 133.321 48.3074 133.321 48.0817V47.3451C133.281 47.3848 133.205 47.422 133.09 47.4567C132.979 47.4889 132.851 47.5175 132.707 47.5423C132.563 47.5646 132.423 47.5857 132.287 47.6055C132.15 47.6229 132.036 47.6377 131.945 47.6501C131.729 47.6774 131.532 47.7233 131.353 47.7878C131.177 47.8523 131.036 47.9453 130.929 48.0668C130.825 48.1859 130.773 48.3446 130.773 48.543C130.773 48.8183 130.874 49.0266 131.078 49.168C131.281 49.3069 131.54 49.3763 131.855 49.3763ZM138.311 52.4046C137.857 52.4046 137.466 52.3451 137.139 52.226C136.814 52.107 136.549 51.9495 136.343 51.7536C136.137 51.5576 135.983 51.3431 135.882 51.11L136.838 50.7156C136.905 50.8247 136.994 50.9401 137.106 51.0616C137.22 51.1856 137.373 51.291 137.567 51.3778C137.763 51.4646 138.014 51.508 138.322 51.508C138.744 51.508 139.092 51.4051 139.367 51.1992C139.643 50.9959 139.78 50.671 139.78 50.2245V49.101H139.71C139.643 49.2226 139.546 49.3577 139.42 49.5065C139.295 49.6553 139.124 49.7843 138.906 49.8934C138.688 50.0026 138.404 50.0571 138.054 50.0571C137.603 50.0571 137.196 49.9517 136.834 49.7409C136.474 49.5276 136.189 49.2139 135.978 48.7997C135.77 48.383 135.666 47.8709 135.666 47.2632C135.666 46.6556 135.769 46.1348 135.975 45.7007C136.183 45.2667 136.468 44.9344 136.83 44.7037C137.192 44.4706 137.603 44.354 138.062 44.354C138.416 44.354 138.703 44.4135 138.921 44.5326C139.139 44.6491 139.309 44.7856 139.431 44.9418C139.555 45.0981 139.65 45.2357 139.717 45.3548H139.799V44.4284H140.889V50.2692C140.889 50.7603 140.775 51.1633 140.547 51.4783C140.319 51.7932 140.01 52.0264 139.62 52.1777C139.233 52.329 138.797 52.4046 138.311 52.4046ZM138.3 49.1345C138.62 49.1345 138.89 49.0601 139.111 48.9113C139.334 48.76 139.503 48.5442 139.617 48.264C139.733 47.9812 139.792 47.6427 139.792 47.2484C139.792 46.8639 139.734 46.5254 139.62 46.2327C139.506 45.9401 139.339 45.7119 139.118 45.5482C138.897 45.382 138.625 45.299 138.3 45.299C137.965 45.299 137.686 45.3858 137.463 45.5594C137.239 45.7305 137.071 45.9636 136.957 46.2588C136.845 46.5539 136.789 46.8838 136.789 47.2484C136.789 47.6229 136.846 47.9515 136.96 48.2342C137.075 48.517 137.243 48.7377 137.466 48.8964C137.692 49.0552 137.97 49.1345 138.3 49.1345ZM144.844 50.258C144.281 50.258 143.796 50.1377 143.389 49.8972C142.985 49.6541 142.672 49.3131 142.451 48.8741C142.233 48.4326 142.124 47.9155 142.124 47.3228C142.124 46.7374 142.233 46.2216 142.451 45.7751C142.672 45.3287 142.98 44.9802 143.374 44.7298C143.771 44.4793 144.235 44.354 144.765 44.354C145.088 44.354 145.4 44.4073 145.703 44.514C146.006 44.6206 146.277 44.788 146.518 45.0162C146.758 45.2444 146.948 45.5408 147.087 45.9053C147.226 46.2675 147.295 46.7077 147.295 47.226V47.6204H142.753V46.787H146.205C146.205 46.4944 146.146 46.2352 146.027 46.0095C145.908 45.7813 145.74 45.6015 145.524 45.4701C145.311 45.3386 145.061 45.2729 144.773 45.2729C144.46 45.2729 144.188 45.3498 143.954 45.5036C143.724 45.6549 143.545 45.8533 143.419 46.0988C143.295 46.3419 143.233 46.606 143.233 46.8912V47.5423C143.233 47.9242 143.3 48.2491 143.434 48.517C143.57 48.7848 143.76 48.9894 144.003 49.1308C144.246 49.2697 144.53 49.3391 144.855 49.3391C145.066 49.3391 145.258 49.3094 145.431 49.2498C145.605 49.1878 145.755 49.0961 145.882 48.9745C146.008 48.853 146.105 48.703 146.172 48.5244L147.225 48.7141C147.14 49.0241 146.989 49.2957 146.771 49.5289C146.555 49.7595 146.283 49.9393 145.956 50.0683C145.631 50.1948 145.26 50.258 144.844 50.258Z" fill="#342929"/>
<rect x="182.754" y="0.886533" width="69.6555" height="58.2269" rx="8.63728" stroke="#272727" stroke-width="1.77307"/>
<g clip-path="url(#clip0_99_751)">
<path d="M210.583 18.8902L210.595 18.8772M215.487 18.8902L215.499 18.8772M210.583 23.6193L210.595 23.6063M215.487 23.6193L215.499 23.6063M210.583 28.3483L210.595 28.3353M215.487 28.3483L215.499 28.3353M220.391 33.0656H206.414C206.219 33.0656 206.032 32.9908 205.894 32.8578C205.756 32.7248 205.679 32.5444 205.679 32.3562V14.8587C205.679 14.6705 205.756 14.4901 205.894 14.3571C206.032 14.2241 206.219 14.1493 206.414 14.1493H213.035V12.4941C213.035 12.306 213.113 12.1256 213.25 11.9926C213.388 11.8595 213.576 11.7848 213.771 11.7848H219.656C219.851 11.7848 220.038 11.8595 220.176 11.9926C220.314 12.1256 220.391 12.306 220.391 12.4941V18.8784M220.391 33.0656H227.012C227.207 33.0656 227.394 32.9908 227.532 32.8578C227.67 32.7248 227.748 32.5444 227.748 32.3562V19.5877C227.748 19.3996 227.67 19.2192 227.532 19.0862C227.394 18.9531 227.207 18.8784 227.012 18.8784H220.391M220.391 33.0656V28.3365M220.391 18.8784V23.6075M220.391 28.3365V23.6075M220.391 28.3365H222.843M220.391 23.6075H222.843" stroke="#342929" stroke-width="1.42857" stroke-linecap="round" stroke-linejoin="round"/>
</g>
<path d="M214.223 45.0013H213.062C213.018 44.7533 212.935 44.5351 212.813 44.3466C212.691 44.1581 212.543 43.9981 212.367 43.8667C212.19 43.7352 211.993 43.636 211.775 43.569C211.559 43.5021 211.33 43.4686 211.087 43.4686C210.648 43.4686 210.255 43.579 209.908 43.7997C209.563 44.0204 209.29 44.3441 209.089 44.7707C208.891 45.1973 208.791 45.7181 208.791 46.3332C208.791 46.9532 208.891 47.4765 209.089 47.9031C209.29 48.3297 209.564 48.6521 209.911 48.8704C210.258 49.0886 210.649 49.1978 211.083 49.1978C211.324 49.1978 211.552 49.1655 211.768 49.101C211.986 49.0341 212.183 48.9361 212.359 48.8071C212.535 48.6782 212.684 48.5207 212.806 48.3347C212.93 48.1462 213.015 47.9304 213.062 47.6873L214.223 47.6911C214.161 48.0656 214.041 48.4103 213.862 48.7253C213.686 49.0378 213.459 49.3081 213.181 49.5363C212.906 49.762 212.591 49.9368 212.236 50.0609C211.882 50.1849 211.495 50.2469 211.076 50.2469C210.416 50.2469 209.828 50.0906 209.312 49.7781C208.796 49.4631 208.39 49.013 208.092 48.4277C207.797 47.8424 207.649 47.1442 207.649 46.3332C207.649 45.5197 207.798 44.8215 208.096 44.2387C208.393 43.6534 208.8 43.2045 209.316 42.892C209.832 42.577 210.418 42.4195 211.076 42.4195C211.48 42.4195 211.857 42.4778 212.207 42.5943C212.559 42.7084 212.875 42.8771 213.155 43.1003C213.436 43.321 213.667 43.5914 213.851 43.9113C214.034 44.2288 214.158 44.5921 214.223 45.0013ZM215.509 50.1427V44.4284H216.622V50.1427H215.509ZM216.071 43.5467C215.878 43.5467 215.711 43.4822 215.572 43.3533C215.436 43.2218 215.368 43.0656 215.368 42.8845C215.368 42.701 215.436 42.5447 215.572 42.4158C215.711 42.2843 215.878 42.2186 216.071 42.2186C216.264 42.2186 216.429 42.2843 216.566 42.4158C216.705 42.5447 216.774 42.701 216.774 42.8845C216.774 43.0656 216.705 43.2218 216.566 43.3533C216.429 43.4822 216.264 43.5467 216.071 43.5467ZM220.785 44.4284V45.3213H217.664V44.4284H220.785ZM218.501 43.0594H219.614V48.4649C219.614 48.6806 219.646 48.8431 219.71 48.9522C219.775 49.0589 219.858 49.132 219.96 49.1717C220.064 49.2089 220.177 49.2275 220.298 49.2275C220.387 49.2275 220.466 49.2213 220.533 49.2089C220.599 49.1965 220.652 49.1866 220.689 49.1792L220.89 50.0981C220.825 50.1229 220.733 50.1477 220.614 50.1725C220.495 50.1997 220.346 50.2146 220.168 50.2171C219.875 50.2221 219.602 50.17 219.349 50.0609C219.096 49.9517 218.892 49.7831 218.736 49.5549C218.579 49.3267 218.501 49.0403 218.501 48.6955V43.0594ZM222.719 52.2856C222.553 52.2856 222.402 52.2719 222.265 52.2446C222.129 52.2198 222.027 52.1926 221.96 52.1628L222.228 51.2513C222.431 51.3059 222.612 51.3295 222.771 51.322C222.93 51.3146 223.07 51.2551 223.192 51.1434C223.316 51.0318 223.425 50.8495 223.519 50.5966L223.657 50.2171L221.566 44.4284H222.756L224.203 48.8629H224.263L225.71 44.4284H226.904L224.549 50.9053C224.44 51.203 224.301 51.4547 224.133 51.6606C223.964 51.8689 223.763 52.0251 223.53 52.1293C223.297 52.2335 223.027 52.2856 222.719 52.2856Z" fill="#342929"/>
<defs>
<clipPath id="clip0_99_751">
<rect width="23.8095" height="25.7143" fill="white" transform="translate(204.724 8.57092)"/>
</clipPath>
</defs>
</svg>
