<svg width="660" height="61" viewBox="0 0 660 61" fill="none" xmlns="http://www.w3.org/2000/svg">
<rect x="0.5" y="1.40906" width="659" height="59" rx="10.283" fill="white"/>
<rect x="0.5" y="1.40906" width="659" height="59" rx="10.283" stroke="#427447"/>
<path d="M33.8805 27.4128C33.809 26.7784 33.5142 26.287 32.996 25.9385C32.4778 25.5856 31.8255 25.4092 31.0393 25.4092C30.4764 25.4092 29.9894 25.4985 29.5784 25.6772C29.1674 25.8514 28.848 26.0927 28.6202 26.4009C28.3968 26.7047 28.2851 27.0509 28.2851 27.4396C28.2851 27.7657 28.3611 28.0471 28.513 28.2839C28.6693 28.5207 28.8726 28.7195 29.1228 28.8803C29.3774 29.0367 29.6499 29.1684 29.9403 29.2757C30.2307 29.3784 30.5099 29.4633 30.7779 29.5303L32.1181 29.8788C32.5559 29.986 33.0049 30.1312 33.4651 30.3143C33.9252 30.4975 34.3518 30.7387 34.745 31.038C35.1381 31.3374 35.4553 31.7081 35.6965 32.1504C35.9422 32.5927 36.0651 33.1221 36.0651 33.7386C36.0651 34.5159 35.864 35.2061 35.462 35.8092C35.0644 36.4123 34.4859 36.8881 33.7264 37.2365C32.9714 37.585 32.0578 37.7592 30.9857 37.7592C29.9582 37.7592 29.0692 37.5961 28.3186 37.27C27.5681 36.9439 26.9807 36.4815 26.5563 35.8829C26.1319 35.2798 25.8973 34.565 25.8526 33.7386H27.93C27.9702 34.2344 28.131 34.6477 28.4125 34.9783C28.6984 35.3044 29.0625 35.5479 29.5047 35.7087C29.9515 35.865 30.4406 35.9432 30.9723 35.9432C31.5575 35.9432 32.0779 35.8516 32.5336 35.6685C32.9937 35.4808 33.3556 35.2217 33.6192 34.8912C33.8828 34.5561 34.0145 34.1652 34.0145 33.7185C34.0145 33.3119 33.8984 32.9791 33.6661 32.72C33.4383 32.4609 33.1278 32.2465 32.7346 32.0767C32.346 31.9069 31.9059 31.7573 31.4145 31.6277L29.7929 31.1855C28.6939 30.8862 27.8228 30.4461 27.1795 29.8654C26.5406 29.2846 26.2212 28.5162 26.2212 27.5602C26.2212 26.7695 26.4356 26.0793 26.8645 25.4896C27.2934 24.8999 27.8741 24.442 28.6068 24.1158C29.3394 23.7853 30.1659 23.62 31.0862 23.62C32.0154 23.62 32.8352 23.783 33.5455 24.1091C34.2602 24.4353 34.8231 24.8842 35.2341 25.4561C35.6451 26.0234 35.8596 26.6757 35.8774 27.4128H33.8805ZM42.8147 37.7391C41.8006 37.7391 40.9272 37.5224 40.1946 37.0891C39.4664 36.6513 38.9035 36.037 38.5059 35.2463C38.1128 34.4511 37.9162 33.5197 37.9162 32.452C37.9162 31.3977 38.1128 30.4685 38.5059 29.6643C38.9035 28.8602 39.4575 28.2325 40.1678 27.7813C40.8826 27.3301 41.718 27.1045 42.674 27.1045C43.2547 27.1045 43.8176 27.2006 44.3627 27.3927C44.9077 27.5848 45.3969 27.8863 45.8302 28.2973C46.2635 28.7083 46.6053 29.2422 46.8555 29.8989C47.1056 30.5511 47.2307 31.3441 47.2307 32.2777V32.9881H39.0487V31.487H45.2673C45.2673 30.9599 45.1601 30.493 44.9457 30.0865C44.7312 29.6755 44.4297 29.3516 44.041 29.1148C43.6568 28.8781 43.2056 28.7597 42.6874 28.7597C42.1245 28.7597 41.6331 28.8982 41.2132 29.1751C40.7977 29.4477 40.476 29.805 40.2482 30.2473C40.0248 30.6851 39.9132 31.1609 39.9132 31.6746V32.8473C39.9132 33.5353 40.0338 34.1205 40.275 34.603C40.5207 35.0855 40.8625 35.454 41.3003 35.7087C41.7381 35.9589 42.2496 36.0839 42.8348 36.0839C43.2145 36.0839 43.5608 36.0303 43.8735 35.9231C44.1862 35.8114 44.4565 35.6461 44.6843 35.4272C44.9121 35.2083 45.0864 34.9381 45.207 34.6164L47.1034 34.9582C46.9515 35.5166 46.679 36.0058 46.2859 36.4257C45.8972 36.8412 45.408 37.165 44.8183 37.3974C44.2331 37.6252 43.5652 37.7391 42.8147 37.7391ZM52.4492 37.7592C51.7969 37.7592 51.2072 37.6386 50.6801 37.3974C50.1529 37.1516 49.7352 36.7965 49.427 36.3319C49.1232 35.8673 48.9713 35.2977 48.9713 34.6231C48.9713 34.0424 49.083 33.5643 49.3064 33.1891C49.5297 32.8138 49.8313 32.5167 50.211 32.2978C50.5907 32.0789 51.0151 31.9136 51.4842 31.802C51.9533 31.6903 52.4313 31.6054 52.9182 31.5473C53.5347 31.4758 54.0351 31.4178 54.4193 31.3731C54.8035 31.324 55.0827 31.2458 55.2569 31.1386C55.4311 31.0313 55.5183 30.8571 55.5183 30.6159V30.569C55.5183 29.9837 55.353 29.5303 55.0224 29.2087C54.6963 28.887 54.2093 28.7262 53.5615 28.7262C52.887 28.7262 52.3554 28.8758 51.9667 29.1751C51.5825 29.47 51.3167 29.7983 51.1693 30.1602L49.2863 29.7313C49.5096 29.1059 49.8358 28.6011 50.2646 28.2169C50.698 27.8282 51.1961 27.5468 51.759 27.3726C52.3218 27.1939 52.9138 27.1045 53.5347 27.1045C53.9457 27.1045 54.3813 27.1537 54.8414 27.2519C55.3061 27.3458 55.7394 27.52 56.1415 27.7746C56.548 28.0293 56.8808 28.3934 57.1399 28.8669C57.399 29.336 57.5286 29.9458 57.5286 30.6963V37.5314H55.5719V36.1241H55.4914C55.3619 36.3833 55.1676 36.6379 54.9085 36.8881C54.6493 37.1382 54.3165 37.346 53.91 37.5113C53.5035 37.6766 53.0165 37.7592 52.4492 37.7592ZM52.8847 36.151C53.4387 36.151 53.9122 36.0415 54.3054 35.8226C54.703 35.6037 55.0045 35.3178 55.21 34.9649C55.42 34.6075 55.525 34.2255 55.525 33.819V32.4922C55.4535 32.5637 55.315 32.6307 55.1095 32.6932C54.9085 32.7513 54.6784 32.8027 54.4193 32.8473C54.1602 32.8875 53.9078 32.9255 53.6621 32.9612C53.4164 32.9925 53.2109 33.0193 53.0456 33.0417C52.6569 33.0908 52.3017 33.1734 51.9801 33.2896C51.6629 33.4058 51.4083 33.5733 51.2162 33.7922C51.0285 34.0066 50.9347 34.2925 50.9347 34.6499C50.9347 35.1458 51.1179 35.5211 51.4842 35.7757C51.8505 36.0259 52.3174 36.151 52.8847 36.151ZM60.1973 37.5314V27.2385H62.1339V28.8736H62.2411C62.4287 28.3196 62.7593 27.8841 63.2328 27.5669C63.7109 27.2452 64.2514 27.0844 64.8545 27.0844C64.9796 27.0844 65.127 27.0889 65.2968 27.0978C65.471 27.1068 65.6073 27.1179 65.7055 27.1313V29.0478C65.6251 29.0255 65.4822 29.0009 65.2767 28.9741C65.0712 28.9428 64.8657 28.9272 64.6602 28.9272C64.1866 28.9272 63.7645 29.0277 63.3937 29.2288C63.0273 29.4253 62.737 29.7001 62.5225 30.053C62.3081 30.4014 62.2009 30.799 62.2009 31.2458V37.5314H60.1973ZM71.4065 37.7391C70.4102 37.7391 69.5525 37.5135 68.8333 37.0623C68.1185 36.6066 67.569 35.979 67.1848 35.1793C66.8006 34.3796 66.6085 33.4638 66.6085 32.4319C66.6085 31.3865 66.8051 30.464 67.1982 29.6643C67.5913 28.8602 68.1453 28.2325 68.8601 27.7813C69.5748 27.3301 70.4169 27.1045 71.3864 27.1045C72.1682 27.1045 72.8651 27.2497 73.4771 27.5401C74.0891 27.826 74.5828 28.2281 74.958 28.7463C75.3378 29.2645 75.5634 29.8698 75.6348 30.5623H73.6848C73.5776 30.0798 73.3319 29.6643 72.9477 29.3159C72.568 28.9674 72.0587 28.7932 71.4199 28.7932C70.8614 28.7932 70.3723 28.9406 69.9523 29.2355C69.5369 29.5258 69.213 29.9413 68.9807 30.4819C68.7484 31.0179 68.6322 31.6523 68.6322 32.385C68.6322 33.1355 68.7461 33.7832 68.974 34.3283C69.2018 34.8733 69.5235 35.2955 69.9389 35.5948C70.3589 35.8941 70.8525 36.0437 71.4199 36.0437C71.7996 36.0437 72.1436 35.9745 72.4518 35.836C72.7646 35.693 73.0259 35.4898 73.2359 35.2262C73.4503 34.9626 73.6 34.6454 73.6848 34.2747H75.6348C75.5634 34.9403 75.3467 35.5345 74.9848 36.0571C74.623 36.5798 74.1383 36.9908 73.5307 37.2901C72.9276 37.5894 72.2195 37.7391 71.4065 37.7391ZM79.7811 31.42V37.5314H77.7775V23.8076H79.7543V28.9138H79.8816C80.1229 28.3599 80.4914 27.9198 80.9873 27.5937C81.4832 27.2676 82.131 27.1045 82.9306 27.1045C83.6365 27.1045 84.253 27.2497 84.7801 27.5401C85.3117 27.8305 85.7227 28.2638 86.0131 28.8401C86.308 29.4119 86.4554 30.1267 86.4554 30.9844V37.5314H84.4518V31.2257C84.4518 30.4707 84.2574 29.8855 83.8688 29.47C83.4801 29.0501 82.9396 28.8401 82.2471 28.8401C81.7736 28.8401 81.3492 28.9406 80.9739 29.1416C80.6031 29.3427 80.3105 29.6375 80.0961 30.0262C79.8861 30.4104 79.7811 30.875 79.7811 31.42ZM97.9762 37.7324C97.1452 37.7324 96.4037 37.5202 95.7514 37.0958C95.1037 36.6669 94.5944 36.0571 94.2236 35.2664C93.8573 34.4712 93.6741 33.5174 93.6741 32.4051C93.6741 31.2927 93.8595 30.3411 94.2303 29.5504C94.6055 28.7597 95.1193 28.1544 95.7715 27.7344C96.4238 27.3145 97.1631 27.1045 97.9896 27.1045C98.6284 27.1045 99.1422 27.2117 99.5308 27.4262C99.924 27.6361 100.228 27.8818 100.442 28.1633C100.661 28.4447 100.831 28.6927 100.951 28.9071H101.072V23.8076H103.076V37.5314H101.119V35.9298H100.951C100.831 36.1487 100.657 36.3989 100.429 36.6803C100.205 36.9618 99.8971 37.2075 99.504 37.4175C99.1109 37.6274 98.6016 37.7324 97.9762 37.7324ZM98.4184 36.0236C98.9947 36.0236 99.4817 35.8717 99.8793 35.568C100.281 35.2597 100.585 34.8331 100.791 34.2881C101.001 33.743 101.106 33.1087 101.106 32.385C101.106 31.6702 101.003 31.0447 100.797 30.5087C100.592 29.9726 100.29 29.5549 99.8927 29.2556C99.4951 28.9562 99.0037 28.8066 98.4184 28.8066C97.8154 28.8066 97.3128 28.9629 96.9107 29.2757C96.5086 29.5884 96.2049 30.015 95.9994 30.5556C95.7983 31.0961 95.6978 31.7059 95.6978 32.385C95.6978 33.0729 95.8006 33.6917 96.0061 34.2412C96.2116 34.7906 96.5153 35.2262 96.9174 35.5479C97.3239 35.865 97.8243 36.0236 98.4184 36.0236ZM110.371 37.7391C109.357 37.7391 108.484 37.5224 107.751 37.0891C107.023 36.6513 106.46 36.037 106.063 35.2463C105.67 34.4511 105.473 33.5197 105.473 32.452C105.473 31.3977 105.67 30.4685 106.063 29.6643C106.46 28.8602 107.014 28.2325 107.725 27.7813C108.439 27.3301 109.275 27.1045 110.231 27.1045C110.812 27.1045 111.374 27.2006 111.919 27.3927C112.464 27.5848 112.954 27.8863 113.387 28.2973C113.82 28.7083 114.162 29.2422 114.412 29.8989C114.662 30.5511 114.787 31.3441 114.787 32.2777V32.9881H106.605V31.487H112.824C112.824 30.9599 112.717 30.493 112.502 30.0865C112.288 29.6755 111.986 29.3516 111.598 29.1148C111.214 28.8781 110.762 28.7597 110.244 28.7597C109.681 28.7597 109.19 28.8982 108.77 29.1751C108.354 29.4477 108.033 29.805 107.805 30.2473C107.582 30.6851 107.47 31.1609 107.47 31.6746V32.8473C107.47 33.5353 107.591 34.1205 107.832 34.603C108.077 35.0855 108.419 35.454 108.857 35.7087C109.295 35.9589 109.806 36.0839 110.392 36.0839C110.771 36.0839 111.118 36.0303 111.43 35.9231C111.743 35.8114 112.013 35.6461 112.241 35.4272C112.469 35.2083 112.643 34.9381 112.764 34.6164L114.66 34.9582C114.508 35.5166 114.236 36.0058 113.843 36.4257C113.454 36.8412 112.965 37.165 112.375 37.3974C111.79 37.6252 111.122 37.7391 110.371 37.7391ZM124.723 29.7514L122.907 30.0731C122.832 29.8408 122.711 29.6197 122.546 29.4097C122.385 29.1997 122.166 29.0277 121.889 28.8937C121.612 28.7597 121.266 28.6927 120.85 28.6927C120.283 28.6927 119.809 28.82 119.43 29.0746C119.05 29.3248 118.86 29.6487 118.86 30.0463C118.86 30.3903 118.987 30.6673 119.242 30.8772C119.497 31.0872 119.908 31.2592 120.475 31.3932L122.11 31.7685C123.057 31.9874 123.763 32.3246 124.228 32.7803C124.692 33.236 124.925 33.8279 124.925 34.5561C124.925 35.1726 124.746 35.7221 124.388 36.2046C124.035 36.6826 123.542 37.0578 122.907 37.3303C122.278 37.6029 121.547 37.7391 120.716 37.7391C119.564 37.7391 118.623 37.4934 117.895 37.002C117.167 36.5061 116.72 35.8025 116.555 34.8912L118.491 34.5963C118.612 35.1011 118.86 35.4831 119.235 35.7422C119.611 35.9968 120.1 36.1241 120.703 36.1241C121.36 36.1241 121.884 35.9879 122.278 35.7154C122.671 35.4384 122.867 35.1011 122.867 34.7035C122.867 34.3819 122.747 34.1116 122.505 33.8927C122.269 33.6738 121.905 33.5085 121.413 33.3968L119.671 33.0149C118.71 32.796 118 32.4475 117.54 31.9695C117.084 31.4915 116.856 30.8862 116.856 30.1535C116.856 29.5459 117.026 29.0143 117.366 28.5586C117.705 28.103 118.174 27.7478 118.773 27.4932C119.372 27.2341 120.057 27.1045 120.83 27.1045C121.943 27.1045 122.818 27.3458 123.457 27.8282C124.096 28.3062 124.518 28.9473 124.723 29.7514ZM131.932 27.2385V28.8468H126.31V27.2385H131.932ZM127.818 24.7725H129.821V34.5092C129.821 34.8979 129.879 35.1905 129.996 35.387C130.112 35.5791 130.261 35.7109 130.445 35.7824C130.632 35.8494 130.835 35.8829 131.054 35.8829C131.215 35.8829 131.356 35.8717 131.476 35.8494C131.597 35.8271 131.691 35.8092 131.758 35.7958L132.12 37.451C132.004 37.4956 131.838 37.5403 131.624 37.585C131.409 37.6341 131.141 37.6609 130.82 37.6654C130.293 37.6743 129.801 37.5805 129.346 37.3839C128.89 37.1874 128.521 36.8836 128.24 36.4726C127.958 36.0616 127.818 35.5456 127.818 34.9247V24.7725ZM134.149 37.5314V27.2385H136.152V37.5314H134.149ZM135.16 25.6504C134.812 25.6504 134.513 25.5342 134.262 25.3019C134.017 25.0652 133.894 24.7837 133.894 24.4576C133.894 24.127 134.017 23.8456 134.262 23.6133C134.513 23.3765 134.812 23.2581 135.16 23.2581C135.509 23.2581 135.806 23.3765 136.052 23.6133C136.302 23.8456 136.427 24.127 136.427 24.4576C136.427 24.7837 136.302 25.0652 136.052 25.3019C135.806 25.5342 135.509 25.6504 135.16 25.6504ZM140.851 31.42V37.5314H138.848V27.2385H140.771V28.9138H140.898C141.135 28.3688 141.506 27.931 142.011 27.6004C142.52 27.2698 143.161 27.1045 143.934 27.1045C144.635 27.1045 145.249 27.2519 145.777 27.5468C146.304 27.8372 146.712 28.2705 147.003 28.8468C147.293 29.4231 147.438 30.1356 147.438 30.9844V37.5314H145.435V31.2257C145.435 30.4796 145.24 29.8966 144.852 29.4767C144.463 29.0523 143.929 28.8401 143.25 28.8401C142.786 28.8401 142.372 28.9406 142.011 29.1416C141.653 29.3427 141.369 29.6375 141.16 30.0262C140.954 30.4104 140.851 30.875 140.851 31.42ZM153.121 37.7592C152.469 37.7592 151.879 37.6386 151.352 37.3974C150.825 37.1516 150.407 36.7965 150.099 36.3319C149.795 35.8673 149.643 35.2977 149.643 34.6231C149.643 34.0424 149.755 33.5643 149.978 33.1891C150.201 32.8138 150.503 32.5167 150.883 32.2978C151.262 32.0789 151.687 31.9136 152.156 31.802C152.625 31.6903 153.103 31.6054 153.59 31.5473C154.206 31.4758 154.707 31.4178 155.091 31.3731C155.475 31.324 155.754 31.2458 155.929 31.1386C156.103 31.0313 156.19 30.8571 156.19 30.6159V30.569C156.19 29.9837 156.025 29.5303 155.694 29.2087C155.368 28.887 154.881 28.7262 154.233 28.7262C153.559 28.7262 153.027 28.8758 152.638 29.1751C152.254 29.47 151.988 29.7983 151.841 30.1602L149.958 29.7313C150.181 29.1059 150.507 28.6011 150.936 28.2169C151.37 27.8282 151.868 27.5468 152.431 27.3726C152.994 27.1939 153.586 27.1045 154.206 27.1045C154.617 27.1045 155.053 27.1537 155.513 27.2519C155.978 27.3458 156.411 27.52 156.813 27.7746C157.22 28.0293 157.553 28.3934 157.812 28.8669C158.071 29.336 158.2 29.9458 158.2 30.6963V37.5314H156.244V36.1241H156.163C156.034 36.3833 155.839 36.6379 155.58 36.8881C155.321 37.1382 154.988 37.346 154.582 37.5113C154.175 37.6766 153.688 37.7592 153.121 37.7592ZM153.556 36.151C154.11 36.151 154.584 36.0415 154.977 35.8226C155.375 35.6037 155.676 35.3178 155.882 34.9649C156.092 34.6075 156.197 34.2255 156.197 33.819V32.4922C156.125 32.5637 155.987 32.6307 155.781 32.6932C155.58 32.7513 155.35 32.8027 155.091 32.8473C154.832 32.8875 154.579 32.9255 154.334 32.9612C154.088 32.9925 153.883 33.0193 153.717 33.0417C153.329 33.0908 152.973 33.1734 152.652 33.2896C152.335 33.4058 152.08 33.5733 151.888 33.7922C151.7 34.0066 151.606 34.2925 151.606 34.6499C151.606 35.1458 151.79 35.5211 152.156 35.7757C152.522 36.0259 152.989 36.151 153.556 36.151ZM165.674 27.2385V28.8468H160.051V27.2385H165.674ZM161.559 24.7725H163.563V34.5092C163.563 34.8979 163.621 35.1905 163.737 35.387C163.853 35.5791 164.003 35.7109 164.186 35.7824C164.374 35.8494 164.577 35.8829 164.796 35.8829C164.957 35.8829 165.097 35.8717 165.218 35.8494C165.339 35.8271 165.432 35.8092 165.499 35.7958L165.861 37.451C165.745 37.4956 165.58 37.5403 165.365 37.585C165.151 37.6341 164.883 37.6609 164.561 37.6654C164.034 37.6743 163.543 37.5805 163.087 37.3839C162.631 37.1874 162.263 36.8836 161.981 36.4726C161.7 36.0616 161.559 35.5456 161.559 34.9247V24.7725ZM167.89 37.5314V27.2385H169.894V37.5314H167.89ZM168.902 25.6504C168.553 25.6504 168.254 25.5342 168.004 25.3019C167.758 25.0652 167.635 24.7837 167.635 24.4576C167.635 24.127 167.758 23.8456 168.004 23.6133C168.254 23.3765 168.553 23.2581 168.902 23.2581C169.25 23.2581 169.547 23.3765 169.793 23.6133C170.043 23.8456 170.168 24.127 170.168 24.4576C170.168 24.7837 170.043 25.0652 169.793 25.3019C169.547 25.5342 169.25 25.6504 168.902 25.6504ZM176.925 37.7391C175.96 37.7391 175.118 37.518 174.398 37.0757C173.679 36.6334 173.121 36.0147 172.723 35.2195C172.326 34.4243 172.127 33.4951 172.127 32.4319C172.127 31.3642 172.326 30.4305 172.723 29.6308C173.121 28.8312 173.679 28.2102 174.398 27.7679C175.118 27.3257 175.96 27.1045 176.925 27.1045C177.89 27.1045 178.732 27.3257 179.451 27.7679C180.17 28.2102 180.729 28.8312 181.126 29.6308C181.524 30.4305 181.723 31.3642 181.723 32.4319C181.723 33.4951 181.524 34.4243 181.126 35.2195C180.729 36.0147 180.17 36.6334 179.451 37.0757C178.732 37.518 177.89 37.7391 176.925 37.7391ZM176.931 36.0571C177.557 36.0571 178.075 35.8918 178.486 35.5613C178.897 35.2307 179.201 34.7906 179.397 34.2412C179.598 33.6917 179.699 33.0863 179.699 32.4252C179.699 31.7685 179.598 31.1654 179.397 30.6159C179.201 30.0619 178.897 29.6174 178.486 29.2824C178.075 28.9473 177.557 28.7798 176.931 28.7798C176.302 28.7798 175.779 28.9473 175.363 29.2824C174.952 29.6174 174.646 30.0619 174.445 30.6159C174.249 31.1654 174.151 31.7685 174.151 32.4252C174.151 33.0863 174.249 33.6917 174.445 34.2412C174.646 34.7906 174.952 35.2307 175.363 35.5613C175.779 35.8918 176.302 36.0571 176.931 36.0571ZM185.963 31.42V37.5314H183.959V27.2385H185.882V28.9138H186.01C186.246 28.3688 186.617 27.931 187.122 27.6004C187.631 27.2698 188.272 27.1045 189.045 27.1045C189.747 27.1045 190.361 27.2519 190.888 27.5468C191.415 27.8372 191.824 28.2705 192.114 28.8468C192.405 29.4231 192.55 30.1356 192.55 30.9844V37.5314H190.546V31.2257C190.546 30.4796 190.352 29.8966 189.963 29.4767C189.575 29.0523 189.041 28.8401 188.362 28.8401C187.897 28.8401 187.484 28.9406 187.122 29.1416C186.765 29.3427 186.481 29.6375 186.271 30.0262C186.066 30.4104 185.963 30.875 185.963 31.42ZM202.95 29.7514L201.134 30.0731C201.058 29.8408 200.937 29.6197 200.772 29.4097C200.611 29.1997 200.392 29.0277 200.115 28.8937C199.838 28.7597 199.492 28.6927 199.077 28.6927C198.509 28.6927 198.036 28.82 197.656 29.0746C197.276 29.3248 197.087 29.6487 197.087 30.0463C197.087 30.3903 197.214 30.6673 197.469 30.8772C197.723 31.0872 198.134 31.2592 198.702 31.3932L200.337 31.7685C201.284 31.9874 201.99 32.3246 202.454 32.7803C202.919 33.236 203.151 33.8279 203.151 34.5561C203.151 35.1726 202.972 35.7221 202.615 36.2046C202.262 36.6826 201.768 37.0578 201.134 37.3303C200.504 37.6029 199.774 37.7391 198.943 37.7391C197.79 37.7391 196.85 37.4934 196.122 37.002C195.393 36.5061 194.947 35.8025 194.781 34.8912L196.718 34.5963C196.839 35.1011 197.087 35.4831 197.462 35.7422C197.837 35.9968 198.326 36.1241 198.929 36.1241C199.586 36.1241 200.111 35.9879 200.504 35.7154C200.897 35.4384 201.094 35.1011 201.094 34.7035C201.094 34.3819 200.973 34.1116 200.732 33.8927C200.495 33.6738 200.131 33.5085 199.64 33.3968L197.897 33.0149C196.937 32.796 196.227 32.4475 195.766 31.9695C195.311 31.4915 195.083 30.8862 195.083 30.1535C195.083 29.5459 195.253 29.0143 195.592 28.5586C195.932 28.103 196.401 27.7478 196.999 27.4932C197.598 27.2341 198.284 27.1045 199.057 27.1045C200.169 27.1045 201.045 27.3458 201.684 27.8282C202.322 28.3062 202.745 28.9473 202.95 29.7514ZM207.961 35.6551L207.86 36.3855C207.793 36.9216 207.679 37.48 207.518 38.0608C207.362 38.646 207.199 39.1888 207.029 39.6891C206.864 40.1895 206.728 40.5871 206.621 40.8819H205.2C205.258 40.6049 205.338 40.2297 205.441 39.7561C205.544 39.2871 205.644 38.7621 205.743 38.1814C205.841 37.6006 205.915 37.0087 205.964 36.4056L206.031 35.6551H207.961ZM217.567 31.42V37.5314H215.563V23.8076H217.54V28.9138H217.667C217.908 28.3599 218.277 27.9198 218.773 27.5937C219.269 27.2676 219.917 27.1045 220.716 27.1045C221.422 27.1045 222.039 27.2497 222.566 27.5401C223.097 27.8305 223.508 28.2638 223.799 28.8401C224.094 29.4119 224.241 30.1267 224.241 30.9844V37.5314H222.237V31.2257C222.237 30.4707 222.043 29.8855 221.654 29.47C221.266 29.0501 220.725 28.8401 220.033 28.8401C219.559 28.8401 219.135 28.9406 218.759 29.1416C218.389 29.3427 218.096 29.6375 217.882 30.0262C217.672 30.4104 217.567 30.875 217.567 31.42ZM231.25 37.7391C230.285 37.7391 229.443 37.518 228.724 37.0757C228.005 36.6334 227.446 36.0147 227.049 35.2195C226.651 34.4243 226.452 33.4951 226.452 32.4319C226.452 31.3642 226.651 30.4305 227.049 29.6308C227.446 28.8312 228.005 28.2102 228.724 27.7679C229.443 27.3257 230.285 27.1045 231.25 27.1045C232.215 27.1045 233.057 27.3257 233.777 27.7679C234.496 28.2102 235.054 28.8312 235.452 29.6308C235.849 30.4305 236.048 31.3642 236.048 32.4319C236.048 33.4951 235.849 34.4243 235.452 35.2195C235.054 36.0147 234.496 36.6334 233.777 37.0757C233.057 37.518 232.215 37.7391 231.25 37.7391ZM231.257 36.0571C231.882 36.0571 232.401 35.8918 232.812 35.5613C233.223 35.2307 233.526 34.7906 233.723 34.2412C233.924 33.6917 234.025 33.0863 234.025 32.4252C234.025 31.7685 233.924 31.1654 233.723 30.6159C233.526 30.0619 233.223 29.6174 232.812 29.2824C232.401 28.9473 231.882 28.7798 231.257 28.7798C230.627 28.7798 230.104 28.9473 229.689 29.2824C229.278 29.6174 228.972 30.0619 228.771 30.6159C228.574 31.1654 228.476 31.7685 228.476 32.4252C228.476 33.0863 228.574 33.6917 228.771 34.2412C228.972 34.7906 229.278 35.2307 229.689 35.5613C230.104 35.8918 230.627 36.0571 231.257 36.0571ZM243.089 27.2385V28.8468H237.467V27.2385H243.089ZM238.975 24.7725H240.979V34.5092C240.979 34.8979 241.037 35.1905 241.153 35.387C241.269 35.5791 241.419 35.7109 241.602 35.7824C241.789 35.8494 241.993 35.8829 242.212 35.8829C242.372 35.8829 242.513 35.8717 242.634 35.8494C242.754 35.8271 242.848 35.8092 242.915 35.7958L243.277 37.451C243.161 37.4956 242.996 37.5403 242.781 37.585C242.567 37.6341 242.299 37.6609 241.977 37.6654C241.45 37.6743 240.958 37.5805 240.503 37.3839C240.047 37.1874 239.679 36.8836 239.397 36.4726C239.116 36.0616 238.975 35.5456 238.975 34.9247V24.7725ZM249.631 37.7391C248.617 37.7391 247.744 37.5224 247.011 37.0891C246.283 36.6513 245.72 36.037 245.322 35.2463C244.929 34.4511 244.733 33.5197 244.733 32.452C244.733 31.3977 244.929 30.4685 245.322 29.6643C245.72 28.8602 246.274 28.2325 246.984 27.7813C247.699 27.3301 248.535 27.1045 249.491 27.1045C250.071 27.1045 250.634 27.2006 251.179 27.3927C251.724 27.5848 252.213 27.8863 252.647 28.2973C253.08 28.7083 253.422 29.2422 253.672 29.8989C253.922 30.5511 254.047 31.3441 254.047 32.2777V32.9881H245.865V31.487H252.084C252.084 30.9599 251.977 30.493 251.762 30.0865C251.548 29.6755 251.246 29.3516 250.858 29.1148C250.473 28.8781 250.022 28.7597 249.504 28.7597C248.941 28.7597 248.45 28.8982 248.03 29.1751C247.614 29.4477 247.293 29.805 247.065 30.2473C246.841 30.6851 246.73 31.1609 246.73 31.6746V32.8473C246.73 33.5353 246.85 34.1205 247.092 34.603C247.337 35.0855 247.679 35.454 248.117 35.7087C248.555 35.9589 249.066 36.0839 249.651 36.0839C250.031 36.0839 250.377 36.0303 250.69 35.9231C251.003 35.8114 251.273 35.6461 251.501 35.4272C251.729 35.2083 251.903 34.9381 252.024 34.6164L253.92 34.9582C253.768 35.5166 253.496 36.0058 253.102 36.4257C252.714 36.8412 252.225 37.165 251.635 37.3974C251.05 37.6252 250.382 37.7391 249.631 37.7391ZM258.274 23.8076V37.5314H256.27V23.8076H258.274ZM268.682 29.7514L266.866 30.0731C266.79 29.8408 266.67 29.6197 266.505 29.4097C266.344 29.1997 266.125 29.0277 265.848 28.8937C265.571 28.7597 265.225 28.6927 264.809 28.6927C264.242 28.6927 263.768 28.82 263.389 29.0746C263.009 29.3248 262.819 29.6487 262.819 30.0463C262.819 30.3903 262.946 30.6673 263.201 30.8772C263.456 31.0872 263.867 31.2592 264.434 31.3932L266.069 31.7685C267.016 31.9874 267.722 32.3246 268.187 32.7803C268.651 33.236 268.883 33.8279 268.883 34.5561C268.883 35.1726 268.705 35.7221 268.347 36.2046C267.994 36.6826 267.501 37.0578 266.866 37.3303C266.237 37.6029 265.506 37.7391 264.675 37.7391C263.523 37.7391 262.582 37.4934 261.854 37.002C261.126 36.5061 260.679 35.8025 260.514 34.8912L262.45 34.5963C262.571 35.1011 262.819 35.4831 263.194 35.7422C263.569 35.9968 264.059 36.1241 264.662 36.1241C265.318 36.1241 265.843 35.9879 266.237 35.7154C266.63 35.4384 266.826 35.1011 266.826 34.7035C266.826 34.3819 266.706 34.1116 266.464 33.8927C266.228 33.6738 265.863 33.5085 265.372 33.3968L263.63 33.0149C262.669 32.796 261.959 32.4475 261.499 31.9695C261.043 31.4915 260.815 30.8862 260.815 30.1535C260.815 29.5459 260.985 29.0143 261.325 28.5586C261.664 28.103 262.133 27.7478 262.732 27.4932C263.33 27.2341 264.016 27.1045 264.789 27.1045C265.901 27.1045 266.777 27.3458 267.416 27.8282C268.055 28.3062 268.477 28.9473 268.682 29.7514ZM279.076 37.7592C278.424 37.7592 277.834 37.6386 277.307 37.3974C276.78 37.1516 276.362 36.7965 276.054 36.3319C275.75 35.8673 275.598 35.2977 275.598 34.6231C275.598 34.0424 275.71 33.5643 275.933 33.1891C276.156 32.8138 276.458 32.5167 276.838 32.2978C277.217 32.0789 277.642 31.9136 278.111 31.802C278.58 31.6903 279.058 31.6054 279.545 31.5473C280.161 31.4758 280.662 31.4178 281.046 31.3731C281.43 31.324 281.709 31.2458 281.883 31.1386C282.058 31.0313 282.145 30.8571 282.145 30.6159V30.569C282.145 29.9837 281.98 29.5303 281.649 29.2087C281.323 28.887 280.836 28.7262 280.188 28.7262C279.514 28.7262 278.982 28.8758 278.593 29.1751C278.209 29.47 277.943 29.7983 277.796 30.1602L275.913 29.7313C276.136 29.1059 276.462 28.6011 276.891 28.2169C277.325 27.8282 277.823 27.5468 278.386 27.3726C278.948 27.1939 279.54 27.1045 280.161 27.1045C280.572 27.1045 281.008 27.1537 281.468 27.2519C281.933 27.3458 282.366 27.52 282.768 27.7746C283.175 28.0293 283.507 28.3934 283.766 28.8669C284.026 29.336 284.155 29.9458 284.155 30.6963V37.5314H282.198V36.1241H282.118C281.988 36.3833 281.794 36.6379 281.535 36.8881C281.276 37.1382 280.943 37.346 280.537 37.5113C280.13 37.6766 279.643 37.7592 279.076 37.7592ZM279.511 36.151C280.065 36.151 280.539 36.0415 280.932 35.8226C281.33 35.6037 281.631 35.3178 281.837 34.9649C282.047 34.6075 282.152 34.2255 282.152 33.819V32.4922C282.08 32.5637 281.942 32.6307 281.736 32.6932C281.535 32.7513 281.305 32.8027 281.046 32.8473C280.787 32.8875 280.534 32.9255 280.289 32.9612C280.043 32.9925 279.837 33.0193 279.672 33.0417C279.283 33.0908 278.928 33.1734 278.607 33.2896C278.289 33.4058 278.035 33.5733 277.843 33.7922C277.655 34.0066 277.561 34.2925 277.561 34.6499C277.561 35.1458 277.744 35.5211 278.111 35.7757C278.477 36.0259 278.944 36.151 279.511 36.151ZM288.827 31.42V37.5314H286.824V27.2385H288.747V28.9138H288.874C289.111 28.3688 289.482 27.931 289.987 27.6004C290.496 27.2698 291.137 27.1045 291.91 27.1045C292.611 27.1045 293.226 27.2519 293.753 27.5468C294.28 27.8372 294.689 28.2705 294.979 28.8468C295.269 29.4231 295.415 30.1356 295.415 30.9844V37.5314H293.411V31.2257C293.411 30.4796 293.217 29.8966 292.828 29.4767C292.439 29.0523 291.905 28.8401 291.226 28.8401C290.762 28.8401 290.349 28.9406 289.987 29.1416C289.629 29.3427 289.346 29.6375 289.136 30.0262C288.93 30.4104 288.827 30.875 288.827 31.42ZM301.955 37.7324C301.124 37.7324 300.382 37.5202 299.73 37.0958C299.082 36.6669 298.573 36.0571 298.202 35.2664C297.836 34.4712 297.653 33.5174 297.653 32.4051C297.653 31.2927 297.838 30.3411 298.209 29.5504C298.584 28.7597 299.098 28.1544 299.75 27.7344C300.402 27.3145 301.142 27.1045 301.968 27.1045C302.607 27.1045 303.121 27.2117 303.509 27.4262C303.903 27.6361 304.206 27.8818 304.421 28.1633C304.64 28.4447 304.809 28.6927 304.93 28.9071H305.051V23.8076H307.054V37.5314H305.098V35.9298H304.93C304.809 36.1487 304.635 36.3989 304.407 36.6803C304.184 36.9618 303.876 37.2075 303.483 37.4175C303.09 37.6274 302.58 37.7324 301.955 37.7324ZM302.397 36.0236C302.973 36.0236 303.46 35.8717 303.858 35.568C304.26 35.2597 304.564 34.8331 304.769 34.2881C304.979 33.743 305.084 33.1087 305.084 32.385C305.084 31.6702 304.981 31.0447 304.776 30.5087C304.57 29.9726 304.269 29.5549 303.871 29.2556C303.474 28.9562 302.982 28.8066 302.397 28.8066C301.794 28.8066 301.291 28.9629 300.889 29.2757C300.487 29.5884 300.184 30.015 299.978 30.5556C299.777 31.0961 299.676 31.7059 299.676 32.385C299.676 33.0729 299.779 33.6917 299.985 34.2412C300.19 34.7906 300.494 35.2262 300.896 35.5479C301.303 35.865 301.803 36.0236 302.397 36.0236ZM317.903 37.7592C317.251 37.7592 316.661 37.6386 316.134 37.3974C315.607 37.1516 315.189 36.7965 314.881 36.3319C314.577 35.8673 314.426 35.2977 314.426 34.6231C314.426 34.0424 314.537 33.5643 314.761 33.1891C314.984 32.8138 315.286 32.5167 315.665 32.2978C316.045 32.0789 316.469 31.9136 316.938 31.802C317.408 31.6903 317.886 31.6054 318.372 31.5473C318.989 31.4758 319.489 31.4178 319.873 31.3731C320.258 31.324 320.537 31.2458 320.711 31.1386C320.885 31.0313 320.972 30.8571 320.972 30.6159V30.569C320.972 29.9837 320.807 29.5303 320.477 29.2087C320.15 28.887 319.664 28.7262 319.016 28.7262C318.341 28.7262 317.81 28.8758 317.421 29.1751C317.037 29.47 316.771 29.7983 316.623 30.1602L314.74 29.7313C314.964 29.1059 315.29 28.6011 315.719 28.2169C316.152 27.8282 316.65 27.5468 317.213 27.3726C317.776 27.1939 318.368 27.1045 318.989 27.1045C319.4 27.1045 319.836 27.1537 320.296 27.2519C320.76 27.3458 321.194 27.52 321.596 27.7746C322.002 28.0293 322.335 28.3934 322.594 28.8669C322.853 29.336 322.983 29.9458 322.983 30.6963V37.5314H321.026V36.1241H320.946C320.816 36.3833 320.622 36.6379 320.363 36.8881C320.104 37.1382 319.771 37.346 319.364 37.5113C318.958 37.6766 318.471 37.7592 317.903 37.7592ZM318.339 36.151C318.893 36.151 319.366 36.0415 319.76 35.8226C320.157 35.6037 320.459 35.3178 320.664 34.9649C320.874 34.6075 320.979 34.2255 320.979 33.819V32.4922C320.908 32.5637 320.769 32.6307 320.564 32.6932C320.363 32.7513 320.133 32.8027 319.873 32.8473C319.614 32.8875 319.362 32.9255 319.116 32.9612C318.871 32.9925 318.665 33.0193 318.5 33.0417C318.111 33.0908 317.756 33.1734 317.434 33.2896C317.117 33.4058 316.862 33.5733 316.67 33.7922C316.483 34.0066 316.389 34.2925 316.389 34.6499C316.389 35.1458 316.572 35.5211 316.938 35.7757C317.305 36.0259 317.772 36.151 318.339 36.151ZM329.987 37.7391C328.991 37.7391 328.133 37.5135 327.414 37.0623C326.699 36.6066 326.15 35.979 325.765 35.1793C325.381 34.3796 325.189 33.4638 325.189 32.4319C325.189 31.3865 325.386 30.464 325.779 29.6643C326.172 28.8602 326.726 28.2325 327.441 27.7813C328.155 27.3301 328.998 27.1045 329.967 27.1045C330.749 27.1045 331.446 27.2497 332.058 27.5401C332.67 27.826 333.163 28.2281 333.539 28.7463C333.918 29.2645 334.144 29.8698 334.215 30.5623H332.265C332.158 30.0798 331.913 29.6643 331.528 29.3159C331.149 28.9674 330.639 28.7932 330 28.7932C329.442 28.7932 328.953 28.9406 328.533 29.2355C328.117 29.5258 327.794 29.9413 327.561 30.4819C327.329 31.0179 327.213 31.6523 327.213 32.385C327.213 33.1355 327.327 33.7832 327.555 34.3283C327.782 34.8733 328.104 35.2955 328.52 35.5948C328.939 35.8941 329.433 36.0437 330 36.0437C330.38 36.0437 330.724 35.9745 331.032 35.836C331.345 35.693 331.606 35.4898 331.816 35.2262C332.031 34.9626 332.181 34.6454 332.265 34.2747H334.215C334.144 34.9403 333.927 35.5345 333.565 36.0571C333.204 36.5798 332.719 36.9908 332.111 37.2901C331.508 37.5894 330.8 37.7391 329.987 37.7391ZM341.163 27.2385V28.8468H335.541V27.2385H341.163ZM337.048 24.7725H339.052V34.5092C339.052 34.8979 339.11 35.1905 339.226 35.387C339.342 35.5791 339.492 35.7109 339.675 35.7824C339.863 35.8494 340.066 35.8829 340.285 35.8829C340.446 35.8829 340.586 35.8717 340.707 35.8494C340.828 35.8271 340.922 35.8092 340.989 35.7958L341.35 37.451C341.234 37.4956 341.069 37.5403 340.855 37.585C340.64 37.6341 340.372 37.6609 340.05 37.6654C339.523 37.6743 339.032 37.5805 338.576 37.3839C338.12 37.1874 337.752 36.8836 337.47 36.4726C337.189 36.0616 337.048 35.5456 337.048 34.9247V24.7725ZM343.379 37.5314V27.2385H345.383V37.5314H343.379ZM344.391 25.6504C344.043 25.6504 343.743 25.5342 343.493 25.3019C343.247 25.0652 343.124 24.7837 343.124 24.4576C343.124 24.127 343.247 23.8456 343.493 23.6133C343.743 23.3765 344.043 23.2581 344.391 23.2581C344.739 23.2581 345.037 23.3765 345.282 23.6133C345.532 23.8456 345.658 24.127 345.658 24.4576C345.658 24.7837 345.532 25.0652 345.282 25.3019C345.037 25.5342 344.739 25.6504 344.391 25.6504ZM356.883 27.2385L353.151 37.5314H351.007L347.267 27.2385H349.418L352.025 35.1592H352.132L354.732 27.2385H356.883ZM358.766 37.5314V27.2385H360.77V37.5314H358.766ZM359.778 25.6504C359.43 25.6504 359.131 25.5342 358.88 25.3019C358.635 25.0652 358.512 24.7837 358.512 24.4576C358.512 24.127 358.635 23.8456 358.88 23.6133C359.131 23.3765 359.43 23.2581 359.778 23.2581C360.127 23.2581 360.424 23.3765 360.67 23.6133C360.92 23.8456 361.045 24.127 361.045 24.4576C361.045 24.7837 360.92 25.0652 360.67 25.3019C360.424 25.5342 360.127 25.6504 359.778 25.6504ZM368.27 27.2385V28.8468H362.648V27.2385H368.27ZM364.156 24.7725H366.159V34.5092C366.159 34.8979 366.217 35.1905 366.334 35.387C366.45 35.5791 366.599 35.7109 366.783 35.7824C366.97 35.8494 367.173 35.8829 367.392 35.8829C367.553 35.8829 367.694 35.8717 367.815 35.8494C367.935 35.8271 368.029 35.8092 368.096 35.7958L368.458 37.451C368.342 37.4956 368.176 37.5403 367.962 37.585C367.748 37.6341 367.48 37.6609 367.158 37.6654C366.631 37.6743 366.139 37.5805 365.684 37.3839C365.228 37.1874 364.859 36.8836 364.578 36.4726C364.296 36.0616 364.156 35.5456 364.156 34.9247V24.7725ZM370.487 37.5314V27.2385H372.49V37.5314H370.487ZM371.498 25.6504C371.15 25.6504 370.851 25.5342 370.601 25.3019C370.355 25.0652 370.232 24.7837 370.232 24.4576C370.232 24.127 370.355 23.8456 370.601 23.6133C370.851 23.3765 371.15 23.2581 371.498 23.2581C371.847 23.2581 372.144 23.3765 372.39 23.6133C372.64 23.8456 372.765 24.127 372.765 24.4576C372.765 24.7837 372.64 25.0652 372.39 25.3019C372.144 25.5342 371.847 25.6504 371.498 25.6504ZM379.622 37.7391C378.608 37.7391 377.734 37.5224 377.002 37.0891C376.274 36.6513 375.711 36.037 375.313 35.2463C374.92 34.4511 374.723 33.5197 374.723 32.452C374.723 31.3977 374.92 30.4685 375.313 29.6643C375.711 28.8602 376.265 28.2325 376.975 27.7813C377.69 27.3301 378.525 27.1045 379.481 27.1045C380.062 27.1045 380.625 27.2006 381.17 27.3927C381.715 27.5848 382.204 27.8863 382.637 28.2973C383.071 28.7083 383.412 29.2422 383.663 29.8989C383.913 30.5511 384.038 31.3441 384.038 32.2777V32.9881H375.856V31.487H382.074C382.074 30.9599 381.967 30.493 381.753 30.0865C381.538 29.6755 381.237 29.3516 380.848 29.1148C380.464 28.8781 380.013 28.7597 379.495 28.7597C378.932 28.7597 378.44 28.8982 378.02 29.1751C377.605 29.4477 377.283 29.805 377.055 30.2473C376.832 30.6851 376.72 31.1609 376.72 31.6746V32.8473C376.72 33.5353 376.841 34.1205 377.082 34.603C377.328 35.0855 377.67 35.454 378.107 35.7087C378.545 35.9589 379.057 36.0839 379.642 36.0839C380.022 36.0839 380.368 36.0303 380.681 35.9231C380.993 35.8114 381.264 35.6461 381.491 35.4272C381.719 35.2083 381.893 34.9381 382.014 34.6164L383.911 34.9582C383.759 35.5166 383.486 36.0058 383.093 36.4257C382.704 36.8412 382.215 37.165 381.625 37.3974C381.04 37.6252 380.372 37.7391 379.622 37.7391ZM393.974 29.7514L392.158 30.0731C392.082 29.8408 391.961 29.6197 391.796 29.4097C391.635 29.1997 391.416 29.0277 391.139 28.8937C390.862 28.7597 390.516 28.6927 390.101 28.6927C389.533 28.6927 389.06 28.82 388.68 29.0746C388.3 29.3248 388.11 29.6487 388.11 30.0463C388.11 30.3903 388.238 30.6673 388.492 30.8772C388.747 31.0872 389.158 31.2592 389.725 31.3932L391.36 31.7685C392.308 31.9874 393.013 32.3246 393.478 32.7803C393.943 33.236 394.175 33.8279 394.175 34.5561C394.175 35.1726 393.996 35.7221 393.639 36.2046C393.286 36.6826 392.792 37.0578 392.158 37.3303C391.528 37.6029 390.798 37.7391 389.967 37.7391C388.814 37.7391 387.874 37.4934 387.145 37.002C386.417 36.5061 385.971 35.8025 385.805 34.8912L387.742 34.5963C387.862 35.1011 388.11 35.4831 388.486 35.7422C388.861 35.9968 389.35 36.1241 389.953 36.1241C390.61 36.1241 391.135 35.9879 391.528 35.7154C391.921 35.4384 392.118 35.1011 392.118 34.7035C392.118 34.3819 391.997 34.1116 391.756 33.8927C391.519 33.6738 391.155 33.5085 390.664 33.3968L388.921 33.0149C387.961 32.796 387.25 32.4475 386.79 31.9695C386.335 31.4915 386.107 30.8862 386.107 30.1535C386.107 29.5459 386.277 29.0143 386.616 28.5586C386.956 28.103 387.425 27.7478 388.023 27.4932C388.622 27.2341 389.308 27.1045 390.081 27.1045C391.193 27.1045 392.069 27.3458 392.707 27.8282C393.346 28.3062 393.768 28.9473 393.974 29.7514Z" fill="#8C8C8C"/>
<rect x="544.778" y="10.792" width="103.786" height="41.784" rx="5.39148" fill="#427447"/>
<path d="M578.8 28.581C578.744 28.0826 578.512 27.6965 578.105 27.4227C577.698 27.1454 577.186 27.0068 576.568 27.0068C576.125 27.0068 575.743 27.077 575.42 27.2174C575.097 27.3543 574.846 27.5438 574.667 27.786C574.492 28.0247 574.404 28.2967 574.404 28.6021C574.404 28.8583 574.463 29.0795 574.583 29.2655C574.706 29.4515 574.865 29.6077 575.062 29.7341C575.262 29.857 575.476 29.9605 575.704 30.0447C575.932 30.1255 576.152 30.1922 576.362 30.2448L577.415 30.5186C577.759 30.6028 578.112 30.7169 578.474 30.8608C578.835 31.0048 579.17 31.1943 579.479 31.4295C579.788 31.6646 580.037 31.956 580.227 32.3035C580.42 32.651 580.517 33.0669 580.517 33.5513C580.517 34.1621 580.359 34.7044 580.043 35.1782C579.73 35.6521 579.276 36.0259 578.679 36.2997C578.086 36.5735 577.368 36.7104 576.526 36.7104C575.718 36.7104 575.02 36.5823 574.43 36.326C573.84 36.0698 573.379 35.7065 573.045 35.2362C572.712 34.7623 572.528 34.2007 572.493 33.5513H574.125C574.156 33.9409 574.283 34.2656 574.504 34.5254C574.728 34.7816 575.015 34.9729 575.362 35.0993C575.713 35.2221 576.097 35.2835 576.515 35.2835C576.975 35.2835 577.384 35.2116 577.742 35.0677C578.103 34.9202 578.388 34.7167 578.595 34.4569C578.802 34.1937 578.905 33.8865 578.905 33.5355C578.905 33.2161 578.814 32.9546 578.632 32.751C578.453 32.5474 578.209 32.3789 577.9 32.2456C577.594 32.1122 577.249 31.9946 576.863 31.8928L575.588 31.5453C574.725 31.3101 574.04 30.9644 573.535 30.5081C573.033 30.0518 572.782 29.448 572.782 28.6969C572.782 28.0756 572.951 27.5333 573.288 27.07C573.625 26.6066 574.081 26.2468 574.657 25.9906C575.232 25.7309 575.882 25.601 576.605 25.601C577.335 25.601 577.979 25.7291 578.537 25.9853C579.099 26.2416 579.541 26.5943 579.864 27.0436C580.187 27.4894 580.355 28.0019 580.369 28.581H578.8ZM585.82 36.6946C585.023 36.6946 584.337 36.5244 583.761 36.1839C583.189 35.8399 582.747 35.3573 582.434 34.736C582.126 34.1112 581.971 33.3793 581.971 32.5404C581.971 31.712 582.126 30.9819 582.434 30.3501C582.747 29.7183 583.182 29.2251 583.74 28.8706C584.302 28.5161 584.958 28.3388 585.709 28.3388C586.166 28.3388 586.608 28.4143 587.036 28.5652C587.464 28.7162 587.849 28.9531 588.189 29.276C588.53 29.599 588.798 30.0184 588.995 30.5344C589.191 31.0469 589.29 31.6699 589.29 32.4035V32.9616H582.861V31.7822H587.747C587.747 31.368 587.663 31.0012 587.494 30.6818C587.326 30.3589 587.089 30.1044 586.783 29.9184C586.482 29.7323 586.127 29.6393 585.72 29.6393C585.278 29.6393 584.891 29.7481 584.562 29.9658C584.235 30.1799 583.982 30.4607 583.803 30.8082C583.628 31.1522 583.54 31.526 583.54 31.9297V32.8511C583.54 33.3916 583.635 33.8514 583.824 34.2305C584.017 34.6096 584.286 34.8992 584.63 35.0993C584.974 35.2958 585.376 35.3941 585.836 35.3941C586.134 35.3941 586.406 35.352 586.652 35.2677C586.897 35.18 587.11 35.0501 587.289 34.8781C587.468 34.7061 587.605 34.4938 587.7 34.241L589.19 34.5096C589.07 34.9483 588.856 35.3327 588.547 35.6626C588.242 35.9891 587.857 36.2435 587.394 36.4261C586.934 36.6051 586.41 36.6946 585.82 36.6946ZM593.39 36.7104C592.877 36.7104 592.414 36.6156 592 36.4261C591.586 36.233 591.257 35.954 591.015 35.5889C590.777 35.2239 590.657 34.7763 590.657 34.2463C590.657 33.79 590.745 33.4144 590.92 33.1196C591.096 32.8247 591.333 32.5913 591.631 32.4193C591.93 32.2473 592.263 32.1174 592.632 32.0297C593 31.9419 593.376 31.8753 593.758 31.8296C594.243 31.7735 594.636 31.7278 594.938 31.6927C595.24 31.6541 595.459 31.5927 595.596 31.5084C595.733 31.4242 595.801 31.2873 595.801 31.0978V31.0609C595.801 30.6011 595.671 30.2448 595.412 29.9921C595.155 29.7394 594.773 29.613 594.264 29.613C593.734 29.613 593.316 29.7306 593.011 29.9658C592.709 30.1974 592.5 30.4554 592.384 30.7397L590.905 30.4028C591.08 29.9114 591.336 29.5147 591.673 29.2129C592.014 28.9075 592.405 28.6863 592.848 28.5494C593.29 28.409 593.755 28.3388 594.243 28.3388C594.566 28.3388 594.908 28.3775 595.269 28.4547C595.635 28.5284 595.975 28.6653 596.291 28.8654C596.61 29.0654 596.872 29.3515 597.075 29.7236C597.279 30.0921 597.381 30.5713 597.381 31.1609V36.5314H595.843V35.4257H595.78C595.678 35.6293 595.526 35.8294 595.322 36.0259C595.119 36.2225 594.857 36.3857 594.538 36.5156C594.218 36.6454 593.836 36.7104 593.39 36.7104ZM593.732 35.4468C594.167 35.4468 594.539 35.3608 594.848 35.1888C595.161 35.0168 595.398 34.7921 595.559 34.5148C595.724 34.234 595.807 33.9339 595.807 33.6145V32.572C595.75 32.6282 595.642 32.6808 595.48 32.73C595.322 32.7756 595.141 32.816 594.938 32.8511C594.734 32.8826 594.536 32.9125 594.343 32.9406C594.15 32.9651 593.988 32.9862 593.858 33.0037C593.553 33.0424 593.274 33.1073 593.021 33.1986C592.772 33.2898 592.572 33.4214 592.421 33.5934C592.274 33.7619 592.2 33.9866 592.2 34.2674C592.2 34.657 592.344 34.9518 592.632 35.1519C592.919 35.3485 593.286 35.4468 593.732 35.4468ZM599.478 36.5314V28.4441H600.999V29.7288H601.083C601.231 29.2936 601.491 28.9514 601.863 28.7021C602.238 28.4494 602.663 28.323 603.137 28.323C603.235 28.323 603.351 28.3266 603.484 28.3336C603.621 28.3406 603.728 28.3494 603.806 28.3599V29.8657C603.742 29.8482 603.63 29.8289 603.469 29.8078C603.307 29.7832 603.146 29.771 602.984 29.771C602.612 29.771 602.28 29.8499 601.989 30.0079C601.701 30.1623 601.473 30.3782 601.305 30.6555C601.136 30.9293 601.052 31.2417 601.052 31.5927V36.5314H599.478ZM608.285 36.6946C607.502 36.6946 606.828 36.5173 606.263 36.1628C605.701 35.8048 605.27 35.3116 604.968 34.6833C604.666 34.055 604.515 33.3354 604.515 32.5246C604.515 31.7033 604.669 30.9784 604.978 30.3501C605.287 29.7183 605.722 29.2251 606.284 28.8706C606.846 28.5161 607.507 28.3388 608.269 28.3388C608.883 28.3388 609.431 28.4529 609.912 28.6811C610.393 28.9057 610.781 29.2216 611.075 29.6288C611.374 30.036 611.551 30.5116 611.607 31.0556H610.075C609.991 30.6766 609.798 30.3501 609.496 30.0763C609.197 29.8025 608.797 29.6657 608.295 29.6657C607.857 29.6657 607.472 29.7815 607.142 30.0132C606.816 30.2413 606.561 30.5677 606.379 30.9925C606.196 31.4137 606.105 31.9121 606.105 32.4878C606.105 33.0775 606.195 33.5864 606.374 34.0146C606.553 34.4429 606.805 34.7746 607.132 35.0098C607.462 35.2449 607.85 35.3625 608.295 35.3625C608.594 35.3625 608.864 35.3081 609.106 35.1993C609.352 35.087 609.557 34.9273 609.722 34.7202C609.891 34.5131 610.008 34.2639 610.075 33.9725H611.607C611.551 34.4955 611.381 34.9624 611.096 35.373C610.812 35.7837 610.431 36.1067 609.954 36.3418C609.48 36.577 608.924 36.6946 608.285 36.6946ZM614.865 31.7296V36.5314H613.291V25.7484H614.844V29.7604H614.944C615.133 29.3252 615.423 28.9794 615.813 28.7232C616.202 28.467 616.711 28.3388 617.34 28.3388C617.894 28.3388 618.379 28.4529 618.793 28.6811C619.21 28.9092 619.533 29.2497 619.761 29.7025C619.993 30.1518 620.109 30.7134 620.109 31.3873V36.5314H618.535V31.5769C618.535 30.9837 618.382 30.5239 618.077 30.1974C617.771 29.8675 617.347 29.7025 616.802 29.7025C616.43 29.7025 616.097 29.7815 615.802 29.9394C615.511 30.0974 615.281 30.3291 615.112 30.6344C614.947 30.9363 614.865 31.3014 614.865 31.7296Z" fill="white"/>
<path d="M485.31 36.5314V25.7484H491.996V27.1489H486.937V30.4344H491.517V31.8296H486.937V36.5314H485.31ZM493.871 36.5314V28.4441H495.445V36.5314H493.871ZM494.666 27.1963C494.392 27.1963 494.157 27.1051 493.96 26.9225C493.767 26.7365 493.671 26.5154 493.671 26.2591C493.671 25.9994 493.767 25.7782 493.96 25.5957C494.157 25.4097 494.392 25.3167 494.666 25.3167C494.94 25.3167 495.173 25.4097 495.366 25.5957C495.563 25.7782 495.661 25.9994 495.661 26.2591C495.661 26.5154 495.563 26.7365 495.366 26.9225C495.173 27.1051 494.94 27.1963 494.666 27.1963ZM499.137 25.7484V36.5314H497.563V25.7484H499.137ZM505.03 28.4441V29.7078H500.613V28.4441H505.03ZM501.797 26.5066H503.372V34.1568C503.372 34.4622 503.417 34.6921 503.509 34.8465C503.6 34.9975 503.717 35.101 503.861 35.1572C504.009 35.2098 504.168 35.2362 504.34 35.2362C504.467 35.2362 504.577 35.2274 504.672 35.2098C504.767 35.1923 504.841 35.1782 504.893 35.1677L505.178 36.4682C505.086 36.5033 504.956 36.5384 504.788 36.5735C504.619 36.6121 504.409 36.6332 504.156 36.6367C503.742 36.6437 503.356 36.57 502.998 36.4155C502.64 36.2611 502.35 36.0224 502.129 35.6995C501.908 35.3766 501.797 34.9711 501.797 34.4832V26.5066ZM510.17 36.6946C509.373 36.6946 508.687 36.5244 508.112 36.1839C507.539 35.8399 507.097 35.3573 506.785 34.736C506.476 34.1112 506.321 33.3793 506.321 32.5404C506.321 31.712 506.476 30.9819 506.785 30.3501C507.097 29.7183 507.532 29.2251 508.091 28.8706C508.652 28.5161 509.309 28.3388 510.06 28.3388C510.516 28.3388 510.958 28.4143 511.386 28.5652C511.815 28.7162 512.199 28.9531 512.54 29.276C512.88 29.599 513.149 30.0184 513.345 30.5344C513.542 31.0469 513.64 31.6699 513.64 32.4035V32.9616H507.211V31.7822H512.097C512.097 31.368 512.013 31.0012 511.845 30.6818C511.676 30.3589 511.439 30.1044 511.134 29.9184C510.832 29.7323 510.477 29.6393 510.07 29.6393C509.628 29.6393 509.242 29.7481 508.912 29.9658C508.585 30.1799 508.333 30.4607 508.154 30.8082C507.978 31.1522 507.89 31.526 507.89 31.9297V32.8511C507.89 33.3916 507.985 33.8514 508.175 34.2305C508.368 34.6096 508.636 34.8992 508.98 35.0993C509.324 35.2958 509.726 35.3941 510.186 35.3941C510.484 35.3941 510.756 35.352 511.002 35.2677C511.248 35.18 511.46 35.0501 511.639 34.8781C511.818 34.7061 511.955 34.4938 512.05 34.241L513.54 34.5096C513.421 34.9483 513.206 35.3327 512.898 35.6626C512.592 35.9891 512.208 36.2435 511.745 36.4261C511.285 36.6051 510.76 36.6946 510.17 36.6946ZM515.387 36.5314V28.4441H516.908V29.7288H516.993C517.14 29.2936 517.4 28.9514 517.772 28.7021C518.147 28.4494 518.572 28.323 519.046 28.323C519.144 28.323 519.26 28.3266 519.393 28.3336C519.53 28.3406 519.637 28.3494 519.715 28.3599V29.8657C519.651 29.8482 519.539 29.8289 519.378 29.8078C519.216 29.7832 519.055 29.771 518.893 29.771C518.521 29.771 518.189 29.8499 517.898 30.0079C517.61 30.1623 517.382 30.3782 517.214 30.6555C517.045 30.9293 516.961 31.2417 516.961 31.5927V36.5314H515.387Z" fill="#427447"/>
<path d="M463.953 24.9446H474.64C474.791 24.9444 474.939 24.991 475.066 25.0786C475.193 25.1663 475.294 25.2914 475.356 25.4388C475.419 25.5863 475.44 25.7499 475.418 25.9101C475.396 26.0704 475.331 26.2203 475.232 26.3422L471.063 31.4455C470.938 31.5993 470.869 31.7965 470.869 32.0007V36.1066C470.869 36.172 470.855 36.2365 470.827 36.295C470.8 36.3535 470.761 36.4044 470.712 36.4436L468.353 38.339C468.295 38.386 468.225 38.4146 468.152 38.4216C468.08 38.4286 468.007 38.4138 467.941 38.3788C467.876 38.3438 467.821 38.2901 467.783 38.2235C467.744 38.157 467.724 38.0803 467.724 38.0021V32.0007C467.724 31.7965 467.655 31.5993 467.53 31.4455L463.361 26.3413C462.916 25.7971 463.278 24.9446 463.953 24.9446Z" stroke="#427447" stroke-width="1.61744" stroke-linecap="round"/>
</svg>
