<svg width="503" height="60" viewBox="0 0 503 60" fill="none" xmlns="http://www.w3.org/2000/svg">
<rect x="247.125" width="249.375" height="60" rx="11.25" fill="#427447"/>
<path d="M291.383 37.1248V21.1248H293.797V35.0466H301.047V37.1248H291.383ZM308.668 37.3669C307.543 37.3669 306.561 37.1091 305.723 36.5935C304.884 36.0779 304.233 35.3565 303.77 34.4294C303.306 33.5024 303.074 32.419 303.074 31.1794C303.074 29.9347 303.306 28.8461 303.77 27.9138C304.233 26.9815 304.884 26.2576 305.723 25.7419C306.561 25.2263 307.543 24.9685 308.668 24.9685C309.793 24.9685 310.775 25.2263 311.613 25.7419C312.452 26.2576 313.103 26.9815 313.566 27.9138C314.03 28.8461 314.262 29.9347 314.262 31.1794C314.262 32.419 314.03 33.5024 313.566 34.4294C313.103 35.3565 312.452 36.0779 311.613 36.5935C310.775 37.1091 309.793 37.3669 308.668 37.3669ZM308.676 35.406C309.405 35.406 310.009 35.2133 310.488 34.8279C310.967 34.4425 311.322 33.9294 311.551 33.2888C311.785 32.6482 311.902 31.9425 311.902 31.1716C311.902 30.406 311.785 29.7029 311.551 29.0623C311.322 28.4164 310.967 27.8982 310.488 27.5076C310.009 27.1169 309.405 26.9216 308.676 26.9216C307.941 26.9216 307.332 27.1169 306.848 27.5076C306.368 27.8982 306.012 28.4164 305.777 29.0623C305.548 29.7029 305.434 30.406 305.434 31.1716C305.434 31.9425 305.548 32.6482 305.777 33.2888C306.012 33.9294 306.368 34.4425 306.848 34.8279C307.332 35.2133 307.941 35.406 308.676 35.406ZM321.9 41.8748C320.947 41.8748 320.127 41.7498 319.439 41.4998C318.757 41.2498 318.2 40.919 317.768 40.5076C317.335 40.0961 317.012 39.6456 316.799 39.156L318.807 38.3279C318.947 38.557 319.135 38.7992 319.369 39.0544C319.609 39.3149 319.932 39.5362 320.338 39.7185C320.749 39.9008 321.278 39.9919 321.924 39.9919C322.809 39.9919 323.541 39.7758 324.119 39.3435C324.697 38.9164 324.986 38.2341 324.986 37.2966V34.9373H324.838C324.697 35.1925 324.494 35.4763 324.229 35.7888C323.968 36.1013 323.609 36.3722 323.15 36.6013C322.692 36.8305 322.096 36.9451 321.361 36.9451C320.413 36.9451 319.559 36.7237 318.799 36.281C318.044 35.8331 317.445 35.1742 317.002 34.3044C316.564 33.4294 316.346 32.3539 316.346 31.0779C316.346 29.8018 316.562 28.7081 316.994 27.7966C317.432 26.8852 318.031 26.1873 318.791 25.7029C319.551 25.2133 320.413 24.9685 321.377 24.9685C322.122 24.9685 322.723 25.0935 323.182 25.3435C323.64 25.5883 323.997 25.8748 324.252 26.2029C324.512 26.531 324.713 26.8201 324.854 27.0701H325.025V25.1248H327.314V37.3904C327.314 38.4216 327.075 39.268 326.596 39.9294C326.117 40.5909 325.468 41.0805 324.65 41.3982C323.838 41.7159 322.921 41.8748 321.9 41.8748ZM321.877 35.0076C322.549 35.0076 323.117 34.8513 323.58 34.5388C324.049 34.2211 324.403 33.768 324.643 33.1794C324.887 32.5857 325.01 31.8748 325.01 31.0466C325.01 30.2393 324.89 29.5284 324.65 28.9138C324.411 28.2992 324.059 27.8201 323.596 27.4763C323.132 27.1274 322.559 26.9529 321.877 26.9529C321.174 26.9529 320.588 27.1352 320.119 27.4998C319.65 27.8591 319.296 28.3487 319.057 28.9685C318.822 29.5883 318.705 30.281 318.705 31.0466C318.705 31.8331 318.825 32.5232 319.064 33.1169C319.304 33.7107 319.658 34.1742 320.127 34.5076C320.601 34.8409 321.184 35.0076 321.877 35.0076ZM330.447 37.1248V25.1248H332.783V37.1248H330.447ZM331.627 23.2732C331.221 23.2732 330.872 23.1378 330.58 22.8669C330.294 22.5909 330.15 22.2628 330.15 21.8826C330.15 21.4972 330.294 21.169 330.58 20.8982C330.872 20.6222 331.221 20.4841 331.627 20.4841C332.033 20.4841 332.38 20.6222 332.666 20.8982C332.958 21.169 333.104 21.4972 333.104 21.8826C333.104 22.2628 332.958 22.5909 332.666 22.8669C332.38 23.1378 332.033 23.2732 331.627 23.2732ZM338.262 29.9998V37.1248H335.926V25.1248H338.168V27.0779H338.316C338.592 26.4425 339.025 25.932 339.613 25.5466C340.207 25.1612 340.954 24.9685 341.855 24.9685C342.673 24.9685 343.389 25.1404 344.004 25.4841C344.618 25.8227 345.095 26.3279 345.434 26.9998C345.772 27.6716 345.941 28.5024 345.941 29.4919V37.1248H343.605V29.7732C343.605 28.9034 343.379 28.2237 342.926 27.7341C342.473 27.2393 341.85 26.9919 341.059 26.9919C340.517 26.9919 340.035 27.1091 339.613 27.3435C339.197 27.5779 338.866 27.9216 338.621 28.3748C338.382 28.8227 338.262 29.3643 338.262 29.9998ZM360.99 20.3748L355.834 39.531H353.748L358.904 20.3748H360.99ZM377.711 25.3279C377.628 24.5883 377.284 24.0154 376.68 23.6091C376.076 23.1977 375.315 22.9919 374.398 22.9919C373.742 22.9919 373.174 23.0961 372.695 23.3044C372.216 23.5076 371.844 23.7888 371.578 24.1482C371.318 24.5024 371.188 24.906 371.188 25.3591C371.188 25.7393 371.276 26.0675 371.453 26.3435C371.635 26.6195 371.872 26.8513 372.164 27.0388C372.461 27.2211 372.779 27.3748 373.117 27.4998C373.456 27.6195 373.781 27.7185 374.094 27.7966L375.656 28.2029C376.167 28.3279 376.69 28.4972 377.227 28.7107C377.763 28.9242 378.26 29.2055 378.719 29.5544C379.177 29.9034 379.547 30.3357 379.828 30.8513C380.115 31.3669 380.258 31.9841 380.258 32.7029C380.258 33.6091 380.023 34.4138 379.555 35.1169C379.091 35.8201 378.417 36.3748 377.531 36.781C376.651 37.1873 375.586 37.3904 374.336 37.3904C373.138 37.3904 372.102 37.2003 371.227 36.8201C370.352 36.4399 369.667 35.9008 369.172 35.2029C368.677 34.4998 368.404 33.6664 368.352 32.7029H370.773C370.82 33.281 371.008 33.7628 371.336 34.1482C371.669 34.5284 372.094 34.8123 372.609 34.9998C373.13 35.182 373.701 35.2732 374.32 35.2732C375.003 35.2732 375.609 35.1664 376.141 34.9529C376.677 34.7341 377.099 34.432 377.406 34.0466C377.714 33.656 377.867 33.2003 377.867 32.6794C377.867 32.2055 377.732 31.8175 377.461 31.5154C377.195 31.2133 376.833 30.9633 376.375 30.7654C375.922 30.5675 375.409 30.393 374.836 30.2419L372.945 29.7263C371.664 29.3774 370.648 28.8643 369.898 28.1873C369.154 27.5102 368.781 26.6143 368.781 25.4998C368.781 24.5779 369.031 23.7732 369.531 23.0857C370.031 22.3982 370.708 21.8643 371.563 21.4841C372.417 21.0987 373.38 20.906 374.453 20.906C375.536 20.906 376.492 21.0961 377.32 21.4763C378.154 21.8565 378.81 22.38 379.289 23.0466C379.768 23.7081 380.018 24.4685 380.039 25.3279H377.711ZM382.955 37.1248V25.1248H385.291V37.1248H382.955ZM384.135 23.2732C383.729 23.2732 383.38 23.1378 383.088 22.8669C382.801 22.5909 382.658 22.2628 382.658 21.8826C382.658 21.4972 382.801 21.169 383.088 20.8982C383.38 20.6222 383.729 20.4841 384.135 20.4841C384.541 20.4841 384.887 20.6222 385.174 20.8982C385.465 21.169 385.611 21.4972 385.611 21.8826C385.611 22.2628 385.465 22.5909 385.174 22.8669C384.887 23.1378 384.541 23.2732 384.135 23.2732ZM393.465 41.8748C392.512 41.8748 391.691 41.7498 391.004 41.4998C390.322 41.2498 389.764 40.919 389.332 40.5076C388.9 40.0961 388.577 39.6456 388.363 39.156L390.371 38.3279C390.512 38.557 390.699 38.7992 390.934 39.0544C391.173 39.3149 391.496 39.5362 391.902 39.7185C392.314 39.9008 392.842 39.9919 393.488 39.9919C394.374 39.9919 395.105 39.7758 395.684 39.3435C396.262 38.9164 396.551 38.2341 396.551 37.2966V34.9373H396.402C396.262 35.1925 396.059 35.4763 395.793 35.7888C395.533 36.1013 395.173 36.3722 394.715 36.6013C394.257 36.8305 393.66 36.9451 392.926 36.9451C391.978 36.9451 391.124 36.7237 390.363 36.281C389.608 35.8331 389.009 35.1742 388.566 34.3044C388.129 33.4294 387.91 32.3539 387.91 31.0779C387.91 29.8018 388.126 28.7081 388.559 27.7966C388.996 26.8852 389.595 26.1873 390.355 25.7029C391.116 25.2133 391.978 24.9685 392.941 24.9685C393.686 24.9685 394.288 25.0935 394.746 25.3435C395.204 25.5883 395.561 25.8748 395.816 26.2029C396.077 26.531 396.277 26.8201 396.418 27.0701H396.59V25.1248H398.879V37.3904C398.879 38.4216 398.639 39.268 398.16 39.9294C397.681 40.5909 397.033 41.0805 396.215 41.3982C395.402 41.7159 394.486 41.8748 393.465 41.8748ZM393.441 35.0076C394.113 35.0076 394.681 34.8513 395.145 34.5388C395.613 34.2211 395.967 33.768 396.207 33.1794C396.452 32.5857 396.574 31.8748 396.574 31.0466C396.574 30.2393 396.454 29.5284 396.215 28.9138C395.975 28.2992 395.624 27.8201 395.16 27.4763C394.697 27.1274 394.124 26.9529 393.441 26.9529C392.738 26.9529 392.152 27.1352 391.684 27.4998C391.215 27.8591 390.861 28.3487 390.621 28.9685C390.387 29.5883 390.27 30.281 390.27 31.0466C390.27 31.8331 390.389 32.5232 390.629 33.1169C390.868 33.7107 391.223 34.1742 391.691 34.5076C392.165 34.8409 392.749 35.0076 393.441 35.0076ZM404.348 29.9998V37.1248H402.012V25.1248H404.254V27.0779H404.402C404.678 26.4425 405.111 25.932 405.699 25.5466C406.293 25.1612 407.04 24.9685 407.941 24.9685C408.759 24.9685 409.475 25.1404 410.09 25.4841C410.704 25.8227 411.181 26.3279 411.52 26.9998C411.858 27.6716 412.027 28.5024 412.027 29.4919V37.1248H409.691V29.7732C409.691 28.9034 409.465 28.2237 409.012 27.7341C408.559 27.2393 407.936 26.9919 407.145 26.9919C406.603 26.9919 406.121 27.1091 405.699 27.3435C405.283 27.5779 404.952 27.9216 404.707 28.3748C404.467 28.8227 404.348 29.3643 404.348 29.9998ZM431.459 21.1248H433.881V31.6482C433.881 32.768 433.618 33.7602 433.092 34.6248C432.566 35.4841 431.826 36.1612 430.873 36.656C429.92 37.1456 428.803 37.3904 427.521 37.3904C426.245 37.3904 425.131 37.1456 424.178 36.656C423.225 36.1612 422.485 35.4841 421.959 34.6248C421.433 33.7602 421.17 32.768 421.17 31.6482V21.1248H423.584V31.4529C423.584 32.1768 423.743 32.8201 424.061 33.3826C424.383 33.9451 424.839 34.3878 425.428 34.7107C426.016 35.0284 426.714 35.1873 427.521 35.1873C428.334 35.1873 429.035 35.0284 429.623 34.7107C430.217 34.3878 430.67 33.9451 430.982 33.3826C431.3 32.8201 431.459 32.1768 431.459 31.4529V21.1248ZM437.203 41.6248V25.1248H439.484V27.0701H439.68C439.815 26.8201 440.01 26.531 440.266 26.2029C440.521 25.8748 440.875 25.5883 441.328 25.3435C441.781 25.0935 442.38 24.9685 443.125 24.9685C444.094 24.9685 444.958 25.2133 445.719 25.7029C446.479 26.1925 447.076 26.8982 447.508 27.8201C447.945 28.7419 448.164 29.8513 448.164 31.1482C448.164 32.4451 447.948 33.557 447.516 34.4841C447.083 35.406 446.49 36.1169 445.734 36.6169C444.979 37.1117 444.117 37.3591 443.148 37.3591C442.419 37.3591 441.823 37.2367 441.359 36.9919C440.901 36.7472 440.542 36.4607 440.281 36.1326C440.021 35.8044 439.82 35.5128 439.68 35.2576H439.539V41.6248H437.203ZM439.492 31.1248C439.492 31.9685 439.615 32.7081 439.859 33.3435C440.104 33.9789 440.458 34.4763 440.922 34.8357C441.385 35.1899 441.953 35.3669 442.625 35.3669C443.323 35.3669 443.906 35.182 444.375 34.8123C444.844 34.4373 445.198 33.9294 445.438 33.2888C445.682 32.6482 445.805 31.9268 445.805 31.1248C445.805 30.3331 445.685 29.6222 445.445 28.9919C445.211 28.3617 444.857 27.8643 444.383 27.4998C443.914 27.1352 443.328 26.9529 442.625 26.9529C441.948 26.9529 441.375 27.1274 440.906 27.4763C440.443 27.8253 440.091 28.3123 439.852 28.9373C439.612 29.5623 439.492 30.2914 439.492 31.1248Z" fill="white"/>
<rect x="1" y="1" width="223" height="58" rx="10.25" stroke="#427447" stroke-width="2"/>
<path d="M51.1113 25.3279C51.028 24.5883 50.6842 24.0154 50.0801 23.6091C49.4759 23.1977 48.7155 22.9919 47.7988 22.9919C47.1426 22.9919 46.5749 23.0961 46.0957 23.3044C45.6165 23.5076 45.2441 23.7888 44.9785 24.1482C44.7181 24.5024 44.5879 24.906 44.5879 25.3591C44.5879 25.7393 44.6764 26.0675 44.8535 26.3435C45.0358 26.6195 45.2728 26.8513 45.5645 27.0388C45.8613 27.2211 46.179 27.3748 46.5176 27.4998C46.8561 27.6195 47.1816 27.7185 47.4941 27.7966L49.0566 28.2029C49.5671 28.3279 50.0905 28.4972 50.627 28.7107C51.1634 28.9242 51.6608 29.2055 52.1191 29.5544C52.5775 29.9034 52.9473 30.3357 53.2285 30.8513C53.515 31.3669 53.6582 31.9841 53.6582 32.7029C53.6582 33.6091 53.4238 34.4138 52.9551 35.1169C52.4915 35.8201 51.8171 36.3748 50.9316 36.781C50.0514 37.1873 48.9863 37.3904 47.7363 37.3904C46.5384 37.3904 45.502 37.2003 44.627 36.8201C43.752 36.4399 43.0671 35.9008 42.5723 35.2029C42.0775 34.4998 41.804 33.6664 41.752 32.7029H44.1738C44.2207 33.281 44.4082 33.7628 44.7363 34.1482C45.0697 34.5284 45.4941 34.8123 46.0098 34.9998C46.5306 35.182 47.1009 35.2732 47.7207 35.2732C48.403 35.2732 49.0098 35.1664 49.541 34.9529C50.0775 34.7341 50.4993 34.432 50.8066 34.0466C51.1139 33.656 51.2676 33.2003 51.2676 32.6794C51.2676 32.2055 51.1322 31.8175 50.8613 31.5154C50.5957 31.2133 50.2337 30.9633 49.7754 30.7654C49.3223 30.5675 48.8092 30.393 48.2363 30.2419L46.3457 29.7263C45.0645 29.3774 44.0488 28.8643 43.2988 28.1873C42.554 27.5102 42.1816 26.6143 42.1816 25.4998C42.1816 24.5779 42.4316 23.7732 42.9316 23.0857C43.4316 22.3982 44.1087 21.8643 44.9629 21.4841C45.8171 21.0987 46.7806 20.906 47.8535 20.906C48.9368 20.906 49.8926 21.0961 50.7207 21.4763C51.554 21.8565 52.2103 22.38 52.6895 23.0466C53.1686 23.7081 53.4186 24.4685 53.4395 25.3279H51.1113ZM61.5273 37.3669C60.3451 37.3669 59.3268 37.1143 58.4727 36.6091C57.6237 36.0987 56.9674 35.3826 56.5039 34.4607C56.0456 33.5336 55.8164 32.4477 55.8164 31.2029C55.8164 29.9737 56.0456 28.8904 56.5039 27.9529C56.9674 27.0154 57.6133 26.2836 58.4414 25.7576C59.2747 25.2315 60.2487 24.9685 61.3633 24.9685C62.0404 24.9685 62.6966 25.0805 63.332 25.3044C63.9674 25.5284 64.5378 25.88 65.043 26.3591C65.5482 26.8383 65.9466 27.4607 66.2383 28.2263C66.5299 28.9867 66.6758 29.9112 66.6758 30.9998V31.8279H57.1367V30.0779H64.3867C64.3867 29.4633 64.2617 28.919 64.0117 28.4451C63.7617 27.9659 63.4102 27.5883 62.957 27.3123C62.5091 27.0362 61.9831 26.8982 61.3789 26.8982C60.7227 26.8982 60.1497 27.0597 59.6602 27.3826C59.1758 27.7003 58.8008 28.1169 58.5352 28.6326C58.2747 29.143 58.1445 29.6977 58.1445 30.2966V31.6638C58.1445 32.4659 58.2852 33.1482 58.5664 33.7107C58.8529 34.2732 59.2513 34.7029 59.7617 34.9998C60.2721 35.2914 60.8685 35.4373 61.5508 35.4373C61.9935 35.4373 62.3971 35.3748 62.7617 35.2498C63.1263 35.1195 63.4414 34.9268 63.707 34.6716C63.9727 34.4164 64.1758 34.1013 64.3164 33.7263L66.5273 34.1248C66.3503 34.7758 66.0326 35.3461 65.5742 35.8357C65.1211 36.3201 64.5508 36.6977 63.8633 36.9685C63.181 37.2341 62.4023 37.3669 61.5273 37.3669ZM71.6035 29.9998V37.1248H69.2676V25.1248H71.5098V27.0779H71.6582C71.9342 26.4425 72.3665 25.932 72.9551 25.5466C73.5488 25.1612 74.2962 24.9685 75.1973 24.9685C76.015 24.9685 76.7311 25.1404 77.3457 25.4841C77.9603 25.8227 78.4368 26.3279 78.7754 26.9998C79.1139 27.6716 79.2832 28.5024 79.2832 29.4919V37.1248H76.9473V29.7732C76.9473 28.9034 76.7207 28.2237 76.2676 27.7341C75.8145 27.2393 75.1921 26.9919 74.4004 26.9919C73.8587 26.9919 73.377 27.1091 72.9551 27.3435C72.5384 27.5779 72.2077 27.9216 71.9629 28.3748C71.7233 28.8227 71.6035 29.3643 71.6035 29.9998ZM86.9082 37.3591C85.9395 37.3591 85.0749 37.1117 84.3145 36.6169C83.5592 36.1169 82.9655 35.406 82.5332 34.4841C82.1061 33.557 81.8926 32.4451 81.8926 31.1482C81.8926 29.8513 82.1087 28.7419 82.541 27.8201C82.9785 26.8982 83.5775 26.1925 84.3379 25.7029C85.0983 25.2133 85.9603 24.9685 86.9238 24.9685C87.6686 24.9685 88.2676 25.0935 88.7207 25.3435C89.179 25.5883 89.5332 25.8748 89.7832 26.2029C90.0384 26.531 90.2363 26.8201 90.377 27.0701H90.5176V21.1248H92.8535V37.1248H90.5723V35.2576H90.377C90.2363 35.5128 90.0332 35.8044 89.7676 36.1326C89.5072 36.4607 89.1478 36.7472 88.6895 36.9919C88.2311 37.2367 87.6374 37.3591 86.9082 37.3591ZM87.4238 35.3669C88.0957 35.3669 88.6634 35.1899 89.127 34.8357C89.5957 34.4763 89.9499 33.9789 90.1895 33.3435C90.4342 32.7081 90.5566 31.9685 90.5566 31.1248C90.5566 30.2914 90.4368 29.5623 90.1973 28.9373C89.9577 28.3123 89.6061 27.8253 89.1426 27.4763C88.679 27.1274 88.1061 26.9529 87.4238 26.9529C86.7207 26.9529 86.1348 27.1352 85.666 27.4998C85.1973 27.8643 84.8431 28.3617 84.6035 28.9919C84.3691 29.6222 84.252 30.3331 84.252 31.1248C84.252 31.9268 84.3717 32.6482 84.6113 33.2888C84.8509 33.9294 85.2051 34.4373 85.6738 34.8123C86.1478 35.182 86.7311 35.3669 87.4238 35.3669ZM102.197 37.1248V21.1248H112.229V23.2029H104.611V28.0779H111.705V30.1482H104.611V35.0466H112.322V37.1248H102.197ZM117.602 29.9998V37.1248H115.266V25.1248H117.508V27.0779H117.656C117.932 26.4425 118.365 25.932 118.953 25.5466C119.547 25.1612 120.294 24.9685 121.195 24.9685C122.013 24.9685 122.729 25.1404 123.344 25.4841C123.958 25.8227 124.435 26.3279 124.773 26.9998C125.112 27.6716 125.281 28.5024 125.281 29.4919V37.1248H122.945V29.7732C122.945 28.9034 122.719 28.2237 122.266 27.7341C121.813 27.2393 121.19 26.9919 120.398 26.9919C119.857 26.9919 119.375 27.1091 118.953 27.3435C118.536 27.5779 118.206 27.9216 117.961 28.3748C117.721 28.8227 117.602 29.3643 117.602 29.9998ZM136.516 41.6248V35.2576H136.375C136.234 35.5128 136.031 35.8044 135.766 36.1326C135.505 36.4607 135.146 36.7472 134.688 36.9919C134.229 37.2367 133.635 37.3591 132.906 37.3591C131.938 37.3591 131.073 37.1117 130.312 36.6169C129.557 36.1169 128.964 35.406 128.531 34.4841C128.104 33.557 127.891 32.4451 127.891 31.1482C127.891 29.8513 128.107 28.7419 128.539 27.8201C128.977 26.8982 129.576 26.1925 130.336 25.7029C131.096 25.2133 131.958 24.9685 132.922 24.9685C133.667 24.9685 134.266 25.0935 134.719 25.3435C135.177 25.5883 135.531 25.8748 135.781 26.2029C136.036 26.531 136.234 26.8201 136.375 27.0701H136.57V25.1248H138.852V41.6248H136.516ZM133.422 35.3669C134.094 35.3669 134.661 35.1899 135.125 34.8357C135.594 34.4763 135.948 33.9789 136.188 33.3435C136.432 32.7081 136.555 31.9685 136.555 31.1248C136.555 30.2914 136.435 29.5623 136.195 28.9373C135.956 28.3123 135.604 27.8253 135.141 27.4763C134.677 27.1274 134.104 26.9529 133.422 26.9529C132.719 26.9529 132.133 27.1352 131.664 27.4998C131.195 27.8643 130.841 28.3617 130.602 28.9919C130.367 29.6222 130.25 30.3331 130.25 31.1248C130.25 31.9268 130.37 32.6482 130.609 33.2888C130.849 33.9294 131.203 34.4373 131.672 34.8123C132.146 35.182 132.729 35.3669 133.422 35.3669ZM149.594 32.1482V25.1248H151.938V37.1248H149.641V35.0466H149.516C149.24 35.6873 148.797 36.2211 148.188 36.6482C147.583 37.0701 146.831 37.281 145.93 37.281C145.159 37.281 144.477 37.1117 143.883 36.7732C143.294 36.4294 142.831 35.9216 142.492 35.2498C142.159 34.5779 141.992 33.7472 141.992 32.7576V25.1248H144.328V32.4763C144.328 33.294 144.555 33.9451 145.008 34.4294C145.461 34.9138 146.049 35.156 146.773 35.156C147.211 35.156 147.646 35.0466 148.078 34.8279C148.516 34.6091 148.878 34.2784 149.164 33.8357C149.456 33.393 149.599 32.8305 149.594 32.1482ZM155.076 37.1248V25.1248H157.412V37.1248H155.076ZM156.256 23.2732C155.85 23.2732 155.501 23.1378 155.209 22.8669C154.923 22.5909 154.779 22.2628 154.779 21.8826C154.779 21.4972 154.923 21.169 155.209 20.8982C155.501 20.6222 155.85 20.4841 156.256 20.4841C156.662 20.4841 157.008 20.6222 157.295 20.8982C157.587 21.169 157.732 21.4972 157.732 21.8826C157.732 22.2628 157.587 22.5909 157.295 22.8669C157.008 23.1378 156.662 23.2732 156.256 23.2732ZM160.555 37.1248V25.1248H162.813V27.031H162.938C163.156 26.3852 163.542 25.8774 164.094 25.5076C164.651 25.1326 165.281 24.9451 165.984 24.9451C166.13 24.9451 166.302 24.9503 166.5 24.9607C166.703 24.9711 166.862 24.9841 166.977 24.9998V27.2341C166.883 27.2081 166.716 27.1794 166.477 27.1482C166.237 27.1117 165.997 27.0935 165.758 27.0935C165.206 27.0935 164.714 27.2107 164.281 27.4451C163.854 27.6742 163.516 27.9945 163.266 28.406C163.016 28.8123 162.891 29.2758 162.891 29.7966V37.1248H160.555ZM170.84 41.6248C170.491 41.6248 170.173 41.5961 169.887 41.5388C169.6 41.4867 169.387 41.4294 169.246 41.3669L169.809 39.4529C170.236 39.5675 170.616 39.6169 170.949 39.6013C171.283 39.5857 171.577 39.4607 171.832 39.2263C172.092 38.9919 172.322 38.6091 172.52 38.0779L172.809 37.281L168.418 25.1248H170.918L173.957 34.4373H174.082L177.121 25.1248H179.629L174.684 38.7263C174.454 39.3513 174.163 39.88 173.809 40.3123C173.454 40.7498 173.033 41.0779 172.543 41.2966C172.053 41.5154 171.486 41.6248 170.84 41.6248Z" fill="#427447"/>
</svg>
