<svg width="225" height="60" viewBox="0 0 225 60" fill="none" xmlns="http://www.w3.org/2000/svg">
<path d="M89.1608 47.2941V5.77678H114.906V11.1692H95.4249V23.819H113.062V29.1911H95.4249V47.2941H89.1608ZM122.123 47.2941V16.1561H128.185V47.2941H122.123ZM125.184 11.3516C124.13 11.3516 123.225 11.0002 122.468 10.2975C121.725 9.58118 121.353 8.72975 121.353 7.74317C121.353 6.74308 121.725 5.89165 122.468 5.18888C123.225 4.4726 124.13 4.11446 125.184 4.11446C126.239 4.11446 127.137 4.4726 127.881 5.18888C128.637 5.89165 129.016 6.74308 129.016 7.74317C129.016 8.72975 128.637 9.58118 127.881 10.2975C127.137 11.0002 126.239 11.3516 125.184 11.3516ZM142.4 5.77678V47.2941H136.339V5.77678H142.4ZM165.09 16.1561V21.0214H148.082V16.1561H165.09ZM152.643 8.69596H158.704V38.1513C158.704 39.3271 158.88 40.2123 159.231 40.807C159.583 41.3881 160.036 41.7868 160.59 42.003C161.157 42.2058 161.772 42.3071 162.434 42.3071C162.921 42.3071 163.347 42.2733 163.712 42.2058C164.076 42.1382 164.36 42.0841 164.563 42.0436L165.658 47.0508C165.306 47.1859 164.806 47.3211 164.158 47.4562C163.509 47.6049 162.698 47.686 161.725 47.6995C160.13 47.7265 158.644 47.4427 157.265 46.8481C155.887 46.2534 154.772 45.3344 153.92 44.0911C153.069 42.8477 152.643 41.2868 152.643 39.4082V8.69596ZM184.881 47.9225C181.813 47.9225 179.171 47.267 176.954 45.9561C174.751 44.6317 173.049 42.7734 171.846 40.3813C170.656 37.9757 170.062 35.1578 170.062 31.9278C170.062 28.7383 170.656 25.9273 171.846 23.4946C173.049 21.062 174.724 19.1631 176.873 17.7981C179.036 16.4332 181.563 15.7507 184.455 15.7507C186.212 15.7507 187.915 16.0412 189.564 16.6224C191.212 17.2035 192.692 18.1157 194.003 19.3591C195.314 20.6024 196.348 22.2175 197.105 24.2041C197.862 26.1773 198.24 28.5761 198.24 31.4007V33.5496H173.488V29.0086H192.3C192.3 27.4139 191.976 26.0016 191.327 24.7717C190.679 23.5284 189.766 22.5486 188.59 21.8323C187.428 21.116 186.063 20.7579 184.496 20.7579C182.793 20.7579 181.306 21.1768 180.036 22.0147C178.779 22.8391 177.806 23.9203 177.116 25.2583C176.441 26.5827 176.103 28.022 176.103 29.5762V33.1239C176.103 35.2051 176.468 36.9756 177.198 38.4352C177.941 39.8947 178.975 41.0097 180.299 41.7801C181.624 42.5369 183.171 42.9153 184.942 42.9153C186.09 42.9153 187.138 42.7531 188.084 42.4288C189.03 42.0909 189.847 41.5908 190.537 40.9286C191.226 40.2664 191.753 39.4488 192.118 38.4757L197.855 39.5096C197.395 41.1989 196.571 42.6788 195.382 43.9492C194.206 45.206 192.726 46.1859 190.942 46.8886C189.172 47.5779 187.151 47.9225 184.881 47.9225ZM204.965 47.2941V16.1561H210.824V21.1025H211.148C211.716 19.4267 212.716 18.109 214.149 17.1494C215.595 16.1764 217.23 15.6898 219.054 15.6898C219.433 15.6898 219.879 15.7034 220.392 15.7304C220.919 15.7574 221.332 15.7912 221.629 15.8317V21.6296C221.386 21.562 220.953 21.4877 220.332 21.4066C219.71 21.312 219.088 21.2647 218.467 21.2647C217.034 21.2647 215.757 21.5688 214.635 22.1769C213.527 22.7716 212.648 23.6027 212 24.6704C211.351 25.7245 211.027 26.9273 211.027 28.2788V47.2941H204.965Z" fill="#427447"/>
<g clip-path="url(#clip0_99_746)">
<path d="M6.93141 3.83728H48.0785C48.6605 3.83675 49.2303 4.01596 49.7196 4.35346C50.209 4.69096 50.5972 5.17244 50.8377 5.74024C51.0783 6.30804 51.161 6.9381 51.0759 7.55495C50.9908 8.17181 50.7416 8.74931 50.3581 9.21831L34.3073 28.8677C33.8246 29.4596 33.5588 30.2191 33.5596 31.0052V46.8142C33.5596 47.0659 33.5048 47.3142 33.3998 47.5394C33.2947 47.7646 33.1421 47.9605 32.9541 48.1116L23.8722 55.4095C23.6473 55.5902 23.3799 55.7003 23.0999 55.7273C22.82 55.7544 22.5385 55.6974 22.2871 55.5627C22.0356 55.428 21.8242 55.2209 21.6764 54.9647C21.5286 54.7085 21.4504 54.4133 21.4504 54.1121V31.0052C21.4511 30.2191 21.1854 29.4596 20.7026 28.8677L4.65185 9.21507C2.9384 7.11974 4.33096 3.83728 6.93141 3.83728Z" stroke="#427447" stroke-width="6.22759" stroke-linecap="round"/>
</g>
<defs>
<clipPath id="clip0_99_746">
<rect width="54.7059" height="60" fill="white" transform="matrix(-1 0 0 1 54.7061 0)"/>
</clipPath>
</defs>
</svg>
